<svg width="32" height="32" viewBox="0 0 32 32" fill="none" xmlns="http://www.w3.org/2000/svg">
<g id="icon">
<path id="Vector (Stroke)" fill-rule="evenodd" clip-rule="evenodd" d="M16 4.00065C15.8129 4.00065 15.6278 4.03865 15.4558 4.11233L8.02569 7.29554C8.02545 7.29564 8.02592 7.29544 8.02569 7.29554C7.69751 7.43698 7.43687 7.69807 7.29731 8.02308C7.29728 8.02316 7.29734 8.02301 7.29731 8.02308L4.11217 15.456C4.03848 15.6279 4.00047 15.8131 4.00047 16.0001C4.00047 16.1872 4.03846 16.3723 4.11215 16.5443L7.29621 23.9764C7.43595 24.3027 7.69596 24.5627 8.02222 24.7025L15.4558 27.8879C15.8024 28.0368 16.1963 28.0374 16.5429 27.8884L23.9742 24.7047C23.9747 24.7045 23.9753 24.7043 23.9758 24.7041C24.3034 24.5626 24.5629 24.3022 24.7024 23.9776M24.7024 23.9776L27.8877 16.5443C28.0367 16.1977 28.0372 15.8038 27.8883 15.4572L24.7046 8.02587C24.7043 8.02535 24.7041 8.02484 24.7039 8.02432C24.5624 7.69669 24.302 7.43716 23.9774 7.29768L16.5441 4.11235C16.3722 4.03866 16.187 4.00065 16 4.00065M14.4056 1.66121C14.9094 1.44531 15.4518 1.33398 16 1.33398C16.5481 1.33398 17.0906 1.44532 17.5945 1.66125C17.5945 1.66126 17.5944 1.66125 17.5945 1.66125L25.0278 4.84658C25.9824 5.25629 26.7434 6.01765 27.154 6.97173L27.1549 6.97373L30.3383 14.4044C30.3385 14.4048 30.3381 14.404 30.3383 14.4044C30.3383 14.4045 30.3389 14.4057 30.3389 14.4057C30.7759 15.4238 30.7759 16.5767 30.3388 17.5947C30.3387 17.5951 30.339 17.5943 30.3388 17.5947L27.1535 25.028C26.7438 25.9826 25.9824 26.7436 25.0284 27.1542L25.0264 27.1551L17.5957 30.3385C17.5953 30.3387 17.5961 30.3383 17.5957 30.3385C17.5956 30.3385 17.5944 30.339 17.5944 30.3391C16.5763 30.7761 15.4234 30.776 14.4054 30.339C14.405 30.3388 14.4058 30.3392 14.4054 30.339L6.97235 27.1538C6.97227 27.1538 6.97243 27.1538 6.97235 27.1538C6.01641 26.7443 5.25449 25.9825 4.84502 25.0265M4.84502 25.0265L1.66109 17.5947C1.66106 17.5946 1.66111 17.5947 1.66109 17.5947C1.44519 17.0909 1.3338 16.5483 1.3338 16.0001C1.3338 15.452 1.44514 14.9095 1.66107 14.4056C1.66107 14.4056 1.66106 14.4056 1.66107 14.4056L4.8464 6.9723C5.2561 6.01765 6.01746 5.25666 6.97155 4.84607L14.4056 1.66121C14.4056 1.66118 14.4055 1.66123 14.4056 1.66121" fill="#798086"/>
<path id="Vector (Stroke)_2" fill-rule="evenodd" clip-rule="evenodd" d="M16 20C16.7364 20 17.3334 20.597 17.3334 21.3333V21.3467C17.3334 22.083 16.7364 22.68 16 22.68C15.2636 22.68 14.6667 22.083 14.6667 21.3467V21.3333C14.6667 20.597 15.2636 20 16 20Z" fill="#798086"/>
<path id="Vector (Stroke)_3" fill-rule="evenodd" clip-rule="evenodd" d="M15.2355 10.7442C16.1145 10.5683 17.0272 10.6949 17.8253 11.1033C18.6261 11.5118 19.2661 12.1781 19.6418 12.9948C20.0178 13.812 20.1074 14.732 19.8961 15.6063C19.6848 16.4807 19.1849 17.2583 18.4773 17.8135C17.7696 18.3688 16.8955 18.6694 15.996 18.6667C15.2596 18.6645 14.6644 18.0657 14.6667 17.3293C14.6689 16.593 15.2676 15.9978 16.004 16C16.3038 16.0009 16.5952 15.9007 16.8311 15.7156C17.067 15.5305 17.2336 15.2713 17.304 14.9799C17.3745 14.6885 17.3446 14.3818 17.2193 14.1094C17.094 13.837 16.8805 13.6148 16.6133 13.4787L16.6108 13.4774L16.6108 13.4774C16.3482 13.3429 16.0479 13.3012 15.7587 13.3591C15.4694 13.4169 15.2083 13.571 15.0177 13.7961C14.5419 14.3582 13.7006 14.4281 13.1385 13.9524C12.5765 13.4766 12.5065 12.6353 12.9823 12.0732C13.5618 11.3886 14.3559 10.9202 15.2355 10.7442Z" fill="#798086"/>
</g>
</svg>
