<svg width="24" height="24" viewBox="0 0 24 24" fill="none" xmlns="http://www.w3.org/2000/svg">
<g id="icon">
<path id="Vector (Stroke)" fill-rule="evenodd" clip-rule="evenodd" d="M11.993 1.00195C12.3736 1.00195 12.7213 1.21805 12.8897 1.55939L15.743 7.34073L22.1224 8.26529C22.4993 8.31992 22.8125 8.58388 22.9301 8.94609C23.0477 9.30831 22.9494 9.70589 22.6765 9.97153L18.0536 14.4715L19.1436 20.8259C19.208 21.2012 19.0536 21.5805 18.7454 21.8042C18.4372 22.0279 18.0287 22.0572 17.6918 21.8796L11.9995 18.88L6.29335 21.8801C5.95643 22.0572 5.54815 22.0277 5.2402 21.804C4.93225 21.5802 4.77803 21.2011 4.84238 20.8259L5.93242 14.4715L1.30948 9.97153C1.03658 9.70589 0.938255 9.30831 1.05588 8.94609C1.17351 8.58388 1.48666 8.31992 1.86356 8.26529L8.24302 7.34073L11.0962 1.55939C11.2647 1.21805 11.6123 1.00195 11.993 1.00195ZM11.993 4.26153L9.80373 8.69751C9.65801 8.99278 9.37628 9.19739 9.05042 9.24461L4.1584 9.9536L7.7045 13.4054C7.94053 13.6351 8.04828 13.9664 7.99259 14.291L7.15619 19.1668L11.5346 16.8648C11.8263 16.7115 12.1747 16.7117 12.4662 16.8653L16.8294 19.1645L15.9934 14.291C15.9377 13.9664 16.0454 13.6351 16.2815 13.4054L19.8276 9.9536L14.9356 9.24461C14.6097 9.19739 14.328 8.99278 14.1823 8.69751L11.993 4.26153Z" fill="#798086"/>
</g>
</svg>
