<svg width="40" height="40" viewBox="0 0 40 40" fill="none" xmlns="http://www.w3.org/2000/svg">
<g id="icon">
<path id="Vector (Stroke)" fill-rule="evenodd" clip-rule="evenodd" d="M11.6666 20.0003C11.2246 20.0003 10.8007 20.1759 10.4881 20.4885C10.1756 20.801 9.99996 21.225 9.99996 21.667V31.667C9.99996 32.109 10.1756 32.5329 10.4881 32.8455C10.8007 33.1581 11.2246 33.3337 11.6666 33.3337H28.3333C28.7753 33.3337 29.1992 33.1581 29.5118 32.8455C29.8244 32.5329 30 32.109 30 31.667V21.667C30 21.225 29.8244 20.801 29.5118 20.4885C29.1992 20.1759 28.7753 20.0003 28.3333 20.0003H11.6666ZM8.13109 18.1315C9.06877 17.1938 10.3405 16.667 11.6666 16.667H28.3333C29.6594 16.667 30.9311 17.1938 31.8688 18.1315C32.8065 19.0691 33.3333 20.3409 33.3333 21.667V31.667C33.3333 32.9931 32.8065 34.2648 31.8688 35.2025C30.9311 36.1402 29.6594 36.667 28.3333 36.667H11.6666C10.3405 36.667 9.06877 36.1402 8.13109 35.2025C7.19341 34.2648 6.66663 32.9931 6.66663 31.667V21.667C6.66663 20.3409 7.19341 19.0691 8.13109 18.1315Z" fill="#798086"/>
<path id="Vector (Stroke)_2" fill-rule="evenodd" clip-rule="evenodd" d="M17.6429 24.3093C18.2681 23.6842 19.1159 23.333 20 23.333C20.884 23.333 21.7319 23.6842 22.357 24.3093C22.9821 24.9344 23.3333 25.7823 23.3333 26.6663C23.3333 27.5504 22.9821 28.3982 22.357 29.0234C21.7319 29.6485 20.884 29.9997 20 29.9997C19.1159 29.9997 18.2681 29.6485 17.6429 29.0234C17.0178 28.3982 16.6666 27.5504 16.6666 26.6663C16.6666 25.7823 17.0178 24.9344 17.6429 24.3093Z" fill="#798086"/>
<path id="Vector (Stroke)_3" fill-rule="evenodd" clip-rule="evenodd" d="M20 6.66634C18.6739 6.66634 17.4021 7.19313 16.4644 8.13081C15.5267 9.06849 15 10.3403 15 11.6663V18.333C15 19.2535 14.2538 19.9997 13.3333 19.9997C12.4128 19.9997 11.6666 19.2535 11.6666 18.333V11.6663C11.6666 9.4562 12.5446 7.33659 14.1074 5.77378C15.6702 4.21098 17.7898 3.33301 20 3.33301C22.2101 3.33301 24.3297 4.21098 25.8925 5.77378C27.4553 7.33659 28.3333 9.4562 28.3333 11.6663V18.333C28.3333 19.2535 27.5871 19.9997 26.6666 19.9997C25.7462 19.9997 25 19.2535 25 18.333V11.6663C25 10.3403 24.4732 9.06849 23.5355 8.13081C22.5978 7.19313 21.326 6.66634 20 6.66634Z" fill="#798086"/>
</g>
</svg>
