<svg width="24" height="24" viewBox="0 0 24 24" fill="none" xmlns="http://www.w3.org/2000/svg">
<g id="icon">
<path id="Vector (Stroke)" fill-rule="evenodd" clip-rule="evenodd" d="M14 2C14.5523 2 15 2.44772 15 3V7H19C19.5523 7 20 7.44772 20 8C20 8.55228 19.5523 9 19 9H15C14.4696 9 13.9609 8.78929 13.5858 8.41421C13.2107 8.03914 13 7.53043 13 7V3C13 2.44772 13.4477 2 14 2Z" fill="#2EC4B6"/>
<path id="Vector (Stroke)_2" fill-rule="evenodd" clip-rule="evenodd" d="M7 4C6.73478 4 6.48043 4.10536 6.29289 4.29289C6.10536 4.48043 6 4.73478 6 5V19C6 19.2652 6.10536 19.5196 6.29289 19.7071C6.48043 19.8946 6.73478 20 7 20H17C17.2652 20 17.5196 19.8946 17.7071 19.7071C17.8946 19.5196 18 19.2652 18 19V8.41421L13.5858 4H7ZM4.87868 2.87868C5.44129 2.31607 6.20435 2 7 2H14C14.2652 2 14.5196 2.10536 14.7071 2.29289L19.7071 7.29289C19.8946 7.48043 20 7.73478 20 8V19C20 19.7957 19.6839 20.5587 19.1213 21.1213C18.5587 21.6839 17.7957 22 17 22H7C6.20435 22 5.44129 21.6839 4.87868 21.1213C4.31607 20.5587 4 19.7957 4 19V5C4 4.20435 4.31607 3.44129 4.87868 2.87868Z" fill="#2EC4B6"/>
<path id="Vector (Stroke)_3" fill-rule="evenodd" clip-rule="evenodd" d="M12 10C12.5523 10 13 10.4477 13 11V17C13 17.5523 12.5523 18 12 18C11.4477 18 11 17.5523 11 17V11C11 10.4477 11.4477 10 12 10Z" fill="#2EC4B6"/>
<path id="Vector (Stroke)_4" fill-rule="evenodd" clip-rule="evenodd" d="M8.79289 13.7929C9.18342 13.4024 9.81658 13.4024 10.2071 13.7929L12 15.5858L13.7929 13.7929C14.1834 13.4024 14.8166 13.4024 15.2071 13.7929C15.5976 14.1834 15.5976 14.8166 15.2071 15.2071L12.7071 17.7071C12.3166 18.0976 11.6834 18.0976 11.2929 17.7071L8.79289 15.2071C8.40237 14.8166 8.40237 14.1834 8.79289 13.7929Z" fill="#2EC4B6"/>
</g>
</svg>
