<svg width="33" height="32" viewBox="0 0 33 32" fill="none" xmlns="http://www.w3.org/2000/svg">
<g id="icon-trailing">
<path id="Vector (Stroke)" fill-rule="evenodd" clip-rule="evenodd" d="M19.1667 2.66699C19.9031 2.66699 20.5 3.26395 20.5 4.00033V9.33366H25.8334C26.5698 9.33366 27.1667 9.93061 27.1667 10.667C27.1667 11.4034 26.5698 12.0003 25.8334 12.0003H20.5C19.7928 12.0003 19.1145 11.7194 18.6144 11.2193C18.1143 10.7192 17.8334 10.0409 17.8334 9.33366V4.00033C17.8334 3.26395 18.4303 2.66699 19.1667 2.66699Z" fill="#798086"/>
<path id="Vector (Stroke)_2" fill-rule="evenodd" clip-rule="evenodd" d="M9.83337 5.33366C9.47975 5.33366 9.14061 5.47413 8.89056 5.72418C8.64052 5.97423 8.50004 6.31337 8.50004 6.66699V25.3337C8.50004 25.6873 8.64052 26.0264 8.89056 26.2765C9.14061 26.5265 9.47975 26.667 9.83337 26.667H23.1667C23.5203 26.667 23.8595 26.5265 24.1095 26.2765C24.3596 26.0264 24.5 25.6873 24.5 25.3337V11.2193L18.6144 5.33366H9.83337ZM7.00495 3.83856C7.75509 3.08842 8.77251 2.66699 9.83337 2.66699H19.1667C19.5203 2.66699 19.8595 2.80747 20.1095 3.05752L26.7762 9.72418C27.0262 9.97423 27.1667 10.3134 27.1667 10.667V25.3337C27.1667 26.3945 26.7453 27.4119 25.9951 28.1621C25.245 28.9122 24.2276 29.3337 23.1667 29.3337H9.83337C8.77251 29.3337 7.75509 28.9122 7.00495 28.1621C6.2548 27.4119 5.83337 26.3945 5.83337 25.3337V6.66699C5.83337 5.60613 6.2548 4.58871 7.00495 3.83856Z" fill="#798086"/>
<path id="Vector (Stroke)_3" fill-rule="evenodd" clip-rule="evenodd" d="M16.5 13.333C17.2363 13.333 17.8333 13.93 17.8333 14.6663V22.6663C17.8333 23.4027 17.2363 23.9997 16.5 23.9997C15.7636 23.9997 15.1666 23.4027 15.1666 22.6663V14.6663C15.1666 13.93 15.7636 13.333 16.5 13.333Z" fill="#798086"/>
<path id="Vector (Stroke)_4" fill-rule="evenodd" clip-rule="evenodd" d="M12.2239 18.3905C12.7446 17.8698 13.5888 17.8698 14.1095 18.3905L16.5 20.781L18.8906 18.3905C19.4113 17.8698 20.2555 17.8698 20.7762 18.3905C21.2969 18.9112 21.2969 19.7554 20.7762 20.2761L17.4428 23.6095C16.9222 24.1302 16.0779 24.1302 15.5572 23.6095L12.2239 20.2761C11.7032 19.7554 11.7032 18.9112 12.2239 18.3905Z" fill="#798086"/>
</g>
</svg>
