<svg width="24" height="24" viewBox="0 0 24 24" fill="none" xmlns="http://www.w3.org/2000/svg">
<g id="icon">
<path id="Vector (Stroke)" fill-rule="evenodd" clip-rule="evenodd" d="M5.5 6C5.23478 6 4.98043 6.10536 4.79289 6.29289C4.60536 6.48043 4.5 6.73478 4.5 7V19C4.5 19.2652 4.60536 19.5196 4.79289 19.7071C4.98043 19.8946 5.23478 20 5.5 20H12.5C13.0523 20 13.5 20.4477 13.5 21C13.5 21.5523 13.0523 22 12.5 22H5.5C4.70435 22 3.94129 21.6839 3.37868 21.1213C2.81607 20.5587 2.5 19.7956 2.5 19V7C2.5 6.20435 2.81607 5.44129 3.37868 4.87868C3.94129 4.31607 4.70435 4 5.5 4H17.5C18.2956 4 19.0587 4.31607 19.6213 4.87868C20.1839 5.44129 20.5 6.20435 20.5 7V13.5C20.5 14.0523 20.0523 14.5 19.5 14.5C18.9477 14.5 18.5 14.0523 18.5 13.5V7C18.5 6.73478 18.3946 6.48043 18.2071 6.29289C18.0196 6.10536 17.7652 6 17.5 6H5.5Z" fill="#202B36"/>
<path id="Vector (Stroke)_2" fill-rule="evenodd" clip-rule="evenodd" d="M15.5 2C16.0523 2 16.5 2.44772 16.5 3V7C16.5 7.55228 16.0523 8 15.5 8C14.9477 8 14.5 7.55228 14.5 7V3C14.5 2.44772 14.9477 2 15.5 2Z" fill="#202B36"/>
<path id="Vector (Stroke)_3" fill-rule="evenodd" clip-rule="evenodd" d="M7.5 2C8.05228 2 8.5 2.44772 8.5 3V7C8.5 7.55228 8.05228 8 7.5 8C6.94772 8 6.5 7.55228 6.5 7V3C6.5 2.44772 6.94772 2 7.5 2Z" fill="#202B36"/>
<path id="Vector (Stroke)_4" fill-rule="evenodd" clip-rule="evenodd" d="M2.5 11C2.5 10.4477 2.94772 10 3.5 10H19.5C20.0523 10 20.5 10.4477 20.5 11C20.5 11.5523 20.0523 12 19.5 12H3.5C2.94772 12 2.5 11.5523 2.5 11Z" fill="#202B36"/>
<path id="Vector (Stroke)_5" fill-rule="evenodd" clip-rule="evenodd" d="M15.7929 16.2929C16.1834 15.9024 16.8166 15.9024 17.2071 16.2929L22.2071 21.2929C22.5976 21.6834 22.5976 22.3166 22.2071 22.7071C21.8166 23.0976 21.1834 23.0976 20.7929 22.7071L15.7929 17.7071C15.4024 17.3166 15.4024 16.6834 15.7929 16.2929Z" fill="#202B36"/>
<path id="Vector (Stroke)_6" fill-rule="evenodd" clip-rule="evenodd" d="M22.2071 16.2929C22.5976 16.6834 22.5976 17.3166 22.2071 17.7071L17.2071 22.7071C16.8166 23.0976 16.1834 23.0976 15.7929 22.7071C15.4024 22.3166 15.4024 21.6834 15.7929 21.2929L20.7929 16.2929C21.1834 15.9024 21.8166 15.9024 22.2071 16.2929Z" fill="#202B36"/>
</g>
</svg>
