<svg width="41" height="40" viewBox="0 0 41 40" fill="none" xmlns="http://www.w3.org/2000/svg">
<g id="icon">
<path id="Vector (Stroke)" fill-rule="evenodd" clip-rule="evenodd" d="M10.5 10.0003C10.058 10.0003 9.63405 10.1759 9.32149 10.4885C9.00893 10.801 8.83333 11.225 8.83333 11.667V31.667C8.83333 32.109 9.00893 32.5329 9.32149 32.8455C9.63405 33.1581 10.058 33.3337 10.5 33.3337H30.5C30.942 33.3337 31.3659 33.1581 31.6785 32.8455C31.9911 32.5329 32.1667 32.109 32.1667 31.667V11.667C32.1667 11.225 31.9911 10.801 31.6785 10.4885C31.3659 10.1759 30.942 10.0003 30.5 10.0003H10.5ZM6.96447 8.13146C7.90215 7.19378 9.17392 6.66699 10.5 6.66699H30.5C31.8261 6.66699 33.0979 7.19378 34.0355 8.13146C34.9732 9.06914 35.5 10.3409 35.5 11.667V31.667C35.5 32.9931 34.9732 34.2648 34.0355 35.2025C33.0979 36.1402 31.8261 36.667 30.5 36.667H10.5C9.17392 36.667 7.90215 36.1402 6.96447 35.2025C6.02678 34.2648 5.5 32.9931 5.5 31.667V11.667C5.5 10.3409 6.02678 9.06914 6.96447 8.13146Z" fill="#202B36"/>
<path id="Vector (Stroke)_2" fill-rule="evenodd" clip-rule="evenodd" d="M27.1667 3.33301C28.0871 3.33301 28.8333 4.0792 28.8333 4.99967V11.6663C28.8333 12.5868 28.0871 13.333 27.1667 13.333C26.2462 13.333 25.5 12.5868 25.5 11.6663V4.99967C25.5 4.0792 26.2462 3.33301 27.1667 3.33301Z" fill="#202B36"/>
<path id="Vector (Stroke)_3" fill-rule="evenodd" clip-rule="evenodd" d="M13.8334 3.33301C14.7539 3.33301 15.5001 4.0792 15.5001 4.99967V11.6663C15.5001 12.5868 14.7539 13.333 13.8334 13.333C12.9129 13.333 12.1667 12.5868 12.1667 11.6663V4.99967C12.1667 4.0792 12.9129 3.33301 13.8334 3.33301Z" fill="#202B36"/>
<path id="Vector (Stroke)_4" fill-rule="evenodd" clip-rule="evenodd" d="M5.5 18.3337C5.5 17.4132 6.24619 16.667 7.16667 16.667H33.8333C34.7538 16.667 35.5 17.4132 35.5 18.3337C35.5 19.2541 34.7538 20.0003 33.8333 20.0003H7.16667C6.24619 20.0003 5.5 19.2541 5.5 18.3337Z" fill="#202B36"/>
<path id="Vector (Stroke)_5" fill-rule="evenodd" clip-rule="evenodd" d="M12.1667 24.9997C12.1667 24.0792 12.9129 23.333 13.8334 23.333H17.1667C18.0872 23.333 18.8334 24.0792 18.8334 24.9997V28.333C18.8334 29.2535 18.0872 29.9997 17.1667 29.9997H13.8334C12.9129 29.9997 12.1667 29.2535 12.1667 28.333V24.9997Z" fill="#202B36"/>
</g>
</svg>
