<svg width="24" height="24" viewBox="0 0 24 24" fill="none" xmlns="http://www.w3.org/2000/svg">
<g id="icon">
<g id="Vector (Stroke)">
<path d="M6.23602 16.767L5.85618 15.5327L4.36876 14.7905C4.37271 14.7937 4.37664 14.797 4.38053 14.8004C4.46703 14.8745 4.53483 14.9679 4.57841 15.0732C4.62199 15.1784 4.64012 15.2925 4.63133 15.4061C4.62254 15.5196 4.58707 15.6295 4.52782 15.7268C3.04284 18.166 5.8339 20.9564 8.27213 19.471C8.36945 19.4117 8.47973 19.3759 8.59338 19.3671C8.70702 19.3583 8.82115 19.3765 8.92646 19.4201C9.03177 19.4637 9.12528 19.5316 9.1994 19.6182C9.27352 19.7048 9.32614 19.8077 9.35298 19.9185C10.0261 22.6933 13.973 22.6937 14.6465 19.9193L12.845 19.0203C12.7863 19.1579 12.7387 19.3004 12.7032 19.4467C12.5244 20.1836 11.4757 20.1843 11.2967 19.4475L8.43878 17.3731L7.23128 17.7632C6.58364 18.1573 5.84131 17.4157 6.23602 16.767Z" fill="#798086"/>
<path d="M15.5603 17.3745C15.133 17.3414 14.7039 17.4096 14.3079 17.5736C13.9119 17.7376 13.5602 17.9926 13.2814 18.3181C13.1661 18.4527 13.0646 18.5977 12.9781 18.7509L15.8162 17.5752L15.8931 17.421C15.7835 17.3988 15.6724 17.3832 15.5603 17.3745Z" fill="#798086"/>
<path d="M12.845 19.0203L14.6465 19.9193C14.6723 19.8138 14.7215 19.715 14.7903 19.6312L15.8162 17.5752L12.9781 18.7509C12.9288 18.8382 12.8844 18.9281 12.845 19.0203Z" fill="#798086"/>
<path d="M4.55262 12.7032C4.32518 12.648 4.16795 12.51 4.08092 12.3402L4.08057 14.6467C4.18627 14.6724 4.28476 14.7216 4.36876 14.7905L5.85618 15.5327L5.03691 12.8705C4.88156 12.7999 4.71944 12.7438 4.55262 12.7032Z" fill="#798086"/>
<path d="M4.08138 9.35312C1.30657 10.0263 1.30611 13.9731 4.08057 14.6467L4.08092 12.3402C3.97299 12.1297 3.97303 11.8704 4.08102 11.6598L4.08138 9.35312Z" fill="#798086"/>
<path d="M6.23667 7.23142C6.11484 7.03124 6.10155 6.82203 6.16051 6.64015L4.52886 8.27226C4.5882 8.36959 4.62391 8.47987 4.63272 8.59352C4.64153 8.70716 4.62339 8.82129 4.57976 8.92659C4.53613 9.0319 4.46825 9.12542 4.38165 9.19954C4.29504 9.27366 4.19216 9.32628 4.08138 9.35312L4.08102 11.6598C4.16808 11.4901 4.32528 11.352 4.55262 11.2968L6.23667 7.23142Z" fill="#798086"/>
<path d="M8.27246 4.52759C5.83343 3.0433 3.04359 5.83421 4.52886 8.27226L6.16051 6.64015C6.23324 6.41574 6.41595 6.23295 6.64045 6.16007L8.27246 4.52759Z" fill="#798086"/>
<path d="M7.91729 6.53515C9.1193 6.87379 10.4146 6.33671 11.0244 5.24789L7.91729 6.53515Z" fill="#798086"/>
<path d="M11.1556 4.98016L9.35318 4.08071C9.23686 4.55757 8.69431 4.78399 8.27246 4.52759L6.64045 6.16007C6.82271 6.10091 7.0325 6.11419 7.23335 6.23646C7.45401 6.37063 7.68389 6.4694 7.91729 6.53515L11.0244 5.24789C11.0725 5.16202 11.1164 5.07272 11.1556 4.98016Z" fill="#798086"/>
<path d="M11.2967 4.55276C11.4754 3.81584 12.524 3.81575 12.703 4.55248L14.2248 6.3916C14.2522 6.40404 14.2799 6.41605 14.3078 6.4276C14.704 6.59175 15.1334 6.66003 15.5609 6.62688C15.9885 6.59372 16.4023 6.46008 16.7684 6.23681C17.4161 5.84266 18.1585 6.58411 17.7638 7.2328C17.5994 7.5028 17.4836 7.79862 17.4209 8.10676L19.6314 9.20985C19.6273 9.20649 19.6232 9.20309 19.6192 9.19964C19.5327 9.12553 19.4649 9.03205 19.4213 8.92681C19.3777 8.82156 19.3596 8.70752 19.3684 8.59395C19.3772 8.48038 19.4128 8.3703 19.472 8.27302C20.957 5.83386 18.1655 3.04382 15.7273 4.52919C15.63 4.58853 15.52 4.62405 15.4063 4.63286C15.2927 4.64167 15.1786 4.62352 15.0733 4.5799C14.968 4.53627 14.8744 4.46839 14.8003 4.38178C14.7262 4.29518 14.6735 4.19202 14.6467 4.08124C13.9735 1.30643 10.0268 1.30625 9.35318 4.08071L11.1556 4.98016C11.213 4.84455 11.2604 4.70191 11.2967 4.55276Z" fill="#798086"/>
<path d="M17.3744 8.4396C17.3413 8.8669 17.4095 9.29598 17.5735 9.69195C17.7374 10.0879 17.9925 10.4396 18.318 10.7185C18.529 10.8993 18.7658 11.0461 19.0198 11.1547L19.9186 9.35319C19.8133 9.32749 19.7151 9.27848 19.6314 9.20985L17.4209 8.10676C17.3986 8.21635 17.383 8.3275 17.3744 8.4396Z" fill="#798086"/>
<path d="M6.42626 14.308C6.2623 13.9121 6.00721 13.5604 5.68174 13.2815C5.48665 13.1144 5.26937 12.9762 5.03691 12.8705L5.85618 15.5327L6.57879 15.8933C6.60109 15.7837 6.61668 15.6725 6.62536 15.5604C6.65844 15.1331 6.59022 14.704 6.42626 14.308Z" fill="#798086"/>
<path d="M5.85618 15.5327L6.23602 16.767C6.4004 16.4971 6.5161 16.2014 6.57879 15.8933L5.85618 15.5327Z" fill="#798086"/>
<path d="M9.69196 17.5724C9.29575 17.4082 8.86637 17.34 8.43878 17.3731L11.2967 19.4475C11.1957 19.0308 10.9977 18.6436 10.7189 18.3178C10.44 17.9919 10.0882 17.7366 9.69196 17.5724Z" fill="#798086"/>
<path d="M8.43878 17.3731C8.0113 17.4063 7.59738 17.54 7.23128 17.7632L8.43878 17.3731Z" fill="#798086"/>
<path d="M6.62674 8.43891C6.5936 8.01144 6.45982 7.59752 6.23667 7.23142L4.55262 11.2968C4.96933 11.1958 5.35631 10.9978 5.68208 10.719C6.00792 10.4402 6.2633 10.0883 6.42746 9.6921C6.59161 9.29588 6.65989 8.86651 6.62674 8.43891Z" fill="#798086"/>
<path d="M19.4474 12.7031C19.0307 12.8041 18.6434 13.0022 18.3176 13.281L19.4474 12.7031Z" fill="#798086"/>
<path d="M19.4466 11.2967C20.1835 11.4755 20.1841 12.5241 19.4474 12.7031L18.3176 13.281L17.5723 14.3079L17.373 15.5611L17.7631 16.7686C18.1572 17.4162 17.4158 18.1587 16.7671 17.764C16.5521 17.633 16.3207 17.5329 16.0798 17.4659L15.8162 17.5752L14.7903 19.6312L14.8002 19.6193C14.8743 19.5328 14.9678 19.465 15.0731 19.4215C15.1783 19.3779 15.2923 19.3597 15.4059 19.3685C15.5195 19.3773 15.6296 19.4129 15.7268 19.4722C18.166 20.9571 20.956 18.1656 19.4707 15.7274C19.4113 15.6301 19.3758 15.5201 19.367 15.4065C19.3582 15.2928 19.3763 15.1787 19.42 15.0734C19.4636 14.9681 19.5315 14.8746 19.6181 14.8005C19.7047 14.7263 19.8078 14.6737 19.9186 14.6468C22.6934 13.9737 22.6931 10.0268 19.9186 9.35319L19.0198 11.1547C19.1574 11.2135 19.3002 11.2611 19.4466 11.2967Z" fill="#798086"/>
<path d="M18.3176 13.281C17.9918 13.5598 17.7364 13.9117 17.5723 14.3079L18.3176 13.281Z" fill="#798086"/>
<path d="M17.5723 14.3079C17.4081 14.7041 17.3398 15.1335 17.373 15.5611L17.5723 14.3079Z" fill="#798086"/>
<path d="M17.373 15.5611C17.4061 15.9887 17.5398 16.4024 17.7631 16.7686L17.373 15.5611Z" fill="#798086"/>
<path d="M15.8162 17.5752L16.0798 17.4659C16.0181 17.4488 15.9559 17.4338 15.8931 17.421L15.8162 17.5752Z" fill="#798086"/>
<path d="M4.08057 14.6467C4.18627 14.6724 4.28476 14.7216 4.36876 14.7905L4.08057 14.6467Z" fill="#798086"/>
<path d="M4.38165 9.19954C4.29504 9.27366 4.19216 9.32628 4.08138 9.35312L4.38165 9.19954Z" fill="#798086"/>
<path d="M4.57976 8.92659C4.53613 9.0319 4.46825 9.12542 4.38165 9.19954L4.57976 8.92659Z" fill="#798086"/>
<path d="M4.63272 8.59352C4.64153 8.70716 4.62339 8.82129 4.57976 8.92659L4.63272 8.59352Z" fill="#798086"/>
<path d="M4.52886 8.27226C4.5882 8.36959 4.62391 8.47987 4.63272 8.59352L4.52886 8.27226Z" fill="#798086"/>
<path d="M12.703 4.55248C12.804 4.96919 13.002 5.35645 13.2808 5.68222C13.5401 5.98513 13.8624 6.22715 14.2248 6.3916L12.703 4.55248Z" fill="#798086"/>
</g>
<path id="Vector (Stroke)_2" fill-rule="evenodd" clip-rule="evenodd" d="M9.17157 9.17157C9.92172 8.42143 10.9391 8 12 8C13.0609 8 14.0783 8.42143 14.8284 9.17157C15.5786 9.92172 16 10.9391 16 12C16 13.0609 15.5786 14.0783 14.8284 14.8284C14.0783 15.5786 13.0609 16 12 16C10.9391 16 9.92172 15.5786 9.17157 14.8284C8.42143 14.0783 8 13.0609 8 12C8 10.9391 8.42143 9.92172 9.17157 9.17157ZM12 10C11.4696 10 10.9609 10.2107 10.5858 10.5858C10.2107 10.9609 10 11.4696 10 12C10 12.5304 10.2107 13.0391 10.5858 13.4142C10.9609 13.7893 11.4696 14 12 14C12.5304 14 13.0391 13.7893 13.4142 13.4142C13.7893 13.0391 14 12.5304 14 12C14 11.4696 13.7893 10.9609 13.4142 10.5858C13.0391 10.2107 12.5304 10 12 10Z" fill="#798086"/>
</g>
</svg>
