<svg width="41" height="40" viewBox="0 0 41 40" fill="none" xmlns="http://www.w3.org/2000/svg">
<g id="icon">
<path id="Vector (Stroke)" fill-rule="evenodd" clip-rule="evenodd" d="M23.8334 3.33301C24.7539 3.33301 25.5001 4.0792 25.5001 4.99967V11.6663H32.1667C33.0872 11.6663 33.8334 12.4125 33.8334 13.333C33.8334 14.2535 33.0872 14.9997 32.1667 14.9997H25.5001C24.616 14.9997 23.7682 14.6485 23.1431 14.0234C22.5179 13.3982 22.1667 12.5504 22.1667 11.6663V4.99967C22.1667 4.0792 22.9129 3.33301 23.8334 3.33301Z" fill="#202B36"/>
<path id="Vector (Stroke)_2" fill-rule="evenodd" clip-rule="evenodd" d="M12.1667 6.66634C11.7247 6.66634 11.3008 6.84194 10.9882 7.1545C10.6757 7.46706 10.5001 7.89098 10.5001 8.33301V31.6663C10.5001 32.1084 10.6757 32.5323 10.9882 32.8449C11.3008 33.1574 11.7247 33.333 12.1667 33.333H28.8334C29.2754 33.333 29.6994 33.1574 30.0119 32.8449C30.3245 32.5323 30.5001 32.1084 30.5001 31.6663V14.0234L23.1431 6.66634H12.1667ZM8.63121 4.79747C9.5689 3.85979 10.8407 3.33301 12.1667 3.33301H23.8334C24.2754 3.33301 24.6994 3.5086 25.0119 3.82116L33.3453 12.1545C33.6578 12.4671 33.8334 12.891 33.8334 13.333V31.6663C33.8334 32.9924 33.3066 34.2642 32.3689 35.2019C31.4313 36.1396 30.1595 36.6663 28.8334 36.6663H12.1667C10.8407 36.6663 9.5689 36.1396 8.63121 35.2019C7.69353 34.2642 7.16675 32.9924 7.16675 31.6663V8.33301C7.16675 7.00693 7.69353 5.73516 8.63121 4.79747Z" fill="#202B36"/>
<path id="Vector (Stroke)_3" fill-rule="evenodd" clip-rule="evenodd" d="M26.6784 20.4882C27.3293 21.139 27.3293 22.1943 26.6784 22.8452L20.0118 29.5118C19.3609 30.1627 18.3056 30.1627 17.6547 29.5118L14.3214 26.1785C13.6705 25.5276 13.6705 24.4724 14.3214 23.8215C14.9723 23.1706 16.0276 23.1706 16.6784 23.8215L18.8333 25.9763L24.3214 20.4882C24.9723 19.8373 26.0276 19.8373 26.6784 20.4882Z" fill="#202B36"/>
</g>
</svg>
