<svg xmlns="http://www.w3.org/2000/svg" width="422.904" height="492.797" viewBox="0 0 422.904 492.797">
  <g id="noun-clothing-1195458" transform="translate(128.449 -133.593)">
    <path id="Path_21217" data-name="Path 21217" d="M349.96,33.6a38.639,38.639,0,0,0-38.5,38.324c0,17.043,11.711,30.832,27.3,35.7v3.324l-25.9,21.523a11.56,11.56,0,0,0-11.023-8.926h-53.2a11.305,11.305,0,0,0-7.523,2.8l-99.051,90.477a11.641,11.641,0,0,0-.7,15.926l57.4,60.2a11.638,11.638,0,0,0,15.75.7l22.227-20.3c6.363,13.543,10.965,34.738,6.125,68.25-11.91,82.547-19.852,72.734-18.727,173.77a11.629,11.629,0,0,0,11.2,11.023h229.25a11.632,11.632,0,0,0,11.2-11.023c1.07-101.04-6.637-91.223-18.551-173.77-4.859-33.641-.449-54.891,5.949-68.426l22.227,20.3a11.633,11.633,0,0,0,15.75-.527l57.4-60.2a11.644,11.644,0,0,0-.527-15.926l-99.227-90.477a11.321,11.321,0,0,0-7.523-2.8h-53.2a11.552,11.552,0,0,0-11.023,8.926l-25.9-21.523V98.871a11.638,11.638,0,0,0-11.2-11.2,15.84,15.84,0,1,1,0-31.676,15.9,15.9,0,0,1,16.1,15.926,15.24,15.24,0,0,1-2.449,8.4,11.213,11.213,0,1,0,18.9,12.074,38,38,0,0,0,5.949-20.477,38.621,38.621,0,0,0-38.5-38.324Zm0,97.3,30.8,25.375c-1.3,2.3-2.328,4.938-4.023,6.824-6.246,6.949-14.777,11.2-26.773,11.2s-20.7-4.25-26.949-11.2c-1.687-1.879-2.551-4.535-3.852-6.824Zm-97.125,15.051h39.727c1.941,12,5.953,23.262,13.824,32.023C316.73,189.489,332.195,196.7,349.96,196.7s33.234-7.215,43.574-18.727c7.871-8.762,11.883-20.02,13.824-32.023h39.727l87.324,79.625-42,43.926-24.152-22.051c-4.656-4.23-12.953-3.355-16.625,1.75-12.5,16.816-23.664,46.809-16.625,95.551,11.551,80.039,18.426,74.352,18.2,159.25h-206.5c-.27-84.895,6.648-79.207,18.2-159.25,7.039-48.742-4.129-78.734-16.625-95.551-3.676-5-11.8-5.863-16.449-1.75l-24.324,22.227-42-44.1Z" transform="translate(-267 100)"/>
  </g>
</svg>
