<svg xmlns="http://www.w3.org/2000/svg" width="477.75" height="362.598" viewBox="0 0 477.75 362.598">
  <g id="noun-jewelry-1475469" transform="translate(-111.12 -100.8)">
    <path id="Path_21218" data-name="Path 21218" d="M209.82,100.8l-3.324,4.551-89.6,123.2L111.12,236.6l7.176,6.648,224,212.8L350,463.4l7.7-7.348,224-212.8,7.176-6.648-5.773-8.051-89.6-123.2-3.324-4.551Zm22.051,22.4h101.85L282.8,212.448Zm134.4,0h101.85L417.2,212.448Zm-153.65,11.9L263.547,224h-115.5Zm274.75,0L551.945,224h-115.5Zm-137.38,5.25L397.94,224H302.217Zm-196,106.05h118.82l55.125,165.2Zm142.62,0h106.75L349.986,406.7Zm130.55,0h118.82L372.211,411.43Z"/>
  </g>
</svg>
