<svg height="120" viewBox="0 0 200 120" width="200" xmlns="http://www.w3.org/2000/svg"><g fill="none" fill-rule="evenodd"><path d="m0 0h200v120h-200z" fill="#25459a"/><path d="m50.1169484.76854117-17.2812995 42.09935983h-11.275323l-8.5049548-33.59893306c-.5149665-2.06464752-.9633498-2.82458242-2.5326914-3.69725964-2.56471882-1.42261875-6.7999183-2.75315027-10.5226797-3.58107479l.25116208-1.22209234h18.15193852c2.3101854 0 4.3902794 1.57064684 4.9187312 4.29023261l4.4939468 24.36352962 11.0941156-28.65376223zm15.2425041 0-8.8193289 42.09935983h-10.666803l8.8193289-42.09935983zm28.9342087 28.35426343c.0446696-11.1089914-15.0427546-11.7252013-14.9441439-16.689306.0362418-1.5086816 1.4437609-3.11547487 4.5251317-3.52599459 1.5263573-.20138702 5.7430148-.36232458 10.5193085 1.88477619l1.8685445-8.93246221c-2.5664048-.94755188-5.8685962-1.85981799-9.976529-1.85981799-10.5445932 0-17.9623022 5.71887577-18.0213 13.9146401-.0691118 6.0622665 5.2980025 9.4410936 9.3342949 11.4601279 4.1576597 2.0620655 5.5516936 3.3874335 5.5323087 5.2300387-.0294989 2.8245826-3.3198908 4.0750757-6.3793481 4.1215495-5.3645862.0869236-8.4746135-1.4802809-10.9550492-2.6602024l-1.9359708 9.2285185c2.495607 1.1678727 7.0949067 2.1825536 11.8585583 2.2341912 11.2095828 0 18.5413243-5.653468 18.5741944-14.4060589zm27.8444348 13.7450964h9.861904l-8.616208-42.09935983h-9.099146c-2.052281 0-3.776703 1.21606794-4.541988 3.08621346l-16.0052618 39.01314637h11.2011548l2.221688-6.2886117h13.684962zm-11.9066-14.9155509 5.616591-15.8097439 3.226337 15.8097439zm-31.2210475 26.5037405h-4.3338101v4.1189672h4.8479341v1.2384443h-6.3085512v-11.4274239h6.0599174v1.2384443h-4.5993003v3.6103361h4.3338101zm2.75309-6.6796814h1.4606176v12.0367486h-1.4606176zm5.1451986 8.2049729c.0328701 2.0181734 1.2785669 2.8486797 2.7551973 2.8486797 1.0467899 0 1.6940803-.1867564 2.2259031-.4234292l.2654902 1.06804c-.5149666.2366727-1.4108903.5249836-2.6902997.5249836-2.4728509 0-3.9503243-1.6782255-3.9503243-4.153393 0-2.4751674 1.4269035-4.4081384 3.7682736-4.4081384 2.6397303 0 3.3207338 2.3400487 3.3207338 3.8487301 0 .3046624-.0168563.5249831-.0505694.6945272zm4.2832407-1.06804c.0168563-.9320602-.3818002-2.4071776-2.0253106-2.4071776-1.4943297 0-2.1256063 1.3735629-2.2419163 2.4071776zm9.3607602 4.6115912c-.381801.1867564-1.2288404.4750667-2.3076573.4750667-2.4239666 0-4.0008937-1.678225-4.0008937-4.1878176 0-2.5259442 1.6923941-4.3737135 4.3161107-4.3737135.8630536 0 1.6266533.2194604 2.0253103.4406418l-.331231 1.1360295c-.3497722-.1867564-.8976088-.3907254-1.6940793-.3907254-1.8432599 0-2.8386368 1.4071273-2.8386368 3.103426 0 1.8985462 1.195127 3.0681401 2.7889099 3.0681401.8301836 0 1.3780207-.2031079 1.7926902-.3898643zm4.098072-9.8838008v1.9665361h2.09105v1.135169h-2.09105v4.4253507c0 1.0181241.282347 1.5938839 1.095673 1.5938839.397814 0 .631277-.0335644.84704-.1024148l.066583 1.1368904c-.282346.1015539-.730729.2031084-1.295423.2031084-.681003 0-1.22884-.2375336-1.576927-.6265376-.398656-.4587147-.564693-1.1868062-.564693-2.1532922v-4.4769888h-1.245697v-1.135169h1.245697v-1.5258943zm4.131869 4.5267331c0-.9664855-.0177-1.7969918-.066583-2.5603691h1.278566l.066583 1.6274485h.048885c.365786-1.1016046 1.26171-1.7969923 2.241073-1.7969923.150023 0 .266333.0172126.399499.0335643v1.4079884c-.150023-.0344252-.29836-.0344252-.498952-.0344252-1.028248 0-1.759821.7797291-1.958728 1.8994066-.03287.2031084-.049726.4569935-.049726.695388v4.3737137h-1.460617zm12.947742 1.4746869c0 3.0345758-2.07588 4.3573617-4.001737 4.3573617-2.158477 0-3.850871-1.6283086-3.850871-4.2213826 0-2.7299128 1.775834-4.3401488 3.984038-4.3401488 2.307656 0 3.86857 1.7117899 3.86857 4.2041697zm-6.35912.0852024c0 1.7969924.996219 3.1533421 2.423966 3.1533421 1.394877 0 2.439981-1.3399977 2.439981-3.1877673 0-1.3899146-.680161-3.1369905-2.40711-3.1369905-1.709251 0-2.456837 1.6283091-2.456837 3.1714157zm8.597834-1.8994929c0-.8640707-.0177-1.5422461-.066583-2.2204215h1.294579l.08344 1.3563508h.032871c.398657-.7633776 1.328293-1.5258946 2.656587-1.5258946 1.111687 0 2.838637.6781755 2.838637 3.4915696v4.8832057h-1.460617v-4.7300137c0-1.321925-.481254-2.4243902-1.859274-2.4243902-.946493 0-1.69408.6953875-1.958727 1.5258944-.067426.1867563-.100296.4406415-.100296.6953874v4.9331221h-1.460617z" fill="#fff" fill-rule="nonzero" transform="translate(32 32)"/></g></svg>