<svg width="24" height="24" viewBox="0 0 24 24" fill="none" xmlns="http://www.w3.org/2000/svg">
<g id="icon">
<path id="Vector (Stroke)" fill-rule="evenodd" clip-rule="evenodd" d="M3.87868 6.87868C4.44129 6.31607 5.20435 6 6 6H7C7.55228 6 8 6.44772 8 7C8 7.55228 7.55228 8 7 8H6C5.73478 8 5.48043 8.10536 5.29289 8.29289C5.10536 8.48043 5 8.73478 5 9V18C5 18.2652 5.10536 18.5196 5.29289 18.7071C5.48043 18.8946 5.73478 19 6 19H15C15.2652 19 15.5196 18.8946 15.7071 18.7071C15.8946 18.5196 16 18.2652 16 18V17C16 16.4477 16.4477 16 17 16C17.5523 16 18 16.4477 18 17V18C18 18.7957 17.6839 19.5587 17.1213 20.1213C16.5587 20.6839 15.7957 21 15 21H6C5.20435 21 4.44129 20.6839 3.87868 20.1213C3.31607 19.5587 3 18.7956 3 18V9C3 8.20435 3.31607 7.44129 3.87868 6.87868Z" fill="#202B36"/>
<path id="Vector (Stroke)_2" fill-rule="evenodd" clip-rule="evenodd" d="M16.7087 2.90722C17.29 2.32633 18.0782 2 18.9 2C19.7222 2 20.5107 2.32662 21.0921 2.908C21.6735 3.48938 22.0001 4.27791 22.0001 5.10011C22.0001 5.92192 21.6738 6.7101 21.0929 7.2914C21.0926 7.29167 21.0924 7.29194 21.0921 7.29221L12.7084 15.7059C12.5207 15.8943 12.2658 16.0001 12 16.0001H9C8.44772 16.0001 8 15.5524 8 15.0001V12.0001C8 11.7343 8.10585 11.4794 8.29416 11.2917L16.7079 2.908C16.7082 2.90774 16.7084 2.90748 16.7087 2.90722ZM18.9 4C18.6082 4 18.3284 4.1159 18.1221 4.32221L10 12.4154V14.0001H11.5847L19.6779 5.878C19.8842 5.67169 20.0001 5.39187 20.0001 5.10011C20.0001 4.80834 19.8842 4.52852 19.6779 4.32221C19.4716 4.1159 19.1918 4 18.9 4Z" fill="#202B36"/>
<path id="Vector (Stroke)_3" fill-rule="evenodd" clip-rule="evenodd" d="M15.2929 4.29289C15.6834 3.90237 16.3166 3.90237 16.7071 4.29289L19.7071 7.29289C20.0976 7.68342 20.0976 8.31658 19.7071 8.70711C19.3166 9.09763 18.6834 9.09763 18.2929 8.70711L15.2929 5.70711C14.9024 5.31658 14.9024 4.68342 15.2929 4.29289Z" fill="#202B36"/>
</g>
</svg>
