<svg width="48" height="48" viewBox="0 0 48 48" fill="none" xmlns="http://www.w3.org/2000/svg">
<g id="icon">
<path id="Vector (Stroke)" fill-rule="evenodd" clip-rule="evenodd" d="M11 8C10.4696 8 9.96086 8.21071 9.58579 8.58579C9.21071 8.96086 9 9.46957 9 10V38C9 38.5304 9.21071 39.0391 9.58579 39.4142C9.96086 39.7893 10.4696 40 11 40H25C26.1046 40 27 40.8954 27 42C27 43.1046 26.1046 44 25 44H11C9.4087 44 7.88258 43.3679 6.75736 42.2426C5.63214 41.1174 5 39.5913 5 38V10C5 8.4087 5.63214 6.88258 6.75736 5.75736C7.88258 4.63214 9.4087 4 11 4H39C40.5913 4 42.1174 4.63214 43.2426 5.75736C44.3679 6.88258 45 8.4087 45 10V26C45 27.1046 44.1046 28 43 28C41.8954 28 41 27.1046 41 26V10C41 9.46957 40.7893 8.96086 40.4142 8.58579C40.0391 8.21071 39.5304 8 39 8H11Z" fill="#202B36"/>
<path id="Vector (Stroke)_2" fill-rule="evenodd" clip-rule="evenodd" d="M5 20C5 18.8954 5.89543 18 7 18H43C44.1046 18 45 18.8954 45 20C45 21.1046 44.1046 22 43 22H7C5.89543 22 5 21.1046 5 20Z" fill="#202B36"/>
<path id="Vector (Stroke)_3" fill-rule="evenodd" clip-rule="evenodd" d="M21 4C22.1046 4 23 4.89543 23 6V42C23 43.1046 22.1046 44 21 44C19.8954 44 19 43.1046 19 42V6C19 4.89543 19.8954 4 21 4Z" fill="#202B36"/>
<path id="Vector (Stroke)_4" fill-rule="evenodd" clip-rule="evenodd" d="M39 30C40.1046 30 41 30.8954 41 32V44C41 45.1046 40.1046 46 39 46C37.8954 46 37 45.1046 37 44V32C37 30.8954 37.8954 30 39 30Z" fill="#202B36"/>
<path id="Vector (Stroke)_5" fill-rule="evenodd" clip-rule="evenodd" d="M37.5858 30.5858C38.3668 29.8047 39.6332 29.8047 40.4142 30.5858L46.4142 36.5858C47.1953 37.3668 47.1953 38.6332 46.4142 39.4142C45.6332 40.1953 44.3668 40.1953 43.5858 39.4142L39 34.8284L34.4142 39.4142C33.6332 40.1953 32.3668 40.1953 31.5858 39.4142C30.8047 38.6332 30.8047 37.3668 31.5858 36.5858L37.5858 30.5858Z" fill="#202B36"/>
</g>
</svg>
