<svg width="48" height="48" viewBox="0 0 48 48" fill="none" xmlns="http://www.w3.org/2000/svg">
<g id="icon">
<path id="Vector (Stroke)" fill-rule="evenodd" clip-rule="evenodd" d="M13 8C12.4696 8 11.9609 8.21071 11.5858 8.58579C11.2107 8.96086 11 9.46957 11 10V38C11 38.5304 11.2107 39.0391 11.5858 39.4142C11.9609 39.7893 12.4696 40 13 40H31C32.1046 40 33 40.8954 33 42C33 43.1046 32.1046 44 31 44H13C11.4087 44 9.88258 43.3679 8.75736 42.2426C7.63214 41.1174 7 39.5913 7 38V10C7 8.4087 7.63214 6.88258 8.75736 5.75736C9.88258 4.63214 11.4087 4 13 4H37C38.5913 4 40.1174 4.63214 41.2426 5.75736C42.3679 6.88258 43 8.4087 43 10V22C43 23.1046 42.1046 24 41 24C39.8954 24 39 23.1046 39 22V10C39 9.46957 38.7893 8.96086 38.4142 8.58579C38.0391 8.21071 37.5304 8 37 8H13Z" fill="#202B36"/>
<path id="Vector (Stroke)_2" fill-rule="evenodd" clip-rule="evenodd" d="M17 36C17 34.8954 17.8954 34 19 34H29C30.1046 34 31 34.8954 31 36C31 37.1046 30.1046 38 29 38H19C17.8954 38 17 37.1046 17 36Z" fill="#202B36"/>
<path id="Vector (Stroke)_3" fill-rule="evenodd" clip-rule="evenodd" d="M39 42C40.1046 42 41 42.8954 41 44V44.02C41 45.1246 40.1046 46.02 39 46.02C37.8954 46.02 37 45.1246 37 44.02V44C37 42.8954 37.8954 42 39 42Z" fill="#202B36"/>
<path id="Vector (Stroke)_4" fill-rule="evenodd" clip-rule="evenodd" d="M37.8533 28.1158C39.1726 27.8519 40.5424 28.0421 41.7399 28.6555L41.7471 28.6592L41.7471 28.6592C42.941 29.2769 43.8931 30.2772 44.4512 31.5001C45.0093 32.723 45.141 34.0978 44.8252 35.4044C44.5094 36.711 43.7644 37.8739 42.7095 38.707C41.6546 39.5401 40.3506 39.9952 39.0064 39.9995C37.9019 40.003 37.0036 39.1105 37.0001 38.0059C36.9965 36.9014 37.8891 36.0031 38.9937 35.9995C39.4426 35.9981 39.8781 35.8461 40.2305 35.5678C40.5828 35.2896 40.8316 34.9012 40.9371 34.4648C41.0426 34.0284 40.9986 33.5692 40.8122 33.1607C40.6264 32.7535 40.3097 32.4202 39.9126 32.2137C39.5197 32.0135 39.0706 31.9516 38.638 32.0381C38.2042 32.1249 37.8125 32.356 37.5266 32.6937C36.8129 33.5368 35.551 33.6417 34.7079 32.9281C33.8648 32.2144 33.7599 30.9525 34.4735 30.1094C35.3428 29.0824 36.534 28.3798 37.8533 28.1158Z" fill="#202B36"/>
</g>
</svg>
