<svg width="48" height="48" viewBox="0 0 48 48" fill="none" xmlns="http://www.w3.org/2000/svg">
<g id="icon">
<path id="Vector (Stroke)" fill-rule="evenodd" clip-rule="evenodd" d="M14.8771 5.21793C16.8183 4.41385 18.8989 4 21 4C23.1012 4 25.1817 4.41385 27.1229 5.21793C29.0641 6.022 30.828 7.20055 32.3137 8.68629C33.7994 10.172 34.978 11.9359 35.7821 13.8771C36.5861 15.8183 37 17.8989 37 20C37 22.1011 36.5861 24.1817 35.7821 26.1229C34.978 28.0641 33.7994 29.828 32.3137 31.3137C30.828 32.7994 29.0641 33.978 27.1229 34.7821C25.1817 35.5861 23.1011 36 21 36C18.8989 36 16.8183 35.5861 14.8771 34.7821C12.9359 33.978 11.172 32.7994 9.68629 31.3137C8.20055 29.828 7.022 28.0641 6.21793 26.1229C5.41385 24.1817 5 22.1012 5 20C5 17.8988 5.41385 15.8183 6.21793 13.8771C7.022 11.9359 8.20055 10.172 9.68629 8.68629C11.172 7.20055 12.9359 6.022 14.8771 5.21793ZM21 8C19.4241 8 17.8637 8.31039 16.4078 8.91345C14.9519 9.5165 13.629 10.4004 12.5147 11.5147C11.4004 12.629 10.5165 13.9519 9.91345 15.4078C9.31039 16.8637 9 18.4241 9 20C9 21.5759 9.31039 23.1363 9.91345 24.5922C10.5165 26.0481 11.4004 27.371 12.5147 28.4853C13.629 29.5996 14.9519 30.4835 16.4078 31.0866C17.8637 31.6896 19.4241 32 21 32C22.5759 32 24.1363 31.6896 25.5922 31.0866C27.0481 30.4835 28.371 29.5996 29.4853 28.4853C30.5996 27.371 31.4835 26.0481 32.0866 24.5922C32.6896 23.1363 33 21.5759 33 20C33 18.4241 32.6896 16.8637 32.0866 15.4078C31.4835 13.9519 30.5996 12.629 29.4853 11.5147C28.371 10.4004 27.0481 9.5165 25.5922 8.91345C24.1363 8.31039 22.5759 8 21 8Z" fill="#202B36"/>
<path id="Vector (Stroke)_2" fill-rule="evenodd" clip-rule="evenodd" d="M29.5858 28.5858C30.3668 27.8047 31.6332 27.8047 32.4142 28.5858L44.4142 40.5858C45.1953 41.3668 45.1953 42.6332 44.4142 43.4142C43.6332 44.1953 42.3668 44.1953 41.5858 43.4142L29.5858 31.4142C28.8047 30.6332 28.8047 29.3668 29.5858 28.5858Z" fill="#202B36"/>
<path id="Vector (Stroke)_3" fill-rule="evenodd" clip-rule="evenodd" d="M21 24C22.1046 24 23 24.8954 23 26V26.02C23 27.1246 22.1046 28.02 21 28.02C19.8954 28.02 19 27.1246 19 26.02V26C19 24.8954 19.8954 24 21 24Z" fill="#202B36"/>
<path id="Vector (Stroke)_4" fill-rule="evenodd" clip-rule="evenodd" d="M19.2246 12.3264C20.0089 12.0282 20.8555 11.9322 21.6866 12.0472C22.5177 12.1621 23.3065 12.4844 23.9804 12.9842C24.6542 13.4841 25.1915 14.1455 25.5426 14.9075C25.8937 15.6695 26.0475 16.5076 25.9896 17.3446C25.9318 18.1816 25.6643 18.9907 25.2117 19.6971C24.7591 20.4036 24.136 20.9848 23.3998 21.3873C22.6636 21.7897 21.838 22.0004 20.999 22C19.8944 21.9994 18.9995 21.1036 19 19.999C19.0006 18.8944 19.8964 17.9994 21.001 18C21.1688 18.0001 21.3339 17.9579 21.4812 17.8775C21.6284 17.797 21.753 17.6807 21.8436 17.5394C21.9341 17.3981 21.9876 17.2363 21.9991 17.0689C22.0107 16.9015 21.98 16.7339 21.9097 16.5815C21.8395 16.4291 21.7321 16.2968 21.5973 16.1969C21.4625 16.0969 21.3048 16.0324 21.1385 16.0094C20.9723 15.9864 20.803 16.0056 20.6461 16.0653C20.4893 16.1249 20.35 16.2231 20.241 16.3507C19.5238 17.1907 18.2614 17.2902 17.4213 16.573C16.5813 15.8558 16.4818 14.5934 17.199 13.7533C17.7438 13.1153 18.4404 12.6245 19.2246 12.3264Z" fill="#202B36"/>
</g>
</svg>
