<svg width="25" height="24" viewBox="0 0 25 24" fill="none" xmlns="http://www.w3.org/2000/svg">
<g id="icon">
<path id="Vector (Stroke)" fill-rule="evenodd" clip-rule="evenodd" d="M6 4C5.73478 4 5.48043 4.10536 5.29289 4.29289C5.10536 4.48043 5 4.73478 5 5V19C5 19.2652 5.10536 19.5196 5.29289 19.7071C5.48043 19.8946 5.73478 20 6 20H13C13.5523 20 14 20.4477 14 21C14 21.5523 13.5523 22 13 22H6C5.20435 22 4.44129 21.6839 3.87868 21.1213C3.31607 20.5587 3 19.7957 3 19V5C3 4.20435 3.31607 3.44129 3.87868 2.87868C4.44129 2.31607 5.20435 2 6 2H20C20.7957 2 21.5587 2.31607 22.1213 2.87868C22.6839 3.44129 23 4.20435 23 5V13C23 13.5523 22.5523 14 22 14C21.4477 14 21 13.5523 21 13V5C21 4.73478 20.8946 4.48043 20.7071 4.29289C20.5196 4.10536 20.2652 4 20 4H6Z" fill="white"/>
<path id="Vector (Stroke)_2" fill-rule="evenodd" clip-rule="evenodd" d="M3 10C3 9.44772 3.44772 9 4 9H22C22.5523 9 23 9.44772 23 10C23 10.5523 22.5523 11 22 11H4C3.44772 11 3 10.5523 3 10Z" fill="white"/>
<path id="Vector (Stroke)_3" fill-rule="evenodd" clip-rule="evenodd" d="M11 2C11.5523 2 12 2.44772 12 3V21C12 21.5523 11.5523 22 11 22C10.4477 22 10 21.5523 10 21V3C10 2.44772 10.4477 2 11 2Z" fill="white"/>
<path id="Vector (Stroke)_4" fill-rule="evenodd" clip-rule="evenodd" d="M20 15C20.5523 15 21 15.4477 21 16V22C21 22.5523 20.5523 23 20 23C19.4477 23 19 22.5523 19 22V16C19 15.4477 19.4477 15 20 15Z" fill="white"/>
<path id="Vector (Stroke)_5" fill-rule="evenodd" clip-rule="evenodd" d="M19.2929 15.2929C19.6834 14.9024 20.3166 14.9024 20.7071 15.2929L23.7071 18.2929C24.0976 18.6834 24.0976 19.3166 23.7071 19.7071C23.3166 20.0976 22.6834 20.0976 22.2929 19.7071L20 17.4142L17.7071 19.7071C17.3166 20.0976 16.6834 20.0976 16.2929 19.7071C15.9024 19.3166 15.9024 18.6834 16.2929 18.2929L19.2929 15.2929Z" fill="white"/>
</g>
</svg>
