<svg width="32" height="32" viewBox="0 0 32 32" fill="none" xmlns="http://www.w3.org/2000/svg">
<g id="icon">
<path id="Vector (Stroke)" fill-rule="evenodd" clip-rule="evenodd" d="M5.33337 16C5.33337 15.2636 5.93033 14.6667 6.66671 14.6667H25.3334C26.0698 14.6667 26.6667 15.2636 26.6667 16C26.6667 16.7364 26.0698 17.3333 25.3334 17.3333H6.66671C5.93033 17.3333 5.33337 16.7364 5.33337 16Z" fill="#202B36"/>
<path id="Vector (Stroke)_2" fill-rule="evenodd" clip-rule="evenodd" d="M5.7239 15.0572C6.2446 14.5365 7.08882 14.5365 7.60952 15.0572L15.6095 23.0572C16.1302 23.5779 16.1302 24.4221 15.6095 24.9428C15.0888 25.4635 14.2446 25.4635 13.7239 24.9428L5.7239 16.9428C5.2032 16.4221 5.2032 15.5779 5.7239 15.0572Z" fill="#202B36"/>
<path id="Vector (Stroke)_3" fill-rule="evenodd" clip-rule="evenodd" d="M15.6095 7.05718C16.1302 7.57788 16.1302 8.4221 15.6095 8.9428L7.60952 16.9428C7.08882 17.4635 6.2446 17.4635 5.7239 16.9428C5.2032 16.4221 5.2032 15.5779 5.7239 15.0572L13.7239 7.05718C14.2446 6.53648 15.0888 6.53648 15.6095 7.05718Z" fill="#202B36"/>
</g>
</svg>
