<svg width="100" height="100" viewBox="0 0 100 100" fill="none" xmlns="http://www.w3.org/2000/svg">
<rect width="100" height="100" rx="50" fill="#F4F4F9"/>
<path fill-rule="evenodd" clip-rule="evenodd" d="M54 42C54 40.8954 54.8954 40 56 40H56.02C57.1246 40 58.02 40.8954 58.02 42C58.02 43.1046 57.1246 44 56.02 44H56C54.8954 44 54 43.1046 54 42Z" fill="#202B36"/>
<path fill-rule="evenodd" clip-rule="evenodd" d="M38 34C36.9391 34 35.9217 34.4214 35.1716 35.1716C34.4214 35.9217 34 36.9391 34 38V62C34 63.0609 34.4214 64.0783 35.1716 64.8284C35.9217 65.5786 36.9391 66 38 66H51C52.1046 66 53 66.8954 53 68C53 69.1046 52.1046 70 51 70H38C35.8783 70 33.8434 69.1571 32.3431 67.6569C30.8429 66.1566 30 64.1217 30 62V38C30 35.8783 30.8429 33.8434 32.3431 32.3431C33.8434 30.8429 35.8783 30 38 30H62C64.1217 30 66.1566 30.8429 67.6569 32.3431C69.1571 33.8434 70 35.8783 70 38V51C70 52.1046 69.1046 53 68 53C66.8954 53 66 52.1046 66 51V38C66 36.9391 65.5786 35.9217 64.8284 35.1716C64.0783 34.4214 63.0609 34 62 34H38Z" fill="#202B36"/>
<path fill-rule="evenodd" clip-rule="evenodd" d="M43.3993 49.4291L33.4142 59.4142C32.6332 60.1953 31.3668 60.1953 30.5858 59.4142C29.8047 58.6332 29.8047 57.3668 30.5858 56.5858L40.5858 46.5858L40.6132 46.5589C41.8415 45.3769 43.3545 44.6605 45 44.6605C46.6455 44.6605 48.1585 45.3769 49.3868 46.5589L49.4142 46.5858L57.4142 54.5858C58.1953 55.3668 58.1953 56.6332 57.4142 57.4142C56.6332 58.1953 55.3668 58.1953 54.5858 57.4142L46.6007 49.4291C45.9781 48.8347 45.4237 48.6605 45 48.6605C44.5763 48.6605 44.0219 48.8347 43.3993 49.4291Z" fill="#202B36"/>
<path fill-rule="evenodd" clip-rule="evenodd" d="M57.399 53.4295C58.2682 52.6006 59.0213 52.5443 59.6406 52.7846C60.6704 53.1841 61.829 52.6732 62.2286 51.6434C62.6281 50.6136 62.1172 49.4549 61.0874 49.0554C58.7818 48.1609 56.4193 48.8229 54.614 50.5581L54.5858 50.5858L52.5858 52.5858C51.8047 53.3668 51.8047 54.6332 52.5858 55.4142C53.3668 56.1953 54.6332 56.1953 55.4142 55.4142L57.399 53.4295Z" fill="#202B36"/>
<path fill-rule="evenodd" clip-rule="evenodd" d="M56 64C56 62.8954 56.8954 62 58 62H70C71.1046 62 72 62.8954 72 64C72 65.1046 71.1046 66 70 66H58C56.8954 66 56 65.1046 56 64Z" fill="#202B36"/>
<path fill-rule="evenodd" clip-rule="evenodd" d="M64 56C65.1046 56 66 56.8954 66 58V70C66 71.1046 65.1046 72 64 72C62.8954 72 62 71.1046 62 70V58C62 56.8954 62.8954 56 64 56Z" fill="#202B36"/>
</svg>
