<svg width="80" height="80" viewBox="0 0 80 80" fill="none" xmlns="http://www.w3.org/2000/svg">
<path fill-rule="evenodd" clip-rule="evenodd" d="M23.3333 43.3333V46.6667H20C18.159 46.6667 16.6666 48.1591 16.6666 50V53.3333H13.3333C12.4492 53.3333 11.6014 53.6845 10.9763 54.3097L9.59627 55.6896C9.56158 55.7243 9.52766 55.7598 9.49453 55.796L9.09787 56.2293C9.06499 56.2652 9.0329 56.3019 9.00163 56.3392C7.4938 58.1387 6.6672 60.4123 6.66663 62.76V66.6667C6.66663 66.7331 6.66861 66.7995 6.67258 66.8657L6.69591 67.2557C6.69973 67.3195 6.70538 67.3832 6.71285 67.4467C6.9039 69.0684 7.68348 70.5635 8.90371 71.6486C10.1239 72.7336 11.7004 73.3331 13.3333 73.3333H17.24C17.2907 73.3333 17.3415 73.3322 17.3922 73.3299L17.9755 73.3032C18.0221 73.3011 18.0687 73.298 18.1151 73.2939C20.4555 73.0882 22.6489 72.0649 24.3103 70.4037L43.914 50.8C44.7584 51.4244 45.6777 51.945 46.6523 52.3488C48.2204 52.9984 49.901 53.3327 51.5983 53.3327C53.2956 53.3327 54.9762 52.9984 56.5443 52.3488C58.1123 51.6992 59.537 50.7472 60.737 49.547L69.547 40.737C70.7471 39.537 71.6992 38.1123 72.3487 36.5443C72.9983 34.9763 73.3326 33.2956 73.3326 31.5983C73.3326 29.9011 72.9983 28.2204 72.3487 26.6523C71.6992 25.0844 70.7471 23.6597 69.547 22.4597L57.5403 10.453C56.3403 9.25282 54.9156 8.30078 53.3476 7.65123C51.7796 7.00165 50.0989 6.66731 48.4016 6.66731C46.7043 6.66731 45.0237 7.00165 43.4556 7.65123C41.8876 8.30078 40.4628 9.25299 39.2628 10.4532L30.4529 19.263C29.2528 20.463 28.3007 21.8877 27.6512 23.4557C27.0016 25.0237 26.6673 26.7044 26.6673 28.4017C26.6673 29.5996 26.8338 30.7892 27.1602 31.9368C27.2962 32.4152 27.4601 32.8863 27.6512 33.3477C28.0549 34.3223 28.5756 35.2416 29.2 36.0859L24.9879 40.298L24.3096 40.9763C23.6845 41.6014 23.3333 42.4493 23.3333 43.3333ZM43.9772 15.1669C44.1463 14.9977 44.3246 14.8388 44.5112 14.6906L48.6653 13.3395C49.397 13.3704 50.1183 13.5295 50.7962 13.8103C51.5553 14.1248 52.2453 14.5859 52.8263 15.167L64.8331 27.1739C65.4142 27.7549 65.8752 28.4446 66.1896 29.2038C66.5041 29.963 66.666 30.7766 66.666 31.5983C66.666 32.4201 66.5041 33.2337 66.1896 33.9929C65.8751 34.752 65.414 35.442 64.8329 36.023L56.0228 44.8332C55.4418 45.4142 54.752 45.8752 53.9928 46.1897C53.2337 46.5042 52.42 46.666 51.5983 46.666C50.7766 46.666 49.9629 46.5042 49.2037 46.1897C48.4446 45.8752 47.7546 45.4141 47.1736 44.833L46.1703 43.8297C44.8686 42.5279 42.758 42.5279 41.4563 43.8297L37.5263 47.7596L19.5963 65.6897C19.0562 66.2296 18.3475 66.5673 17.5891 66.6472L17.1638 66.6667H13.3393L13.3333 66.5671V62.76C13.3337 61.9979 13.5952 61.2596 14.0732 60.6676L14.3623 60.3517L14.714 60H20C21.8409 60 23.3333 58.5076 23.3333 56.6667V53.3333H26.6666C28.5076 53.3333 30 51.841 30 50V47.1801V44.7141L36.1703 38.5437C37.4721 37.2419 37.4721 35.1314 36.1703 33.8297L35.1668 32.8261C34.5857 32.2451 34.1248 31.5554 33.8103 30.7962C33.4958 30.0371 33.3339 29.2234 33.3339 28.4017C33.3339 27.58 33.4958 26.7663 33.8103 26.0071C34.1248 25.248 34.5859 24.558 35.167 23.977L43.9772 15.1669Z" fill="#202B36"/>
<path d="M46.6666 30C46.6666 28.1591 48.159 26.6667 50 26.6667H50.0333C51.8742 26.6667 53.3666 28.1591 53.3666 30C53.3666 31.841 51.8742 33.3333 50.0333 33.3333H50C48.159 33.3333 46.6666 31.841 46.6666 30Z" fill="#202B36"/>
</svg>
