<svg width="24" height="24" viewBox="0 0 24 24" fill="none" xmlns="http://www.w3.org/2000/svg">
<path fill-rule="evenodd" clip-rule="evenodd" d="M9.17157 8.17157C9.92172 7.42143 10.9391 7 12 7C13.0609 7 14.0783 7.42143 14.8284 8.17157C15.5786 8.92172 16 9.93913 16 11C16 12.0609 15.5786 13.0783 14.8284 13.8284C14.0783 14.5786 13.0609 15 12 15C10.9391 15 9.92172 14.5786 9.17157 13.8284C8.42143 13.0783 8 12.0609 8 11C8 9.93913 8.42143 8.92172 9.17157 8.17157ZM12 9C11.4696 9 10.9609 9.21071 10.5858 9.58579C10.2107 9.96086 10 10.4696 10 11C10 11.5304 10.2107 12.0391 10.5858 12.4142C10.9609 12.7893 11.4696 13 12 13C12.5304 13 13.0391 12.7893 13.4142 12.4142C13.7893 12.0391 14 11.5304 14 11C14 10.4696 13.7893 9.96086 13.4142 9.58579C13.0391 9.21071 12.5304 9 12 9Z" fill="#202B36"/>
<path fill-rule="evenodd" clip-rule="evenodd" d="M12 4.00024C10.6156 4.00024 9.26219 4.41078 8.11105 5.17993C6.95991 5.94909 6.06271 7.04232 5.53288 8.32138C5.00306 9.60044 4.86441 11.0079 5.13448 12.3657C5.40454 13.7236 6.07115 14.9708 7.05003 15.9498C7.04999 15.9497 7.05006 15.9498 7.05003 15.9498L11.2938 20.1925C11.4813 20.3798 11.7355 20.485 12.0005 20.485C12.2655 20.485 12.5197 20.3798 12.7073 20.1925L16.9499 15.9499C16.9499 15.9499 16.9499 15.9499 16.9499 15.9499C17.9288 14.9709 18.5955 13.7236 18.8655 12.3657C19.1356 11.0079 18.997 9.60044 18.4671 8.32138C17.9373 7.04232 17.0401 5.94909 15.889 5.17993C14.7378 4.41078 13.3845 4.00024 12 4.00024ZM6.99992 3.51699C8.47995 2.52807 10.22 2.00024 12 2.00024C13.78 2.00024 15.5201 2.52807 17.0001 3.51699C18.4801 4.5059 19.6337 5.91148 20.3149 7.55599C20.9961 9.20049 21.1743 11.0101 20.8271 12.7559C20.4799 14.5017 19.6228 16.1053 18.3641 17.364L14.1211 21.6071C13.5586 22.169 12.7956 22.485 12.0005 22.485C11.2054 22.485 10.4428 22.1694 9.88025 21.6074L5.63598 17.3641C4.37735 16.1055 3.52013 14.5017 3.1729 12.7559C2.82567 11.0101 3.00393 9.20049 3.68513 7.55599C4.36633 5.91148 5.51989 4.5059 6.99992 3.51699Z" fill="#202B36"/>
</svg>
