<svg width="19" height="19" viewBox="0 0 19 19" fill="none" xmlns="http://www.w3.org/2000/svg">
<path fill-rule="evenodd" clip-rule="evenodd" d="M3 2C2.73478 2 2.48043 2.10536 2.29289 2.29289C2.11141 2.47438 2.00688 2.71844 2.00033 2.97437C2.23032 6.6183 3.78159 10.0537 6.36394 12.6361C8.94628 15.2184 12.3817 16.7697 16.0256 16.9997C16.2816 16.9931 16.5256 16.8886 16.7071 16.7071C16.8946 16.5196 17 16.2652 17 16V12.677L13.4193 11.2448L12.3575 13.0145C12.0897 13.4608 11.5244 13.6271 11.0577 13.3969C8.68874 12.2285 6.77146 10.3113 5.60314 7.94231C5.37294 7.47556 5.53924 6.91027 5.9855 6.64251L7.75523 5.58067L6.32297 2H3ZM0.87868 0.87868C1.44129 0.31607 2.20435 0 3 0H7C7.4089 0 7.77661 0.248951 7.92848 0.628609L9.92848 5.62861C10.1108 6.08432 9.93537 6.60497 9.5145 6.85749L7.8405 7.86189C8.66436 9.20551 9.79449 10.3356 11.1381 11.1595L12.1425 9.4855C12.395 9.06463 12.9157 8.88924 13.3714 9.07152L18.3714 11.0715C18.751 11.2234 19 11.5911 19 12V16C19 16.7957 18.6839 17.5587 18.1213 18.1213C17.5587 18.6839 16.7957 19 16 19C15.9798 19 15.9595 18.9994 15.9393 18.9982C11.7948 18.7463 7.88576 16.9863 4.94972 14.0503C2.01369 11.1142 0.253707 7.20519 0.00184143 3.06066C0.000614107 3.04046 0 3.02023 0 3C0 2.20435 0.31607 1.44129 0.87868 0.87868Z" fill="#202B36"/>
</svg>
