<svg width="24" height="24" viewBox="0 0 24 24" fill="none" xmlns="http://www.w3.org/2000/svg">
<path fill-rule="evenodd" clip-rule="evenodd" d="M14 8C14 7.44772 14.4477 7 15 7H15.01C15.5623 7 16.01 7.44772 16.01 8C16.01 8.55228 15.5623 9 15.01 9H15C14.4477 9 14 8.55228 14 8Z" fill="#798086"/>
<path fill-rule="evenodd" clip-rule="evenodd" d="M6 4C5.46957 4 4.96086 4.21071 4.58579 4.58579C4.21071 4.96086 4 5.46957 4 6V18C4 18.5304 4.21071 19.0391 4.58579 19.4142C4.96086 19.7893 5.46957 20 6 20H12.5C13.0523 20 13.5 20.4477 13.5 21C13.5 21.5523 13.0523 22 12.5 22H6C4.93913 22 3.92172 21.5786 3.17157 20.8284C2.42143 20.0783 2 19.0609 2 18V6C2 4.93913 2.42143 3.92172 3.17157 3.17157C3.92172 2.42143 4.93913 2 6 2H18C19.0609 2 20.0783 2.42143 20.8284 3.17157C21.5786 3.92172 22 4.93913 22 6V12.5C22 13.0523 21.5523 13.5 21 13.5C20.4477 13.5 20 13.0523 20 12.5V6C20 5.46957 19.7893 4.96086 19.4142 4.58579C19.0391 4.21071 18.5304 4 18 4H6Z" fill="#798086"/>
<path fill-rule="evenodd" clip-rule="evenodd" d="M8.69967 11.7145L3.70711 16.7071C3.31658 17.0976 2.68342 17.0976 2.29289 16.7071C1.90237 16.3166 1.90237 15.6834 2.29289 15.2929L7.29289 10.2929L7.30661 10.2794C7.92076 9.68845 8.67726 9.33025 9.5 9.33025C10.3227 9.33025 11.0792 9.68845 11.6934 10.2794L11.7071 10.2929L15.7071 14.2929C16.0976 14.6834 16.0976 15.3166 15.7071 15.7071C15.3166 16.0976 14.6834 16.0976 14.2929 15.7071L10.3003 11.7145C9.98903 11.4174 9.71184 11.3302 9.5 11.3302C9.28816 11.3302 9.01097 11.4174 8.69967 11.7145Z" fill="#798086"/>
<path fill-rule="evenodd" clip-rule="evenodd" d="M15.6995 13.7147C16.1341 13.3003 16.5106 13.2722 16.8203 13.3923C17.3352 13.5921 17.9145 13.3366 18.1143 12.8217C18.3141 12.3068 18.0586 11.7275 17.5437 11.5277C16.3909 11.0804 15.2097 11.4114 14.307 12.279L14.2929 12.2929L13.2929 13.2929C12.9024 13.6834 12.9024 14.3166 13.2929 14.7071C13.6834 15.0976 14.3166 15.0976 14.7071 14.7071L15.6995 13.7147Z" fill="#798086"/>
<path fill-rule="evenodd" clip-rule="evenodd" d="M15 19C15 18.4477 15.4477 18 16 18H22C22.5523 18 23 18.4477 23 19C23 19.5523 22.5523 20 22 20H16C15.4477 20 15 19.5523 15 19Z" fill="#798086"/>
<path fill-rule="evenodd" clip-rule="evenodd" d="M19 15C19.5523 15 20 15.4477 20 16V22C20 22.5523 19.5523 23 19 23C18.4477 23 18 22.5523 18 22V16C18 15.4477 18.4477 15 19 15Z" fill="#798086"/>
</svg>
