<svg width="80" height="80" viewBox="0 0 80 80" fill="none" xmlns="http://www.w3.org/2000/svg">
<path fill-rule="evenodd" clip-rule="evenodd" d="M28.2149 11.5482C31.3405 8.42261 35.5798 6.66667 40 6.66667C44.4203 6.66667 48.6595 8.42261 51.7852 11.5482C54.9108 14.6738 56.6667 18.9131 56.6667 23.3333C56.6667 27.7536 54.9108 31.9928 51.7852 35.1184C48.6595 38.2441 44.4203 40 40 40C35.5798 40 31.3405 38.2441 28.2149 35.1184C25.0893 31.9928 23.3334 27.7536 23.3334 23.3333C23.3334 18.9131 25.0893 14.6738 28.2149 11.5482ZM40 13.3333C37.3479 13.3333 34.8043 14.3869 32.929 16.2623C31.0536 18.1376 30 20.6812 30 23.3333C30 25.9855 31.0536 28.529 32.929 30.4044C34.8043 32.2798 37.3479 33.3333 40 33.3333C42.6522 33.3333 45.1957 32.2798 47.0711 30.4044C48.9465 28.529 50 25.9855 50 23.3333C50 20.6812 48.9465 18.1376 47.0711 16.2623C45.1957 14.3869 42.6522 13.3333 40 13.3333Z" fill="#202B36"/>
<path fill-rule="evenodd" clip-rule="evenodd" d="M33.3333 53.3333C30.6811 53.3333 28.1376 54.3869 26.2622 56.2623C24.3869 58.1376 23.3333 60.6812 23.3333 63.3333V70C23.3333 71.841 21.8409 73.3333 20 73.3333C18.159 73.3333 16.6666 71.841 16.6666 70V63.3333C16.6666 58.9131 18.4226 54.6738 21.5482 51.5482C24.6738 48.4226 28.913 46.6667 33.3333 46.6667H38.3333C40.1742 46.6667 41.6666 48.1591 41.6666 50C41.6666 51.841 40.1742 53.3333 38.3333 53.3333H33.3333Z" fill="#202B36"/>
<path fill-rule="evenodd" clip-rule="evenodd" d="M50.5719 50.5719C53.0724 48.0714 56.4637 46.6667 60 46.6667C63.5362 46.6667 66.9276 48.0714 69.4281 50.5719C71.9285 53.0724 73.3333 56.4638 73.3333 60C73.3333 63.5362 71.9285 66.9276 69.4281 69.4281C66.9276 71.9286 63.5362 73.3333 60 73.3333C56.4637 73.3333 53.0724 71.9286 50.5719 69.4281C48.0714 66.9276 46.6666 63.5362 46.6666 60C46.6666 56.4638 48.0714 53.0724 50.5719 50.5719ZM60 53.3333C58.2318 53.3333 56.5362 54.0357 55.2859 55.286C54.0357 56.5362 53.3333 58.2319 53.3333 60C53.3333 61.7681 54.0357 63.4638 55.2859 64.7141C56.5362 65.9643 58.2318 66.6667 60 66.6667C61.7681 66.6667 63.4638 65.9643 64.714 64.7141C65.9642 63.4638 66.6666 61.7681 66.6666 60C66.6666 58.2319 65.9642 56.5362 64.714 55.286C63.4638 54.0357 61.7681 53.3333 60 53.3333Z" fill="#202B36"/>
<path fill-rule="evenodd" clip-rule="evenodd" d="M64.9763 64.9763C66.2781 63.6746 68.3886 63.6746 69.6904 64.9763L75.6904 70.9763C76.9921 72.2781 76.9921 74.3886 75.6904 75.6904C74.3886 76.9921 72.2781 76.9921 70.9763 75.6904L64.9763 69.6904C63.6746 68.3886 63.6746 66.2781 64.9763 64.9763Z" fill="#202B36"/>
</svg>
