<svg width="33" height="32" viewBox="0 0 33 32" fill="none" xmlns="http://www.w3.org/2000/svg">
<g id="icon-trailing">
<path id="Vector (Stroke)" fill-rule="evenodd" clip-rule="evenodd" d="M25.4429 7.05752C25.9636 7.57822 25.9636 8.42244 25.4429 8.94313L9.44289 24.9431C8.92219 25.4638 8.07797 25.4638 7.55727 24.9431C7.03657 24.4224 7.03657 23.5782 7.55727 23.0575L23.5573 7.05752C24.078 6.53682 24.9222 6.53682 25.4429 7.05752Z" fill="#798086"/>
<path id="Vector (Stroke)_2" fill-rule="evenodd" clip-rule="evenodd" d="M7.55727 7.05752C8.07797 6.53682 8.92219 6.53682 9.44289 7.05752L25.4429 23.0575C25.9636 23.5782 25.9636 24.4224 25.4429 24.9431C24.9222 25.4638 24.078 25.4638 23.5573 24.9431L7.55727 8.94313C7.03657 8.42244 7.03657 7.57822 7.55727 7.05752Z" fill="#798086"/>
</g>
</svg>
