<svg width="25" height="24" viewBox="0 0 25 24" fill="none" xmlns="http://www.w3.org/2000/svg">
<path fill-rule="evenodd" clip-rule="evenodd" d="M14.5 2C15.0523 2 15.5 2.44772 15.5 3V7H19.5C20.0523 7 20.5 7.44772 20.5 8C20.5 8.55228 20.0523 9 19.5 9H15.5C14.9696 9 14.4609 8.78929 14.0858 8.41421C13.7107 8.03914 13.5 7.53043 13.5 7V3C13.5 2.44772 13.9477 2 14.5 2Z" fill="#798086"/>
<path fill-rule="evenodd" clip-rule="evenodd" d="M7.5 4C7.23478 4 6.98043 4.10536 6.79289 4.29289C6.60536 4.48043 6.5 4.73478 6.5 5V19C6.5 19.2652 6.60536 19.5196 6.79289 19.7071C6.98043 19.8946 7.23478 20 7.5 20H17.5C17.7652 20 18.0196 19.8946 18.2071 19.7071C18.3946 19.5196 18.5 19.2652 18.5 19V8.41421L14.0858 4H7.5ZM5.37868 2.87868C5.94129 2.31607 6.70435 2 7.5 2H14.5C14.7652 2 15.0196 2.10536 15.2071 2.29289L20.2071 7.29289C20.3946 7.48043 20.5 7.73478 20.5 8V19C20.5 19.7957 20.1839 20.5587 19.6213 21.1213C19.0587 21.6839 18.2957 22 17.5 22H7.5C6.70435 22 5.94129 21.6839 5.37868 21.1213C4.81607 20.5587 4.5 19.7957 4.5 19V5C4.5 4.20435 4.81607 3.44129 5.37868 2.87868Z" fill="#798086"/>
<path fill-rule="evenodd" clip-rule="evenodd" d="M16.2071 12.2929C16.5976 12.6834 16.5976 13.3166 16.2071 13.7071L12.2071 17.7071C11.8166 18.0976 11.1834 18.0976 10.7929 17.7071L8.79289 15.7071C8.40237 15.3166 8.40237 14.6834 8.79289 14.2929C9.18342 13.9024 9.81658 13.9024 10.2071 14.2929L11.5 15.5858L14.7929 12.2929C15.1834 11.9024 15.8166 11.9024 16.2071 12.2929Z" fill="#798086"/>
</svg>
