<svg width="17" height="16" viewBox="0 0 17 16" fill="none" xmlns="http://www.w3.org/2000/svg">
<g id="icon">
<path id="Vector" d="M8.50004 1.11328C9.13671 1.11328 9.73004 1.42461 10.0934 1.94461L10.1634 2.05128L15.5727 11.0833C15.7371 11.368 15.8265 11.6898 15.8327 12.0185C15.8388 12.3472 15.7614 12.6721 15.6077 12.9627C15.454 13.2534 15.2291 13.5003 14.954 13.6803C14.6789 13.8603 14.3626 13.9675 14.0347 13.9919L13.9047 13.9973H3.08804C2.75985 13.9936 2.43793 13.9068 2.15236 13.745C1.86678 13.5832 1.62685 13.3517 1.45496 13.0721C1.28306 12.7925 1.18482 12.4739 1.16938 12.1461C1.15395 11.8182 1.22184 11.4918 1.36671 11.1973L1.43271 11.0739L6.83938 2.04861C7.01249 1.76316 7.25624 1.52713 7.54712 1.36329C7.838 1.19946 8.1662 1.11335 8.50004 1.11328ZM8.50671 9.99995L8.42204 10.0046C8.26001 10.0239 8.11067 10.1019 8.00232 10.2239C7.89396 10.3459 7.83412 10.5034 7.83412 10.6666C7.83412 10.8298 7.89396 10.9873 8.00232 11.1093C8.11067 11.2313 8.26001 11.3093 8.42204 11.3286L8.50004 11.3333L8.58471 11.3286C8.74674 11.3093 8.89608 11.2313 9.00443 11.1093C9.11279 10.9873 9.17263 10.8298 9.17263 10.6666C9.17263 10.5034 9.11279 10.3459 9.00443 10.2239C8.89608 10.1019 8.74674 10.0239 8.58471 10.0046L8.50671 9.99995ZM8.50004 5.33328C8.33675 5.3333 8.17915 5.39325 8.05713 5.50176C7.9351 5.61026 7.85715 5.75978 7.83804 5.92195L7.83338 5.99995V8.66661L7.83804 8.74461C7.85732 8.90665 7.93535 9.05598 8.05735 9.16434C8.17936 9.27269 8.33687 9.33254 8.50004 9.33254C8.66322 9.33254 8.82073 9.27269 8.94273 9.16434C9.06474 9.05598 9.14277 8.90665 9.16204 8.74461L9.16671 8.66661V5.99995L9.16204 5.92195C9.14294 5.75978 9.06498 5.61026 8.94296 5.50176C8.82093 5.39325 8.66333 5.3333 8.50004 5.33328Z" fill="#F25F5C"/>
</g>
</svg>
