<svg width="80" height="80" viewBox="0 0 80 80" fill="none" xmlns="http://www.w3.org/2000/svg">
<rect width="80" height="80" rx="40" fill="#2EC4B6"/>
<path fill-rule="evenodd" clip-rule="evenodd" d="M28.2149 28.2149C31.3405 25.0893 35.5797 23.3334 40 23.3334C44.4203 23.3334 48.6595 25.0893 51.7851 28.2149C54.9107 31.3405 56.6666 35.5798 56.6666 40C56.6666 42.1887 56.2356 44.356 55.398 46.3781C54.5604 48.4002 53.3327 50.2375 51.7851 51.7852C50.2375 53.3328 48.4001 54.5605 46.378 55.398C44.3559 56.2356 42.1887 56.6667 40 56.6667C37.8113 56.6667 35.644 56.2356 33.6219 55.398C31.5998 54.5605 29.7625 53.3328 28.2149 51.7852C26.6672 50.2375 25.4396 48.4002 24.602 46.3781C23.7644 44.356 23.3333 42.1887 23.3333 40C23.3333 35.5798 25.0893 31.3405 28.2149 28.2149ZM40 26.6667C36.4638 26.6667 33.0724 28.0715 30.5719 30.572C28.0714 33.0724 26.6666 36.4638 26.6666 40C26.6666 41.751 27.0115 43.4848 27.6816 45.1025C28.3516 46.7202 29.3338 48.19 30.5719 49.4281C31.81 50.6662 33.2799 51.6484 34.8975 52.3184C36.5152 52.9885 38.249 53.3334 40 53.3334C41.7509 53.3334 43.4848 52.9885 45.1024 52.3184C46.7201 51.6484 48.19 50.6662 49.4281 49.4281C50.6662 48.19 51.6483 46.7202 52.3184 45.1025C52.9884 43.4848 53.3333 41.751 53.3333 40C53.3333 36.4638 51.9286 33.0724 49.4281 30.572C46.9276 28.0715 43.5362 26.6667 40 26.6667Z" fill="white"/>
<path fill-rule="evenodd" clip-rule="evenodd" d="M33.3333 40C33.3333 39.0796 34.0795 38.3334 35 38.3334H45C45.9205 38.3334 46.6666 39.0796 46.6666 40C46.6666 40.9205 45.9205 41.6667 45 41.6667H35C34.0795 41.6667 33.3333 40.9205 33.3333 40Z" fill="white"/>
<path fill-rule="evenodd" clip-rule="evenodd" d="M40 33.3334C40.9205 33.3334 41.6666 34.0796 41.6666 35V45C41.6666 45.9205 40.9205 46.6667 40 46.6667C39.0795 46.6667 38.3333 45.9205 38.3333 45V35C38.3333 34.0796 39.0795 33.3334 40 33.3334Z" fill="white"/>
</svg>
