<svg width="28" height="28" viewBox="0 0 28 28" fill="none" xmlns="http://www.w3.org/2000/svg">
<g id="icon">
<path id="Vector (Stroke)" fill-rule="evenodd" clip-rule="evenodd" d="M4.18342 4.18342C4.621 3.74583 5.21449 3.5 5.83333 3.5H10.5C11.1188 3.5 11.7123 3.74583 12.1499 4.18342C12.5875 4.621 12.8333 5.21449 12.8333 5.83333V10.5C12.8333 11.1188 12.5875 11.7123 12.1499 12.1499C11.7123 12.5875 11.1188 12.8333 10.5 12.8333H5.83333C5.21449 12.8333 4.621 12.5875 4.18342 12.1499C3.74583 11.7123 3.5 11.1188 3.5 10.5V5.83333C3.5 5.21449 3.74583 4.621 4.18342 4.18342ZM10.5 5.83333L5.83333 5.83333L5.83333 10.5H10.5V5.83333Z" fill="#798086"/>
<path id="Vector (Stroke)_2" fill-rule="evenodd" clip-rule="evenodd" d="M15.8502 4.18342C16.2878 3.74583 16.8812 3.5 17.5001 3.5H22.1667C22.7856 3.5 23.3791 3.74583 23.8167 4.18342C24.2543 4.621 24.5001 5.2145 24.5001 5.83333V10.5C24.5001 11.1188 24.2543 11.7123 23.8167 12.1499C23.3791 12.5875 22.7856 12.8333 22.1667 12.8333H17.5001C16.8812 12.8333 16.2878 12.5875 15.8502 12.1499C15.4126 11.7123 15.1667 11.1188 15.1667 10.5V5.83333C15.1667 5.21449 15.4126 4.621 15.8502 4.18342ZM22.1667 5.83333H17.5001L17.5001 10.5H22.1667L22.1667 5.83333Z" fill="#798086"/>
<path id="Vector (Stroke)_3" fill-rule="evenodd" clip-rule="evenodd" d="M4.18342 15.8504C4.621 15.4128 5.21449 15.167 5.83333 15.167H10.5C11.1188 15.167 11.7123 15.4128 12.1499 15.8504C12.5875 16.288 12.8333 16.8815 12.8333 17.5003V22.167C12.8333 22.7858 12.5875 23.3793 12.1499 23.8169C11.7123 24.2545 11.1188 24.5003 10.5 24.5003H5.83333C5.2145 24.5003 4.621 24.2545 4.18342 23.8169C3.74583 23.3793 3.5 22.7858 3.5 22.167V17.5003C3.5 16.8815 3.74583 16.288 4.18342 15.8504ZM10.5 17.5003L5.83333 17.5003L5.83333 22.167H10.5V17.5003Z" fill="#798086"/>
<path id="Vector (Stroke)_4" fill-rule="evenodd" clip-rule="evenodd" d="M15.8502 15.8504C16.2878 15.4128 16.8812 15.167 17.5001 15.167H22.1667C22.7856 15.167 23.3791 15.4128 23.8167 15.8504C24.2543 16.288 24.5001 16.8815 24.5001 17.5003V22.167C24.5001 22.7858 24.2543 23.3793 23.8167 23.8169C23.3791 24.2545 22.7856 24.5003 22.1667 24.5003H17.5001C16.8812 24.5003 16.2878 24.2545 15.8502 23.8169C15.4126 23.3793 15.1667 22.7858 15.1667 22.167V17.5003C15.1667 16.8815 15.4126 16.288 15.8502 15.8504ZM22.1667 17.5003H17.5001L17.5001 22.167H22.1667L22.1667 17.5003Z" fill="#798086"/>
</g>
</svg>
