<svg width="28" height="28" viewBox="0 0 28 28" fill="none" xmlns="http://www.w3.org/2000/svg">
<path fill-rule="evenodd" clip-rule="evenodd" d="M4.18342 4.18342C4.621 3.74583 5.21449 3.5 5.83333 3.5H10.5C11.1188 3.5 11.7123 3.74583 12.1499 4.18342C12.5875 4.621 12.8333 5.21449 12.8333 5.83333V10.5C12.8333 11.1188 12.5875 11.7123 12.1499 12.1499C11.7123 12.5875 11.1188 12.8333 10.5 12.8333H5.83333C5.21449 12.8333 4.621 12.5875 4.18342 12.1499C3.74583 11.7123 3.5 11.1188 3.5 10.5V5.83333C3.5 5.21449 3.74583 4.621 4.18342 4.18342ZM10.5 5.83333L5.83333 5.83333L5.83333 10.5H10.5V5.83333Z" fill="#202B36"/>
<path fill-rule="evenodd" clip-rule="evenodd" d="M15.8502 4.18342C16.2878 3.74583 16.8812 3.5 17.5001 3.5H22.1667C22.7856 3.5 23.3791 3.74583 23.8167 4.18342C24.2543 4.621 24.5001 5.2145 24.5001 5.83333V10.5C24.5001 11.1188 24.2543 11.7123 23.8167 12.1499C23.3791 12.5875 22.7856 12.8333 22.1667 12.8333H17.5001C16.8812 12.8333 16.2878 12.5875 15.8502 12.1499C15.4126 11.7123 15.1667 11.1188 15.1667 10.5V5.83333C15.1667 5.21449 15.4126 4.621 15.8502 4.18342ZM22.1667 5.83333H17.5001L17.5001 10.5H22.1667L22.1667 5.83333Z" fill="#202B36"/>
<path fill-rule="evenodd" clip-rule="evenodd" d="M4.18342 15.8502C4.621 15.4126 5.21449 15.1667 5.83333 15.1667H10.5C11.1188 15.1667 11.7123 15.4126 12.1499 15.8502C12.5875 16.2878 12.8333 16.8812 12.8333 17.5001V22.1667C12.8333 22.7856 12.5875 23.3791 12.1499 23.8167C11.7123 24.2543 11.1188 24.5001 10.5 24.5001H5.83333C5.2145 24.5001 4.621 24.2543 4.18342 23.8167C3.74583 23.3791 3.5 22.7856 3.5 22.1667V17.5001C3.5 16.8812 3.74583 16.2878 4.18342 15.8502ZM10.5 17.5001L5.83333 17.5001L5.83333 22.1667H10.5V17.5001Z" fill="#202B36"/>
<path fill-rule="evenodd" clip-rule="evenodd" d="M15.8502 15.8502C16.2878 15.4126 16.8812 15.1667 17.5001 15.1667H22.1667C22.7856 15.1667 23.3791 15.4126 23.8167 15.8502C24.2543 16.2878 24.5001 16.8812 24.5001 17.5001V22.1667C24.5001 22.7856 24.2543 23.3791 23.8167 23.8167C23.3791 24.2543 22.7856 24.5001 22.1667 24.5001H17.5001C16.8812 24.5001 16.2878 24.2543 15.8502 23.8167C15.4126 23.3791 15.1667 22.7856 15.1667 22.1667V17.5001C15.1667 16.8812 15.4126 16.2878 15.8502 15.8502ZM22.1667 17.5001H17.5001L17.5001 22.1667H22.1667L22.1667 17.5001Z" fill="#202B36"/>
</svg>
