<svg width="28" height="28" viewBox="0 0 28 28" fill="none" xmlns="http://www.w3.org/2000/svg">
<path fill-rule="evenodd" clip-rule="evenodd" d="M10.7001 10.7001C11.5753 9.82492 12.7622 9.33325 13.9999 9.33325C15.2376 9.33325 16.4246 9.82492 17.2998 10.7001C18.1749 11.5753 18.6666 12.7622 18.6666 13.9999C18.6666 15.2376 18.1749 16.4246 17.2998 17.2998C16.4246 18.1749 15.2376 18.6666 13.9999 18.6666C12.7622 18.6666 11.5753 18.1749 10.7001 17.2998C9.82492 16.4246 9.33325 15.2376 9.33325 13.9999C9.33325 12.7622 9.82492 11.5753 10.7001 10.7001ZM13.9999 11.6666C13.3811 11.6666 12.7876 11.9124 12.35 12.35C11.9124 12.7876 11.6666 13.3811 11.6666 13.9999C11.6666 14.6188 11.9124 15.2123 12.35 15.6498C12.7876 16.0874 13.3811 16.3333 13.9999 16.3333C14.6188 16.3333 15.2123 16.0874 15.6498 15.6498C16.0874 15.2123 16.3333 14.6188 16.3333 13.9999C16.3333 13.3811 16.0874 12.7876 15.6498 12.35C15.2123 11.9124 14.6188 11.6666 13.9999 11.6666Z" fill="#798086"/>
<path fill-rule="evenodd" clip-rule="evenodd" d="M5.83325 8.16659C5.52383 8.16659 5.22709 8.2895 5.00829 8.50829C4.7895 8.72709 4.66659 9.02383 4.66659 9.33325V18.6666C4.66659 18.976 4.7895 19.2727 5.00829 19.4915C5.22709 19.7103 5.52383 19.8333 5.83325 19.8333H22.1666C22.476 19.8333 22.7727 19.7103 22.9915 19.4915C23.2103 19.2727 23.3333 18.976 23.3333 18.6666V9.33325C23.3333 9.02383 23.2103 8.72709 22.9915 8.50829C22.7727 8.2895 22.476 8.16659 22.1666 8.16659H5.83325ZM3.35838 6.85838C4.01476 6.202 4.90499 5.83325 5.83325 5.83325H22.1666C23.0948 5.83325 23.9851 6.202 24.6415 6.85838C25.2978 7.51476 25.6666 8.40499 25.6666 9.33325V18.6666C25.6666 19.5948 25.2978 20.4851 24.6415 21.1415C23.9851 21.7978 23.0948 22.1666 22.1666 22.1666H5.83325C4.90499 22.1666 4.01476 21.7978 3.35838 21.1415C2.702 20.4851 2.33325 19.5948 2.33325 18.6666V9.33325C2.33325 8.40499 2.702 7.51476 3.35838 6.85838Z" fill="#798086"/>
<path fill-rule="evenodd" clip-rule="evenodd" d="M19.8333 13.9999C19.8333 13.3556 20.3556 12.8333 20.9999 12.8333H21.0116C21.6559 12.8333 22.1783 13.3556 22.1783 13.9999C22.1783 14.6443 21.6559 15.1666 21.0116 15.1666H20.9999C20.3556 15.1666 19.8333 14.6443 19.8333 13.9999Z" fill="#798086"/>
<path fill-rule="evenodd" clip-rule="evenodd" d="M5.83325 13.9999C5.83325 13.3556 6.35559 12.8333 6.99992 12.8333H7.01159C7.65592 12.8333 8.17825 13.3556 8.17825 13.9999C8.17825 14.6443 7.65592 15.1666 7.01159 15.1666H6.99992C6.35559 15.1666 5.83325 14.6443 5.83325 13.9999Z" fill="#798086"/>
</svg>
