<svg width="28" height="28" viewBox="0 0 28 28" fill="none" xmlns="http://www.w3.org/2000/svg">
<g id="icon">
<path id="Vector (Stroke)" fill-rule="evenodd" clip-rule="evenodd" d="M10.7001 10.6998C11.5753 9.82467 12.7622 9.33301 13.9999 9.33301C15.2376 9.33301 16.4246 9.82467 17.2998 10.6998C18.1749 11.575 18.6666 12.762 18.6666 13.9997C18.6666 15.2374 18.1749 16.4243 17.2998 17.2995C16.4246 18.1747 15.2376 18.6663 13.9999 18.6663C12.7622 18.6663 11.5753 18.1747 10.7001 17.2995C9.82492 16.4243 9.33325 15.2374 9.33325 13.9997C9.33325 12.762 9.82492 11.575 10.7001 10.6998ZM13.9999 11.6663C13.3811 11.6663 12.7876 11.9122 12.35 12.3498C11.9124 12.7873 11.6666 13.3808 11.6666 13.9997C11.6666 14.6185 11.9124 15.212 12.35 15.6496C12.7876 16.0872 13.3811 16.333 13.9999 16.333C14.6188 16.333 15.2123 16.0872 15.6498 15.6496C16.0874 15.212 16.3333 14.6185 16.3333 13.9997C16.3333 13.3808 16.0874 12.7873 15.6498 12.3498C15.2123 11.9122 14.6188 11.6663 13.9999 11.6663Z" fill="#202B36"/>
<path id="Vector (Stroke)_2" fill-rule="evenodd" clip-rule="evenodd" d="M5.83325 8.16634C5.52383 8.16634 5.22709 8.28926 5.00829 8.50805C4.7895 8.72684 4.66659 9.02359 4.66659 9.33301V18.6663C4.66659 18.9758 4.7895 19.2725 5.00829 19.4913C5.22709 19.7101 5.52383 19.833 5.83325 19.833H22.1666C22.476 19.833 22.7727 19.7101 22.9915 19.4913C23.2103 19.2725 23.3333 18.9758 23.3333 18.6663V9.33301C23.3333 9.02359 23.2103 8.72684 22.9915 8.50805C22.7727 8.28926 22.476 8.16634 22.1666 8.16634H5.83325ZM3.35838 6.85813C4.01476 6.20176 4.90499 5.83301 5.83325 5.83301H22.1666C23.0948 5.83301 23.9851 6.20176 24.6415 6.85813C25.2978 7.51451 25.6666 8.40475 25.6666 9.33301V18.6663C25.6666 19.5946 25.2978 20.4848 24.6415 21.1412C23.9851 21.7976 23.0948 22.1663 22.1666 22.1663H5.83325C4.90499 22.1663 4.01476 21.7976 3.35838 21.1412C2.702 20.4848 2.33325 19.5946 2.33325 18.6663V9.33301C2.33325 8.40475 2.702 7.51451 3.35838 6.85813Z" fill="#202B36"/>
<path id="Vector (Stroke)_3" fill-rule="evenodd" clip-rule="evenodd" d="M19.8333 13.9997C19.8333 13.3553 20.3556 12.833 20.9999 12.833H21.0116C21.6559 12.833 22.1783 13.3553 22.1783 13.9997C22.1783 14.644 21.6559 15.1663 21.0116 15.1663H20.9999C20.3556 15.1663 19.8333 14.644 19.8333 13.9997Z" fill="#202B36"/>
<path id="Vector (Stroke)_4" fill-rule="evenodd" clip-rule="evenodd" d="M5.83325 13.9997C5.83325 13.3553 6.35559 12.833 6.99992 12.833H7.01159C7.65592 12.833 8.17825 13.3553 8.17825 13.9997C8.17825 14.644 7.65592 15.1663 7.01159 15.1663H6.99992C6.35559 15.1663 5.83325 14.644 5.83325 13.9997Z" fill="#202B36"/>
</g>
</svg>
