<svg width="56" height="56" viewBox="0 0 56 56" fill="none" xmlns="http://www.w3.org/2000/svg">
<rect width="56" height="56" rx="28" fill="white"/>
<path fill-rule="evenodd" clip-rule="evenodd" d="M28.0001 20C27.7349 20 27.4805 20.1054 27.293 20.2929C27.1054 20.4804 27.0001 20.7348 27.0001 21C27.0001 21.3867 26.7771 21.7387 26.4276 21.904C25.4432 22.3695 24.6041 23.094 24.0001 24C23.4003 24.8997 23.0548 25.9447 23.0001 27.0244V30C23.0001 30.0402 22.9977 30.0803 22.9928 30.1202C22.9126 30.7832 22.7005 31.4222 22.3703 32H33.6299C33.2997 31.4222 33.0876 30.7832 33.0073 30.1202C33.0025 30.0803 33.0001 30.0402 33.0001 30V27.0244C32.9453 25.9447 32.5999 24.8997 32.0001 24C31.3961 23.094 30.557 22.3695 29.5726 21.904C29.223 21.7387 29.0001 21.3867 29.0001 21C29.0001 20.7348 28.8947 20.4804 28.7072 20.2929C28.5197 20.1054 28.2653 20 28.0001 20ZM25.8788 18.8787C26.4414 18.3161 27.2044 18 28.0001 18C28.7957 18 29.5588 18.3161 30.1214 18.8787C30.5296 19.2869 30.808 19.8006 30.9301 20.3557C32.0261 20.9722 32.9637 21.8399 33.6642 22.8906C34.4695 24.0986 34.9309 25.5029 34.999 26.9531C34.9997 26.9687 35.0001 26.9844 35.0001 27V29.9354C35.0626 30.3815 35.2248 30.8082 35.475 31.1834C35.7355 31.5742 36.0841 31.8984 36.4928 32.1298C36.888 32.3536 37.0828 32.8156 36.9671 33.2548C36.8514 33.694 36.4542 34 36.0001 34H20.0001C19.5459 34 19.1488 33.694 19.0331 33.2548C18.9174 32.8156 19.1121 32.3536 19.5073 32.1298C19.916 31.8984 20.2647 31.5742 20.5252 31.1834C20.7754 30.8082 20.9376 30.3815 21.0001 29.9353V27C21.0001 26.9844 21.0005 26.9687 21.0012 26.9531C21.0693 25.5029 21.5307 24.0986 22.336 22.8906C23.0365 21.8399 23.9741 20.9722 25.0701 20.3557C25.1922 19.8006 25.4706 19.2869 25.8788 18.8787Z" fill="#798086"/>
<path fill-rule="evenodd" clip-rule="evenodd" d="M25 32C25.5523 32 26 32.4477 26 33V34C26 34.5304 26.2107 35.0391 26.5858 35.4142C26.9609 35.7893 27.4696 36 28 36C28.5304 36 29.0391 35.7893 29.4142 35.4142C29.7893 35.0391 30 34.5304 30 34V33C30 32.4477 30.4477 32 31 32C31.5523 32 32 32.4477 32 33V34C32 35.0609 31.5786 36.0783 30.8284 36.8284C30.0783 37.5786 29.0609 38 28 38C26.9391 38 25.9217 37.5786 25.1716 36.8284C24.4214 36.0783 24 35.0609 24 34V33C24 32.4477 24.4477 32 25 32Z" fill="#798086"/>
</svg>
