<svg width="77" height="36" viewBox="0 0 77 36" fill="none" xmlns="http://www.w3.org/2000/svg">
<path d="M8 0.5H69C73.1421 0.5 76.5 3.85786 76.5 8V28C76.5 32.1421 73.1421 35.5 69 35.5H8C3.85786 35.5 0.5 32.1421 0.5 28V8C0.5 3.85786 3.85786 0.5 8 0.5Z" fill="white"/>
<path d="M8 0.5H69C73.1421 0.5 76.5 3.85786 76.5 8V28C76.5 32.1421 73.1421 35.5 69 35.5H8C3.85786 35.5 0.5 32.1421 0.5 28V8C0.5 3.85786 3.85786 0.5 8 0.5Z" stroke="#DEDEEC"/>
<path fill-rule="evenodd" clip-rule="evenodd" d="M23.6667 9.66675C24.1269 9.66675 24.5 10.0398 24.5 10.5001V13.8334H27.8334C28.2936 13.8334 28.6667 14.2065 28.6667 14.6667C28.6667 15.127 28.2936 15.5001 27.8334 15.5001H24.5C24.058 15.5001 23.6341 15.3245 23.3215 15.0119C23.009 14.6994 22.8334 14.2754 22.8334 13.8334V10.5001C22.8334 10.0398 23.2065 9.66675 23.6667 9.66675Z" fill="#202B36"/>
<path fill-rule="evenodd" clip-rule="evenodd" d="M17.8334 11.3334C17.6124 11.3334 17.4004 11.4212 17.2441 11.5775C17.0878 11.7338 17 11.9457 17 12.1667V23.8334C17 24.0544 17.0878 24.2664 17.2441 24.4227C17.4004 24.579 17.6124 24.6667 17.8334 24.6667H26.1667C26.3877 24.6667 26.5997 24.579 26.756 24.4227C26.9122 24.2664 27 24.0544 27 23.8334V15.0119L23.3215 11.3334H17.8334ZM16.0656 10.399C16.5344 9.93014 17.1703 9.66675 17.8334 9.66675H23.6667C23.8877 9.66675 24.0997 9.75455 24.256 9.91083L28.4226 14.0775C28.5789 14.2338 28.6667 14.4457 28.6667 14.6667V23.8334C28.6667 24.4965 28.4033 25.1323 27.9345 25.6012C27.4656 26.07 26.8297 26.3334 26.1667 26.3334H17.8334C17.1703 26.3334 16.5344 26.07 16.0656 25.6012C15.5968 25.1323 15.3334 24.4965 15.3334 23.8334V12.1667C15.3334 11.5037 15.5968 10.8678 16.0656 10.399Z" fill="#202B36"/>
<path fill-rule="evenodd" clip-rule="evenodd" d="M22 16.3333C22.4602 16.3333 22.8333 16.7063 22.8333 17.1666V22.1666C22.8333 22.6268 22.4602 22.9999 22 22.9999C21.5397 22.9999 21.1666 22.6268 21.1666 22.1666V17.1666C21.1666 16.7063 21.5397 16.3333 22 16.3333Z" fill="#202B36"/>
<path fill-rule="evenodd" clip-rule="evenodd" d="M19.3275 19.4941C19.6529 19.1686 20.1805 19.1686 20.506 19.4941L22 20.9882L23.4941 19.4941C23.8196 19.1686 24.3472 19.1686 24.6726 19.4941C24.9981 19.8195 24.9981 20.3472 24.6726 20.6726L22.5893 22.7559C22.2639 23.0814 21.7362 23.0814 21.4108 22.7559L19.3275 20.6726C19.002 20.3472 19.002 19.8195 19.3275 19.4941Z" fill="#202B36"/>
<path d="M37.218 23V13.2H41.46C42.076 13.2 42.6267 13.34 43.112 13.62C43.5973 13.9 43.98 14.2827 44.26 14.768C44.54 15.244 44.68 15.79 44.68 16.406C44.68 17.0313 44.54 17.596 44.26 18.1C43.98 18.604 43.5973 19.0007 43.112 19.29C42.6267 19.5793 42.076 19.724 41.46 19.724H39.612V23H37.218ZM39.584 17.61H41.138C41.3433 17.61 41.5253 17.5633 41.684 17.47C41.852 17.3673 41.9873 17.2273 42.09 17.05C42.1927 16.8727 42.244 16.672 42.244 16.448C42.244 16.2147 42.1927 16.014 42.09 15.846C41.9873 15.678 41.852 15.5473 41.684 15.454C41.5253 15.3607 41.3433 15.314 41.138 15.314H39.584V17.61ZM46.4875 23V13.2H50.6175C51.3362 13.2 51.9942 13.3213 52.5915 13.564C53.1889 13.7973 53.7022 14.1333 54.1315 14.572C54.5609 15.0013 54.8922 15.5193 55.1255 16.126C55.3589 16.7233 55.4755 17.3813 55.4755 18.1C55.4755 18.828 55.3589 19.4907 55.1255 20.088C54.8922 20.6853 54.5609 21.2033 54.1315 21.642C53.7022 22.0713 53.1889 22.4073 52.5915 22.65C52.0035 22.8833 51.3455 23 50.6175 23H46.4875ZM48.8815 21.348L48.5735 20.886H50.5475C50.9302 20.886 51.2755 20.8207 51.5835 20.69C51.8915 20.5593 52.1529 20.3727 52.3675 20.13C52.5915 19.878 52.7595 19.584 52.8715 19.248C52.9929 18.9027 53.0535 18.52 53.0535 18.1C53.0535 17.68 52.9929 17.302 52.8715 16.966C52.7595 16.6207 52.5915 16.3267 52.3675 16.084C52.1529 15.832 51.8915 15.6407 51.5835 15.51C51.2755 15.3793 50.9302 15.314 50.5475 15.314H48.5315L48.8815 14.88V21.348ZM57.302 23V13.2H59.696V23H57.302ZM58.422 19.248V17.246H63.518V19.248H58.422ZM58.422 15.314V13.2H64.078V15.314H58.422Z" fill="#202B36"/>
</svg>
