<svg width="56" height="56" viewBox="0 0 56 56" fill="none" xmlns="http://www.w3.org/2000/svg">
<rect width="56" height="56" rx="28" fill="white"/>
<path fill-rule="evenodd" clip-rule="evenodd" d="M22.9385 18.609C23.9091 18.2069 24.9494 18 26 18C27.0506 18 28.0909 18.2069 29.0615 18.609C30.0321 19.011 30.914 19.6003 31.6569 20.3431C32.3997 21.086 32.989 21.9679 33.391 22.9385C33.7931 23.9091 34 24.9494 34 26C34 27.0506 33.7931 28.0909 33.391 29.0615C32.989 30.0321 32.3997 30.914 31.6569 31.6569C30.914 32.3997 30.0321 32.989 29.0615 33.391C28.0909 33.7931 27.0506 34 26 34C24.9494 34 23.9091 33.7931 22.9385 33.391C21.9679 32.989 21.086 32.3997 20.3431 31.6569C19.6003 30.914 19.011 30.0321 18.609 29.0615C18.2069 28.0909 18 27.0506 18 26C18 24.9494 18.2069 23.9091 18.609 22.9385C19.011 21.9679 19.6003 21.086 20.3431 20.3431C21.086 19.6003 21.9679 19.011 22.9385 18.609ZM26 20C25.2121 20 24.4319 20.1552 23.7039 20.4567C22.9759 20.7583 22.3145 21.2002 21.7574 21.7574C21.2002 22.3145 20.7583 22.9759 20.4567 23.7039C20.1552 24.4319 20 25.2121 20 26C20 26.7879 20.1552 27.5681 20.4567 28.2961C20.7583 29.0241 21.2002 29.6855 21.7574 30.2426C22.3145 30.7998 22.9759 31.2417 23.7039 31.5433C24.4319 31.8448 25.2121 32 26 32C26.7879 32 27.5681 31.8448 28.2961 31.5433C29.0241 31.2417 29.6855 30.7998 30.2426 30.2426C30.7998 29.6855 31.2417 29.0241 31.5433 28.2961C31.8448 27.5681 32 26.7879 32 26C32 25.2121 31.8448 24.4319 31.5433 23.7039C31.2417 22.9759 30.7998 22.3145 30.2426 21.7574C29.6855 21.2002 29.0241 20.7583 28.2961 20.4567C27.5681 20.1552 26.7879 20 26 20Z" fill="#798086"/>
<path fill-rule="evenodd" clip-rule="evenodd" d="M30.2929 30.2929C30.6834 29.9024 31.3166 29.9024 31.7071 30.2929L37.7071 36.2929C38.0976 36.6834 38.0976 37.3166 37.7071 37.7071C37.3166 38.0976 36.6834 38.0976 36.2929 37.7071L30.2929 31.7071C29.9024 31.3166 29.9024 30.6834 30.2929 30.2929Z" fill="#798086"/>
</svg>
