<svg width="28" height="28" viewBox="0 0 28 28" fill="none" xmlns="http://www.w3.org/2000/svg">
<path d="M7.27527 19.5614L6.83213 18.1215L5.0968 17.2555C5.10142 17.2593 5.10599 17.2631 5.11053 17.267C5.21146 17.3535 5.29055 17.4625 5.3414 17.5853C5.39224 17.7081 5.41339 17.8411 5.40313 17.9736C5.39288 18.1061 5.3515 18.2344 5.28237 18.3479C3.5499 21.1935 6.80614 24.449 9.65073 22.7161C9.76428 22.6469 9.89294 22.6052 10.0255 22.5949C10.1581 22.5846 10.2913 22.6058 10.4141 22.6567C10.537 22.7076 10.6461 22.7868 10.7326 22.8878C10.819 22.9889 10.8804 23.1089 10.9117 23.2381C11.6971 26.4754 16.3017 26.476 17.0876 23.2391L14.9858 22.1903C14.9172 22.3508 14.8618 22.5171 14.8203 22.6877C14.6117 23.5475 13.3883 23.5482 13.1794 22.6887L9.84516 20.2686L8.43641 20.7236C7.68083 21.1835 6.81478 20.3183 7.27527 19.5614Z" fill="#798086"/>
<path d="M18.1536 20.2702C17.655 20.2316 17.1544 20.3112 16.6925 20.5025C16.2305 20.6937 15.8202 20.9913 15.4949 21.3711C15.3604 21.528 15.242 21.6972 15.141 21.876L18.4521 20.5043L18.5418 20.3245C18.414 20.2985 18.2843 20.2803 18.1536 20.2702Z" fill="#798086"/>
<path d="M14.9858 22.1903L17.0876 23.2391C17.1176 23.116 17.175 23.0008 17.2553 22.9029L18.4521 20.5043L15.141 21.876C15.0836 21.9778 15.0317 22.0827 14.9858 22.1903Z" fill="#798086"/>
<path d="M5.31131 14.8203C5.04596 14.7559 4.86252 14.5949 4.76099 14.3968L4.76058 17.0877C4.8839 17.1177 4.99881 17.1751 5.0968 17.2555L6.83213 18.1215L5.87632 15.0155C5.69508 14.9331 5.50593 14.8676 5.31131 14.8203Z" fill="#798086"/>
<path d="M4.76153 10.9119C1.52425 11.6972 1.52372 16.3019 4.76058 17.0877L4.76099 14.3968C4.63507 14.1512 4.63512 13.8487 4.76111 13.603L4.76153 10.9119Z" fill="#798086"/>
<path d="M7.27604 8.43657C7.1339 8.20303 7.1184 7.95895 7.18718 7.74676L5.28358 9.65089C5.35281 9.76444 5.39448 9.8931 5.40476 10.0257C5.41504 10.1583 5.39387 10.2914 5.34297 10.4143C5.29207 10.5371 5.21288 10.6462 5.11184 10.7327C5.0108 10.8192 4.89077 10.8806 4.76153 10.9119L4.76111 13.603C4.86268 13.405 5.04608 13.244 5.31131 13.1795L7.27604 8.43657Z" fill="#798086"/>
<path d="M9.65113 5.28211C6.80558 3.55044 3.55077 6.8065 5.28358 9.65089L7.18718 7.74676C7.27203 7.48495 7.4852 7.27169 7.74711 7.18667L9.65113 5.28211Z" fill="#798086"/>
<path d="M9.23676 7.62426C10.6391 8.01934 12.1503 7.39274 12.8618 6.12245L9.23676 7.62426Z" fill="#798086"/>
<path d="M13.0147 5.8101L10.912 4.76075C10.7763 5.31709 10.1433 5.58125 9.65113 5.28211L7.74711 7.18667C7.95974 7.11764 8.2045 7.13313 8.43883 7.27579C8.69627 7.43231 8.96446 7.54755 9.23676 7.62426L12.8618 6.12245C12.9179 6.02228 12.969 5.9181 13.0147 5.8101Z" fill="#798086"/>
<path d="M13.1794 5.31147C13.3879 4.45173 14.6112 4.45162 14.8201 5.31115L16.5955 7.45678C16.6275 7.4713 16.6598 7.48531 16.6923 7.49878C17.1546 7.69029 17.6555 7.76995 18.1544 7.73127C18.6532 7.6926 19.1359 7.53667 19.5631 7.2762C20.3187 6.81635 21.1849 7.68138 20.7244 8.43819C20.5325 8.75319 20.3975 9.09831 20.3243 9.4578L22.9032 10.7447C22.8984 10.7408 22.8937 10.7369 22.889 10.7328C22.7881 10.6464 22.709 10.5373 22.6581 10.4145C22.6073 10.2917 22.5861 10.1587 22.5964 10.0262C22.6066 9.89369 22.6481 9.76527 22.7173 9.65177C24.4497 6.80609 21.193 3.55104 18.3484 5.28397C18.2349 5.3532 18.1066 5.39464 17.974 5.40492C17.8414 5.4152 17.7083 5.39403 17.5854 5.34313C17.4625 5.29223 17.3534 5.21304 17.267 5.112C17.1805 5.01096 17.119 4.89061 17.0877 4.76137C16.3024 1.52409 11.6978 1.52388 10.912 4.76075L13.0147 5.8101C13.0817 5.65189 13.1371 5.48548 13.1794 5.31147Z" fill="#798086"/>
<path d="M20.27 9.84612C20.2314 10.3446 20.311 10.8452 20.5023 11.3072C20.6936 11.7692 20.9912 12.1795 21.3709 12.5048C21.6171 12.7157 21.8934 12.8871 22.1896 13.0137L23.2383 10.912C23.1154 10.882 23.0009 10.8248 22.9032 10.7447L20.3243 9.4578C20.2983 9.58566 20.2801 9.71533 20.27 9.84612Z" fill="#798086"/>
<path d="M7.49722 16.6926C7.30593 16.2307 7.00833 15.8204 6.62862 15.495C6.40101 15.3 6.14752 15.1388 5.87632 15.0155L6.83213 18.1215L7.67517 18.5421C7.70119 18.4143 7.71938 18.2845 7.72951 18.1537C7.7681 17.6552 7.68851 17.1546 7.49722 16.6926Z" fill="#798086"/>
<path d="M6.83213 18.1215L7.27527 19.5614C7.46705 19.2465 7.60204 18.9015 7.67517 18.5421L6.83213 18.1215Z" fill="#798086"/>
<path d="M11.3072 20.5011C10.845 20.3095 10.344 20.2299 9.84516 20.2686L13.1794 22.6887C13.0616 22.2025 12.8306 21.7507 12.5053 21.3707C12.18 20.9905 11.7695 20.6926 11.3072 20.5011Z" fill="#798086"/>
<path d="M9.84516 20.2686C9.34644 20.3072 8.86353 20.4633 8.43641 20.7236L9.84516 20.2686Z" fill="#798086"/>
<path d="M7.73111 9.84532C7.69245 9.3466 7.53638 8.86369 7.27604 8.43657L5.31131 13.1795C5.79747 13.0617 6.24895 12.8307 6.62901 12.5055C7.00915 12.1801 7.30711 11.7696 7.49862 11.3074C7.69013 10.8451 7.76979 10.3442 7.73111 9.84532Z" fill="#798086"/>
<path d="M22.6885 14.8202C22.2024 14.9381 21.7506 15.1691 21.3705 15.4944L22.6885 14.8202Z" fill="#798086"/>
<path d="M22.6876 13.1794C23.5473 13.3879 23.5481 14.6114 22.6885 14.8202L21.3705 15.4944L20.5009 16.6925L20.2684 18.1545L20.7235 19.5633C21.1833 20.3188 20.3183 21.185 19.5615 20.7245C19.3107 20.5718 19.0407 20.455 18.7597 20.3769L18.4521 20.5043L17.2553 22.9029L17.2668 22.8891C17.3533 22.7882 17.4624 22.7091 17.5852 22.6583C17.7079 22.6074 17.841 22.5863 17.9735 22.5965C18.106 22.6068 18.2344 22.6483 18.3479 22.7174C21.1936 24.4499 24.4486 21.1932 22.7157 18.3486C22.6465 18.235 22.605 18.1067 22.5948 17.9741C22.5845 17.8416 22.6056 17.7084 22.6565 17.5856C22.7074 17.4627 22.7866 17.3536 22.8877 17.2671C22.9887 17.1807 23.1091 17.1192 23.2383 17.0879C26.4756 16.3025 26.4752 11.6978 23.2383 10.912L22.1896 13.0137C22.3503 13.0823 22.5168 13.1378 22.6876 13.1794Z" fill="#798086"/>
<path d="M21.3705 15.4944C20.9904 15.8197 20.6924 16.2302 20.5009 16.6925L21.3705 15.4944Z" fill="#798086"/>
<path d="M20.5009 16.6925C20.3094 17.1547 20.2297 17.6557 20.2684 18.1545L20.5009 16.6925Z" fill="#798086"/>
<path d="M20.2684 18.1545C20.3071 18.6534 20.463 19.1361 20.7235 19.5633L20.2684 18.1545Z" fill="#798086"/>
<path d="M18.4521 20.5043L18.7597 20.3769C18.6877 20.3568 18.6151 20.3394 18.5418 20.3245L18.4521 20.5043Z" fill="#798086"/>
<path d="M4.76058 17.0877C4.8839 17.1177 4.99881 17.1751 5.0968 17.2555L4.76058 17.0877Z" fill="#798086"/>
<path d="M5.11184 10.7327C5.0108 10.8192 4.89077 10.8806 4.76153 10.9119L5.11184 10.7327Z" fill="#798086"/>
<path d="M5.34297 10.4143C5.29207 10.5371 5.21288 10.6462 5.11184 10.7327L5.34297 10.4143Z" fill="#798086"/>
<path d="M5.40476 10.0257C5.41504 10.1583 5.39387 10.2914 5.34297 10.4143L5.40476 10.0257Z" fill="#798086"/>
<path d="M5.28358 9.65089C5.35281 9.76444 5.39448 9.8931 5.40476 10.0257L5.28358 9.65089Z" fill="#798086"/>
<path d="M14.8201 5.31115C14.9379 5.79731 15.1689 6.24911 15.4942 6.62917C15.7967 6.98257 16.1727 7.26493 16.5955 7.45678L14.8201 5.31115Z" fill="#798086"/>
<path fill-rule="evenodd" clip-rule="evenodd" d="M10.7001 10.7001C11.5753 9.82492 12.7622 9.33325 13.9999 9.33325C15.2376 9.33325 16.4246 9.82492 17.2998 10.7001C18.1749 11.5753 18.6666 12.7622 18.6666 13.9999C18.6666 15.2376 18.1749 16.4246 17.2998 17.2998C16.4246 18.1749 15.2376 18.6666 13.9999 18.6666C12.7622 18.6666 11.5753 18.1749 10.7001 17.2998C9.82492 16.4246 9.33325 15.2376 9.33325 13.9999C9.33325 12.7622 9.82492 11.5753 10.7001 10.7001ZM13.9999 11.6666C13.3811 11.6666 12.7876 11.9124 12.35 12.35C11.9124 12.7876 11.6666 13.3811 11.6666 13.9999C11.6666 14.6188 11.9124 15.2123 12.35 15.6498C12.7876 16.0874 13.3811 16.3333 13.9999 16.3333C14.6188 16.3333 15.2123 16.0874 15.6498 15.6498C16.0874 15.2123 16.3333 14.6188 16.3333 13.9999C16.3333 13.3811 16.0874 12.7876 15.6498 12.35C15.2123 11.9124 14.6188 11.6666 13.9999 11.6666Z" fill="#798086"/>
</svg>
