<svg width="24" height="24" viewBox="0 0 24 24" fill="none" xmlns="http://www.w3.org/2000/svg">
<path fill-rule="evenodd" clip-rule="evenodd" d="M4.37868 4.9275C4.94129 4.33363 5.70435 4 6.5 4H8.5C9.05228 4 9.5 4.47259 9.5 5.05556C9.5 5.63852 9.05228 6.11111 8.5 6.11111H6.5C6.23478 6.11111 5.98043 6.22232 5.79289 6.42028C5.60536 6.61823 5.5 6.88672 5.5 7.16667V19.8333C5.5 20.1133 5.60536 20.3818 5.79289 20.5797C5.98043 20.7777 6.23478 20.8889 6.5 20.8889H9.5C10.0523 20.8889 10.5 21.3615 10.5 21.9444C10.5 22.5274 10.0523 23 9.5 23H6.5C5.70435 23 4.94129 22.6664 4.37868 22.0725C3.81607 21.4786 3.5 20.6732 3.5 19.8333V7.16667C3.5 6.32681 3.81607 5.52136 4.37868 4.9275ZM13.5 5.05556C13.5 4.47259 13.9477 4 14.5 4H16.5C17.2956 4 18.0587 4.33363 18.6213 4.9275C19.1839 5.52136 19.5 6.32681 19.5 7.16667V12.4444C19.5 13.0274 19.0523 13.5 18.5 13.5C17.9477 13.5 17.5 13.0274 17.5 12.4444V7.16667C17.5 6.88672 17.3946 6.61823 17.2071 6.42028C17.0196 6.22232 16.7652 6.11111 16.5 6.11111H14.5C13.9477 6.11111 13.5 5.63852 13.5 5.05556Z" fill="#798086"/>
<path fill-rule="evenodd" clip-rule="evenodd" d="M12.0858 14.6509C12.4609 14.2341 12.9696 14 13.5 14H14.5C15.0523 14 15.5 14.4975 15.5 15.1111C15.5 15.7248 15.0523 16.2222 14.5 16.2222L13.5 16.2222L13.5 17.3333C13.5 17.947 13.0523 18.4444 12.5 18.4444C11.9477 18.4444 11.5 17.947 11.5 17.3333V16.2222C11.5 15.6329 11.7107 15.0676 12.0858 14.6509ZM16.5 15.1111C16.5 14.4975 16.9477 14 17.5 14H18.5C19.0304 14 19.5391 14.2341 19.9142 14.6509C20.2893 15.0676 20.5 15.6329 20.5 16.2222V17.3333C20.5 17.947 20.0523 18.4444 19.5 18.4444C18.9477 18.4444 18.5 17.947 18.5 17.3333L18.5 16.2222L17.5 16.2222C16.9477 16.2222 16.5 15.7248 16.5 15.1111ZM12.5 19.5556C13.0523 19.5556 13.5 20.053 13.5 20.6667V21.7778H14.5C15.0523 21.7778 15.5 22.2752 15.5 22.8889C15.5 23.5025 15.0523 24 14.5 24H13.5C12.9696 24 12.4609 23.7659 12.0858 23.3491C11.7107 22.9324 11.5 22.3671 11.5 21.7778V20.6667C11.5 20.053 11.9477 19.5556 12.5 19.5556ZM19.5 19.5556C20.0523 19.5556 20.5 20.053 20.5 20.6667V21.7778C20.5 22.3671 20.2893 22.9324 19.9142 23.3491C19.5391 23.7659 19.0304 24 18.5 24H17.5C16.9477 24 16.5 23.5025 16.5 22.8889C16.5 22.2752 16.9477 21.7778 17.5 21.7778H18.5V20.6667C18.5 20.053 18.9477 19.5556 19.5 19.5556Z" fill="#798086"/>
<path fill-rule="evenodd" clip-rule="evenodd" d="M10.5 4.33333C10.2348 4.33333 9.98043 4.45625 9.79289 4.67504C9.60536 4.89383 9.5 5.19058 9.5 5.5C9.5 5.80942 9.60536 6.10616 9.79289 6.32496C9.98043 6.54375 10.2348 6.66667 10.5 6.66667H12.5C12.7652 6.66667 13.0196 6.54375 13.2071 6.32496C13.3946 6.10616 13.5 5.80942 13.5 5.5C13.5 5.19058 13.3946 4.89383 13.2071 4.67504C13.0196 4.45625 12.7652 4.33333 12.5 4.33333H10.5ZM8.37868 3.02513C8.94129 2.36875 9.70435 2 10.5 2H12.5C13.2956 2 14.0587 2.36875 14.6213 3.02513C15.1839 3.6815 15.5 4.57174 15.5 5.5C15.5 6.42826 15.1839 7.3185 14.6213 7.97487C14.0587 8.63125 13.2956 9 12.5 9H10.5C9.70435 9 8.94129 8.63125 8.37868 7.97487C7.81607 7.3185 7.5 6.42826 7.5 5.5C7.5 4.57174 7.81607 3.6815 8.37868 3.02513Z" fill="#798086"/>
</svg>
