<svg width="24" height="24" viewBox="0 0 24 24" fill="none" xmlns="http://www.w3.org/2000/svg">
<path fill-rule="evenodd" clip-rule="evenodd" d="M11 9C11 8.44772 11.4477 8 12 8H12.01C12.5623 8 13.01 8.44772 13.01 9C13.01 9.55228 12.5623 10 12.01 10H12C11.4477 10 11 9.55228 11 9Z" fill="#798086"/>
<path fill-rule="evenodd" clip-rule="evenodd" d="M10 12C10 11.4477 10.4477 11 11 11H12C12.5523 11 13 11.4477 13 12V15C13.5523 15 14 15.4477 14 16C14 16.5523 13.5523 17 13 17H12C11.4477 17 11 16.5523 11 16V13C10.4477 13 10 12.5523 10 12Z" fill="#798086"/>
<path fill-rule="evenodd" clip-rule="evenodd" d="M5.50711 5.50711C4.47511 6.5391 4 8.39285 4 12C4 15.6071 4.47511 17.4609 5.50711 18.4929C6.5391 19.5249 8.39285 20 12 20C15.6071 20 17.4609 19.5249 18.4929 18.4929C19.5249 17.4609 20 15.6071 20 12C20 8.39285 19.5249 6.5391 18.4929 5.50711C17.4609 4.47511 15.6071 4 12 4C8.39285 4 6.5391 4.47511 5.50711 5.50711ZM4.09289 4.09289C5.7609 2.42489 8.40715 2 12 2C15.5929 2 18.2391 2.42489 19.9071 4.09289C21.5751 5.7609 22 8.40715 22 12C22 15.5929 21.5751 18.2391 19.9071 19.9071C18.2391 21.5751 15.5929 22 12 22C8.40715 22 5.7609 21.5751 4.09289 19.9071C2.42489 18.2391 2 15.5929 2 12C2 8.40715 2.42489 5.7609 4.09289 4.09289Z" fill="#798086"/>
</svg>
