<svg width="28" height="28" viewBox="0 0 28 28" fill="none" xmlns="http://www.w3.org/2000/svg">
<path fill-rule="evenodd" clip-rule="evenodd" d="M11.2782 9.33333C10.7624 9.33333 10.2677 9.53823 9.90296 9.90296C9.53823 10.2677 9.33333 10.7624 9.33333 11.2782V21.3885C9.33333 21.6439 9.38364 21.8968 9.48138 22.1328C9.57911 22.3687 9.72237 22.5831 9.90296 22.7637C10.0836 22.9443 10.298 23.0876 10.5339 23.1853C10.7699 23.283 11.0228 23.3333 11.2782 23.3333H21.3885C21.6439 23.3333 21.8968 23.283 22.1328 23.1853C22.3687 23.0876 22.5831 22.9443 22.7637 22.7637C22.9443 22.5831 23.0876 22.3687 23.1853 22.1328C23.283 21.8968 23.3333 21.6439 23.3333 21.3885V11.2782C23.3333 11.0228 23.283 10.7699 23.1853 10.5339C23.0876 10.298 22.9443 10.0836 22.7637 9.90296C22.5831 9.72237 22.3687 9.57911 22.1328 9.48138C21.8968 9.38364 21.6439 9.33333 21.3885 9.33333H11.2782ZM8.25305 8.25305C9.05536 7.45073 10.1435 7 11.2782 7H21.3885C21.9503 7 22.5066 7.11066 23.0257 7.32566C23.5447 7.54065 24.0164 7.85578 24.4136 8.25305C24.8109 8.65031 25.126 9.12193 25.341 9.64098C25.556 10.16 25.6667 10.7164 25.6667 11.2782V21.3885C25.6667 21.9503 25.556 22.5066 25.341 23.0257C25.126 23.5447 24.8109 24.0164 24.4136 24.4136C24.0164 24.8109 23.5447 25.126 23.0257 25.341C22.5066 25.556 21.9503 25.6667 21.3885 25.6667H11.2782C10.7164 25.6667 10.16 25.556 9.64098 25.341C9.12193 25.126 8.65031 24.8109 8.25305 24.4136C7.85578 24.0164 7.54065 23.5447 7.32566 23.0257C7.11066 22.5066 7 21.9503 7 21.3885V11.2782C7 10.1435 7.45073 9.05536 8.25305 8.25305Z" fill="#798086"/>
<path fill-rule="evenodd" clip-rule="evenodd" d="M5.83325 4.66659C5.19425 4.66659 4.66659 5.19425 4.66659 5.83325V17.4993C4.66687 17.7051 4.72159 17.9072 4.82519 18.085C4.92888 18.2629 5.07783 18.4103 5.25692 18.512C5.81714 18.8303 6.01326 19.5425 5.69496 20.1028C5.37666 20.663 4.66447 20.8591 4.10425 20.5408C3.567 20.2355 3.12014 19.7935 2.80908 19.2596C2.49802 18.7257 2.33385 18.119 2.33325 17.501L2.33325 5.83325C2.33325 3.90559 3.90559 2.33325 5.83325 2.33325H17.4999C18.1561 2.33325 18.7401 2.50804 19.2388 2.87004C19.7122 3.21371 20.0309 3.67052 20.2695 4.09958C20.5827 4.6627 20.38 5.37305 19.8169 5.6862C19.2538 5.99935 18.5435 5.79671 18.2303 5.23359C18.0699 4.94515 17.9511 4.81863 17.8681 4.75833C17.8103 4.71638 17.7188 4.66659 17.4999 4.66659H5.83325Z" fill="#798086"/>
<path fill-rule="evenodd" clip-rule="evenodd" d="M20.6584 13.175C21.114 13.6306 21.114 14.3693 20.6584 14.8249L15.9917 19.4915C15.5361 19.9472 14.7974 19.9472 14.3418 19.4915L12.0085 17.1582C11.5528 16.7026 11.5528 15.9639 12.0085 15.5083C12.4641 15.0527 13.2028 15.0527 13.6584 15.5083L15.1667 17.0167L19.0085 13.175C19.4641 12.7193 20.2028 12.7193 20.6584 13.175Z" fill="#798086"/>
</svg>
