<svg width="24" height="24" viewBox="0 0 24 24" fill="none" xmlns="http://www.w3.org/2000/svg">
<path fill-rule="evenodd" clip-rule="evenodd" d="M5.04244 3.71265C5.16933 3.28967 5.55866 3 6.00026 3H8.00026C8.55255 3 9.00026 3.44772 9.00026 4C9.00026 4.55228 8.55255 5 8.00026 5H6.74429L3.95809 14.2873C3.79939 14.8163 3.24191 15.1165 2.71292 14.9578C2.18392 14.7991 1.88374 14.2416 2.04244 13.7127L5.04244 3.71265Z" fill="#202B36"/>
<path fill-rule="evenodd" clip-rule="evenodd" d="M15.0002 4C15.0002 3.44772 15.448 3 16.0002 3H18.0002C18.4419 3 18.8312 3.28967 18.9581 3.71265L21.9581 13.7127C22.1168 14.2416 21.8166 14.7991 21.2876 14.9578C20.7586 15.1165 20.2011 14.8163 20.0424 14.2873L17.2562 5H16.0002C15.448 5 15.0002 4.55228 15.0002 4Z" fill="#202B36"/>
<path fill-rule="evenodd" clip-rule="evenodd" d="M9.00024 16C9.00024 15.4477 9.44796 15 10.0002 15H14.0002C14.5525 15 15.0002 15.4477 15.0002 16C15.0002 16.5523 14.5525 17 14.0002 17H10.0002C9.44796 17 9.00024 16.5523 9.00024 16Z" fill="#202B36"/>
<path fill-rule="evenodd" clip-rule="evenodd" d="M13.0002 14C13.0002 13.4477 13.448 13 14.0002 13H21.0002C21.5525 13 22.0002 13.4477 22.0002 14V16.5C22.0002 17.6935 21.5261 18.8381 20.6822 19.682C19.8383 20.5259 18.6937 21 17.5002 21C16.3068 21 15.1622 20.5259 14.3183 19.682C13.4743 18.8381 13.0002 17.6935 13.0002 16.5V14ZM15.0002 15V16.5C15.0002 17.163 15.2636 17.7989 15.7325 18.2678C16.2013 18.7366 16.8372 19 17.5002 19C18.1633 19 18.7992 18.7366 19.268 18.2678C19.7369 17.7989 20.0002 17.163 20.0002 16.5V15H15.0002Z" fill="#202B36"/>
<path fill-rule="evenodd" clip-rule="evenodd" d="M2.00024 14C2.00024 13.4477 2.44796 13 3.00024 13H10.0002C10.5525 13 11.0002 13.4477 11.0002 14V16.5C11.0002 17.6935 10.5261 18.8381 9.68222 19.682C8.83831 20.5259 7.69372 21 6.50024 21C5.30677 21 4.16218 20.5259 3.31826 19.682C2.47435 18.8381 2.00024 17.6935 2.00024 16.5V14ZM4.00024 15V16.5C4.00024 17.163 4.26364 17.7989 4.73248 18.2678C5.20132 18.7366 5.8372 19 6.50024 19C7.16329 19 7.79917 18.7366 8.26801 18.2678C8.73685 17.7989 9.00024 17.163 9.00024 16.5V15H4.00024Z" fill="#202B36"/>
<path fill-rule="evenodd" clip-rule="evenodd" d="M3.29314 13.2929C3.68366 12.9024 4.31683 12.9024 4.70735 13.2929L9.20735 17.7929C9.59788 18.1834 9.59788 18.8166 9.20735 19.2071C8.81683 19.5976 8.18366 19.5976 7.79314 19.2071L3.29314 14.7071C2.90261 14.3166 2.90261 13.6834 3.29314 13.2929Z" fill="#202B36"/>
<path fill-rule="evenodd" clip-rule="evenodd" d="M14.2931 13.2929C14.6837 12.9024 15.3168 12.9024 15.7074 13.2929L20.2074 17.7929C20.5979 18.1834 20.5979 18.8166 20.2074 19.2071C19.8168 19.5976 19.1837 19.5976 18.7931 19.2071L14.2931 14.7071C13.9026 14.3166 13.9026 13.6834 14.2931 13.2929Z" fill="#202B36"/>
</svg>
