<svg width="32" height="32" viewBox="0 0 32 32" fill="none" xmlns="http://www.w3.org/2000/svg">
<g id="icon">
<path id="Vector (Stroke)" fill-rule="evenodd" clip-rule="evenodd" d="M14.6667 12.0003C14.6667 11.2639 15.2637 10.667 16.0001 10.667H16.0134C16.7498 10.667 17.3467 11.2639 17.3467 12.0003C17.3467 12.7367 16.7498 13.3337 16.0134 13.3337H16.0001C15.2637 13.3337 14.6667 12.7367 14.6667 12.0003Z" fill="#798086"/>
<path id="Vector (Stroke)_2" fill-rule="evenodd" clip-rule="evenodd" d="M13.3333 16.0003C13.3333 15.2639 13.9302 14.667 14.6666 14.667H15.9999C16.7363 14.667 17.3333 15.2639 17.3333 16.0003V20.0003C18.0696 20.0003 18.6666 20.5973 18.6666 21.3337C18.6666 22.07 18.0696 22.667 17.3333 22.667H15.9999C15.2635 22.667 14.6666 22.07 14.6666 21.3337V17.3337C13.9302 17.3337 13.3333 16.7367 13.3333 16.0003Z" fill="#798086"/>
<path id="Vector (Stroke)_3" fill-rule="evenodd" clip-rule="evenodd" d="M7.34289 7.34313C5.9669 8.71912 5.33341 11.1908 5.33341 16.0003C5.33341 20.8099 5.9669 23.2815 7.34289 24.6575C8.71888 26.0335 11.1906 26.667 16.0001 26.667C20.8096 26.667 23.2813 26.0335 24.6573 24.6575C26.0333 23.2815 26.6667 20.8099 26.6667 16.0003C26.6667 11.1908 26.0333 8.71912 24.6573 7.34313C23.2813 5.96714 20.8096 5.33366 16.0001 5.33366C11.1906 5.33366 8.71888 5.96714 7.34289 7.34313ZM5.45727 5.45752C7.68128 3.23351 11.2096 2.66699 16.0001 2.66699C20.7906 2.66699 24.3189 3.23351 26.5429 5.45752C28.7669 7.68153 29.3334 11.2099 29.3334 16.0003C29.3334 20.7908 28.7669 24.3191 26.5429 26.5431C24.3189 28.7671 20.7906 29.3337 16.0001 29.3337C11.2096 29.3337 7.68128 28.7671 5.45727 26.5431C3.23326 24.3191 2.66675 20.7908 2.66675 16.0003C2.66675 11.2099 3.23326 7.68153 5.45727 5.45752Z" fill="#798086"/>
</g>
</svg>
