<svg width="32" height="32" viewBox="0 0 32 32" fill="none" xmlns="http://www.w3.org/2000/svg">
<g id="icon">
<path id="Vector (Stroke)" fill-rule="evenodd" clip-rule="evenodd" d="M11.2859 4.61961C12.5361 3.36937 14.2318 2.66699 15.9999 2.66699C17.768 2.66699 19.4637 3.36937 20.714 4.61961C21.9642 5.86986 22.6666 7.56555 22.6666 9.33366C22.6666 11.1018 21.9642 12.7975 20.714 14.0477C19.4637 15.2979 17.768 16.0003 15.9999 16.0003C14.2318 16.0003 12.5361 15.2979 11.2859 14.0477C10.0356 12.7975 9.33325 11.1018 9.33325 9.33366C9.33325 7.56555 10.0356 5.86986 11.2859 4.61961ZM15.9999 5.33366C14.9391 5.33366 13.9216 5.75509 13.1715 6.50523C12.4213 7.25538 11.9999 8.27279 11.9999 9.33366C11.9999 10.3945 12.4213 11.4119 13.1715 12.1621C13.9216 12.9122 14.9391 13.3337 15.9999 13.3337C17.0608 13.3337 18.0782 12.9122 18.8283 12.1621C19.5785 11.4119 19.9999 10.3945 19.9999 9.33366C19.9999 8.27279 19.5785 7.25538 18.8283 6.50523C18.0782 5.75509 17.0608 5.33366 15.9999 5.33366Z" fill="#798086"/>
<path id="Vector (Stroke)_2" fill-rule="evenodd" clip-rule="evenodd" d="M13.3334 21.3337C12.2725 21.3337 11.2551 21.7551 10.505 22.5052C9.75484 23.2554 9.33341 24.2728 9.33341 25.3337V28.0003C9.33341 28.7367 8.73646 29.3337 8.00008 29.3337C7.2637 29.3337 6.66675 28.7367 6.66675 28.0003V25.3337C6.66675 23.5655 7.36913 21.8699 8.61937 20.6196C9.86961 19.3694 11.5653 18.667 13.3334 18.667H18.6667C20.4349 18.667 22.1306 19.3694 23.3808 20.6196C24.631 21.8699 25.3334 23.5655 25.3334 25.3337V28.0003C25.3334 28.7367 24.7365 29.3337 24.0001 29.3337C23.2637 29.3337 22.6667 28.7367 22.6667 28.0003V25.3337C22.6667 24.2728 22.2453 23.2554 21.4952 22.5052C20.745 21.7551 19.7276 21.3337 18.6667 21.3337H13.3334Z" fill="#798086"/>
</g>
</svg>
