<svg width="24" height="24" viewBox="0 0 24 24" fill="none" xmlns="http://www.w3.org/2000/svg">
<g id="icon">
<path id="Vector (Stroke)" fill-rule="evenodd" clip-rule="evenodd" d="M7.96447 3.46447C8.90215 2.52678 10.1739 2 11.5 2C12.8261 2 14.0979 2.52678 15.0355 3.46447C15.9732 4.40215 16.5 5.67392 16.5 7C16.5 8.32608 15.9732 9.59785 15.0355 10.5355C14.0979 11.4732 12.8261 12 11.5 12C10.1739 12 8.90215 11.4732 7.96447 10.5355C7.02678 9.59785 6.5 8.32608 6.5 7C6.5 5.67392 7.02678 4.40215 7.96447 3.46447ZM11.5 4C10.7044 4 9.94129 4.31607 9.37868 4.87868C8.81607 5.44129 8.5 6.20435 8.5 7C8.5 7.79565 8.81607 8.55871 9.37868 9.12132C9.94129 9.68393 10.7044 10 11.5 10C12.2956 10 13.0587 9.68393 13.6213 9.12132C14.1839 8.55871 14.5 7.79565 14.5 7C14.5 6.20435 14.1839 5.44129 13.6213 4.87868C13.0587 4.31607 12.2956 4 11.5 4Z" fill="#798086"/>
<path id="Vector (Stroke)_2" fill-rule="evenodd" clip-rule="evenodd" d="M9.5 16C8.70435 16 7.94129 16.3161 7.37868 16.8787C6.81607 17.4413 6.5 18.2044 6.5 19V21C6.5 21.5523 6.05228 22 5.5 22C4.94772 22 4.5 21.5523 4.5 21V19C4.5 17.6739 5.02678 16.4021 5.96447 15.4645C6.90215 14.5268 8.17392 14 9.5 14H12C12.5523 14 13 14.4477 13 15C13 15.5523 12.5523 16 12 16H9.5Z" fill="#798086"/>
<path id="Vector (Stroke)_3" fill-rule="evenodd" clip-rule="evenodd" d="M16.3797 16.8787C16.9423 16.3161 17.7053 16 18.501 16C19.2966 16 20.0597 16.3161 20.6223 16.8787C21.1849 17.4413 21.501 18.2043 21.501 19C21.501 19.7957 21.1849 20.5587 20.6223 21.1213C20.0597 21.6839 19.2966 22 18.501 22C17.7053 22 16.9423 21.6839 16.3797 21.1213C15.817 20.5587 15.501 19.7957 15.501 19C15.501 18.2043 15.817 17.4413 16.3797 16.8787ZM18.501 18C18.2358 18 17.9814 18.1054 17.7939 18.2929C17.6063 18.4804 17.501 18.7348 17.501 19C17.501 19.2652 17.6063 19.5196 17.7939 19.7071C17.9814 19.8946 18.2358 20 18.501 20C18.7662 20 19.0205 19.8946 19.2081 19.7071C19.3956 19.5196 19.501 19.2652 19.501 19C19.501 18.7348 19.3956 18.4804 19.2081 18.2929C19.0205 18.1054 18.7662 18 18.501 18Z" fill="#798086"/>
<path id="Vector (Stroke)_4" fill-rule="evenodd" clip-rule="evenodd" d="M18.501 14.5C19.0533 14.5 19.501 14.9477 19.501 15.5V17C19.501 17.5523 19.0533 18 18.501 18C17.9487 18 17.501 17.5523 17.501 17V15.5C17.501 14.9477 17.9487 14.5 18.501 14.5Z" fill="#798086"/>
<path id="Vector (Stroke)_5" fill-rule="evenodd" clip-rule="evenodd" d="M18.501 20C19.0533 20 19.501 20.4477 19.501 21V22.5C19.501 23.0523 19.0533 23.5 18.501 23.5C17.9487 23.5 17.501 23.0523 17.501 22.5V21C17.501 20.4477 17.9487 20 18.501 20Z" fill="#798086"/>
<path id="Vector (Stroke)_6" fill-rule="evenodd" clip-rule="evenodd" d="M22.3981 16.7502C22.6742 17.2284 22.5104 17.84 22.0321 18.1162L20.7331 18.8662C20.2548 19.1423 19.6432 18.9785 19.3671 18.5002C19.0909 18.0219 19.2548 17.4103 19.7331 17.1341L21.0321 16.3841C21.5104 16.108 22.1219 16.2719 22.3981 16.7502Z" fill="#798086"/>
<path id="Vector (Stroke)_7" fill-rule="evenodd" clip-rule="evenodd" d="M17.6361 19.5004C17.9121 19.9788 17.748 20.5904 17.2696 20.8664L15.9696 21.6164C15.4912 21.8923 14.8797 21.7283 14.6037 21.2499C14.3277 20.7715 14.4918 20.16 14.9702 19.884L16.2702 19.134C16.7486 18.858 17.3601 19.0221 17.6361 19.5004Z" fill="#798086"/>
<path id="Vector (Stroke)_8" fill-rule="evenodd" clip-rule="evenodd" d="M14.6037 16.7504C14.8797 16.2721 15.4912 16.108 15.9696 16.384L17.2696 17.134C17.748 17.41 17.9121 18.0215 17.6361 18.4999C17.3601 18.9783 16.7486 19.1423 16.2702 18.8664L14.9702 18.1164C14.4918 17.8404 14.3277 17.2288 14.6037 16.7504Z" fill="#798086"/>
<path id="Vector (Stroke)_9" fill-rule="evenodd" clip-rule="evenodd" d="M19.3669 19.5004C19.6429 19.0221 20.2544 18.858 20.7328 19.134L22.0328 19.884C22.5112 20.16 22.6753 20.7715 22.3993 21.2499C22.1233 21.7283 21.5117 21.8923 21.0334 21.6164L19.7334 20.8664C19.255 20.5904 19.0909 19.9788 19.3669 19.5004Z" fill="#798086"/>
</g>
</svg>
