<svg width="32" height="32" viewBox="0 0 32 32" fill="none" xmlns="http://www.w3.org/2000/svg">
<g id="icon">
<g id="Vector">
<path fill-rule="evenodd" clip-rule="evenodd" d="M4 6.66699C4 5.93061 4.59695 5.33366 5.33333 5.33366H14.6667C15.403 5.33366 16 5.93061 16 6.66699C16 7.40337 15.403 8.00033 14.6667 8.00033H5.33333C4.59695 8.00033 4 7.40337 4 6.66699Z" fill="#798086"/>
<path fill-rule="evenodd" clip-rule="evenodd" d="M12 2.66699C12.7364 2.66699 13.3333 3.26395 13.3333 4.00033V6.66699C13.3333 9.8223 12.5364 12.7423 11.1778 14.916C9.83098 17.0709 7.79968 18.667 5.33333 18.667C4.59695 18.667 4 18.07 4 17.3337C4 16.5973 4.59695 16.0003 5.33333 16.0003C6.54832 16.0003 7.85035 15.2084 8.91651 13.5026C9.97089 11.8157 10.6667 9.40235 10.6667 6.66699V4.00033C10.6667 3.26395 11.2636 2.66699 12 2.66699Z" fill="#798086"/>
<path fill-rule="evenodd" clip-rule="evenodd" d="M6.66667 10.667C7.40305 10.667 8 11.2639 8 12.0003C8 12.7657 8.53594 13.708 9.94295 14.5482C11.3186 15.3698 13.3179 15.9439 15.6327 16.0007C16.3689 16.0188 16.951 16.6302 16.9329 17.3664C16.9149 18.1025 16.3034 18.6847 15.5673 18.6666C12.8848 18.6007 10.4174 17.9375 8.57571 16.8377C6.76539 15.7566 5.33333 14.0937 5.33333 12.0003C5.33333 11.2639 5.93029 10.667 6.66667 10.667Z" fill="#798086"/>
<path fill-rule="evenodd" clip-rule="evenodd" d="M21.3333 13.3337C21.8603 13.3337 22.3377 13.644 22.5517 14.1255L27.8851 26.1255C28.1842 26.7984 27.8811 27.5863 27.2082 27.8854C26.5353 28.1845 25.7473 27.8814 25.4483 27.2085L21.3333 17.9499L17.2184 27.2085C16.9193 27.8814 16.1314 28.1845 15.4585 27.8854C14.7856 27.5863 14.4825 26.7984 14.7816 26.1255L20.1149 14.1255C20.3289 13.644 20.8064 13.3337 21.3333 13.3337Z" fill="#798086"/>
<path fill-rule="evenodd" clip-rule="evenodd" d="M15.8667 24.0003C15.8667 23.2639 16.4637 22.667 17.2 22.667H25.4667C26.2031 22.667 26.8 23.2639 26.8 24.0003C26.8 24.7367 26.2031 25.3337 25.4667 25.3337H17.2C16.4637 25.3337 15.8667 24.7367 15.8667 24.0003Z" fill="#798086"/>
</g>
</g>
</svg>
