<svg width="32" height="32" viewBox="0 0 32 32" fill="none" xmlns="http://www.w3.org/2000/svg">
<g id="icon">
<path id="Vector (Stroke)" fill-rule="evenodd" clip-rule="evenodd" d="M9.33325 15.9997C8.97963 15.9997 8.64049 16.1402 8.39044 16.3902C8.14039 16.6402 7.99992 16.9794 7.99992 17.333V25.333C7.99992 25.6866 8.14039 26.0258 8.39044 26.2758C8.64049 26.5259 8.97963 26.6663 9.33325 26.6663H22.6666C23.0202 26.6663 23.3593 26.5259 23.6094 26.2758C23.8594 26.0258 23.9999 25.6866 23.9999 25.333V17.333C23.9999 16.9794 23.8594 16.6402 23.6094 16.3902C23.3593 16.1402 23.0202 15.9997 22.6666 15.9997H9.33325ZM6.50482 14.5046C7.25497 13.7544 8.27239 13.333 9.33325 13.333H22.6666C23.7275 13.333 24.7449 13.7544 25.495 14.5046C26.2452 15.2547 26.6666 16.2721 26.6666 17.333V25.333C26.6666 26.3939 26.2452 27.4113 25.495 28.1614C24.7449 28.9116 23.7275 29.333 22.6666 29.333H9.33325C8.27239 29.333 7.25497 28.9116 6.50482 28.1614C5.75468 27.4113 5.33325 26.3939 5.33325 25.333V17.333C5.33325 16.2721 5.75468 15.2547 6.50482 14.5046Z" fill="#798086"/>
<path id="Vector (Stroke)_2" fill-rule="evenodd" clip-rule="evenodd" d="M14.1143 19.448C14.6144 18.9479 15.2927 18.667 15.9999 18.667C16.7072 18.667 17.3854 18.9479 17.8855 19.448C18.3856 19.9481 18.6666 20.6264 18.6666 21.3337C18.6666 22.0409 18.3856 22.7192 17.8855 23.2193C17.3854 23.7194 16.7072 24.0003 15.9999 24.0003C15.2927 24.0003 14.6144 23.7194 14.1143 23.2193C13.6142 22.7192 13.3333 22.0409 13.3333 21.3337C13.3333 20.6264 13.6142 19.9481 14.1143 19.448Z" fill="#798086"/>
<path id="Vector (Stroke)_3" fill-rule="evenodd" clip-rule="evenodd" d="M15.9999 5.33366C14.9391 5.33366 13.9216 5.75509 13.1715 6.50523C12.4213 7.25538 11.9999 8.27279 11.9999 9.33366V14.667C11.9999 15.4034 11.403 16.0003 10.6666 16.0003C9.93021 16.0003 9.33325 15.4034 9.33325 14.667V9.33366C9.33325 7.56555 10.0356 5.86986 11.2859 4.61961C12.5361 3.36937 14.2318 2.66699 15.9999 2.66699C17.768 2.66699 19.4637 3.36937 20.714 4.61961C21.9642 5.86986 22.6666 7.56555 22.6666 9.33366V14.667C22.6666 15.4034 22.0696 16.0003 21.3333 16.0003C20.5969 16.0003 19.9999 15.4034 19.9999 14.667V9.33366C19.9999 8.27279 19.5785 7.25538 18.8283 6.50523C18.0782 5.75509 17.0608 5.33366 15.9999 5.33366Z" fill="#798086"/>
</g>
</svg>
