<svg width="32" height="32" viewBox="0 0 32 32" fill="none" xmlns="http://www.w3.org/2000/svg">
<g id="icon">
<path id="Vector (Stroke)" fill-rule="evenodd" clip-rule="evenodd" d="M6.66675 6.66667C6.31313 6.66667 5.97399 6.80714 5.72394 7.05719C5.48196 7.29917 5.34259 7.62459 5.33385 7.96582C5.64051 12.8244 7.70887 17.405 11.152 20.8481C14.5951 24.2912 19.1757 26.3596 24.0343 26.6662C24.3755 26.6575 24.7009 26.5181 24.9429 26.2761C25.1929 26.0261 25.3334 25.687 25.3334 25.3333V20.9027L20.5592 18.993L19.1434 21.3527C18.7864 21.9477 18.0327 22.1694 17.4103 21.8625C14.2517 20.3047 11.6954 17.7483 10.1376 14.5898C9.83067 13.9674 10.0524 13.2137 10.6474 12.8567L13.0071 11.4409L11.0974 6.66667H6.66675ZM3.83832 5.17157C4.58847 4.42143 5.60588 4 6.66675 4H12.0001C12.5453 4 13.0356 4.33193 13.2381 4.83815L15.9047 11.5048C16.1478 12.1124 15.9139 12.8066 15.3527 13.1433L13.1207 14.4825C14.2192 16.274 15.7261 17.7809 17.5176 18.8793L18.8568 16.6473C19.1935 16.0862 19.8876 15.8523 20.4953 16.0954L27.1619 18.762C27.6681 18.9645 28.0001 19.4548 28.0001 20V25.3333C28.0001 26.3942 27.5787 27.4116 26.8285 28.1618C26.0784 28.9119 25.0609 29.3333 24.0001 29.3333C23.9731 29.3333 23.9461 29.3325 23.9192 29.3309C18.3932 28.9951 13.1811 26.6484 9.26638 22.7337C5.35167 18.819 3.00502 13.6069 2.6692 8.08088C2.66757 8.05395 2.66675 8.02698 2.66675 8C2.66675 6.93913 3.08818 5.92172 3.83832 5.17157Z" fill="#798086"/>
</g>
</svg>
