<svg width="16" height="16" viewBox="0 0 16 16" fill="none" xmlns="http://www.w3.org/2000/svg">
<g id="icon">
<path id="Vector" d="M8.00004 1.11328C8.63671 1.11328 9.23004 1.42461 9.59338 1.94461L9.66338 2.05128L15.0727 11.0833C15.2371 11.368 15.3265 11.6898 15.3327 12.0185C15.3388 12.3472 15.2614 12.6721 15.1077 12.9627C14.954 13.2534 14.7291 13.5003 14.454 13.6803C14.1789 13.8603 13.8626 13.9675 13.5347 13.9919L13.4047 13.9973H2.58804C2.25985 13.9936 1.93793 13.9068 1.65236 13.745C1.36678 13.5832 1.12685 13.3517 0.954955 13.0721C0.783063 12.7925 0.684816 12.4739 0.669385 12.1461C0.653954 11.8182 0.721841 11.4918 0.86671 11.1973L0.93271 11.0739L6.33938 2.04861C6.51249 1.76316 6.75624 1.52713 7.04712 1.36329C7.338 1.19946 7.6662 1.11335 8.00004 1.11328ZM8.00671 9.99995L7.92204 10.0046C7.76001 10.0239 7.61067 10.1019 7.50232 10.2239C7.39396 10.3459 7.33412 10.5034 7.33412 10.6666C7.33412 10.8298 7.39396 10.9873 7.50232 11.1093C7.61067 11.2313 7.76001 11.3093 7.92204 11.3286L8.00004 11.3333L8.08471 11.3286C8.24674 11.3093 8.39608 11.2313 8.50443 11.1093C8.61279 10.9873 8.67263 10.8298 8.67263 10.6666C8.67263 10.5034 8.61279 10.3459 8.50443 10.2239C8.39608 10.1019 8.24674 10.0239 8.08471 10.0046L8.00671 9.99995ZM8.00004 5.33328C7.83675 5.3333 7.67915 5.39325 7.55713 5.50176C7.4351 5.61026 7.35715 5.75978 7.33804 5.92195L7.33338 5.99995V8.66661L7.33804 8.74461C7.35732 8.90665 7.43535 9.05598 7.55735 9.16434C7.67936 9.27269 7.83687 9.33254 8.00004 9.33254C8.16322 9.33254 8.32073 9.27269 8.44273 9.16434C8.56474 9.05598 8.64277 8.90665 8.66204 8.74461L8.66671 8.66661V5.99995L8.66204 5.92195C8.64294 5.75978 8.56498 5.61026 8.44296 5.50176C8.32093 5.39325 8.16333 5.3333 8.00004 5.33328Z" fill="#F25F5C"/>
</g>
</svg>
