<svg width="32" height="32" viewBox="0 0 32 32" fill="none" xmlns="http://www.w3.org/2000/svg">
<g id="icon">
<path id="Vector (Stroke)" fill-rule="evenodd" clip-rule="evenodd" d="M8.66675 5.33366C8.31313 5.33366 7.97399 5.47413 7.72394 5.72418C7.47389 5.97423 7.33341 6.31337 7.33341 6.66699V25.3337C7.33341 25.6873 7.47389 26.0264 7.72394 26.2765C7.97399 26.5265 8.31313 26.667 8.66675 26.667H20.6667C21.4031 26.667 22.0001 27.2639 22.0001 28.0003C22.0001 28.7367 21.4031 29.3337 20.6667 29.3337H8.66675C7.60588 29.3337 6.58847 28.9122 5.83832 28.1621C5.08818 27.4119 4.66675 26.3945 4.66675 25.3337V6.66699C4.66675 5.60613 5.08818 4.58871 5.83832 3.83856C6.58847 3.08842 7.60588 2.66699 8.66675 2.66699H24.6667C25.7276 2.66699 26.745 3.08842 27.4952 3.83856C28.2453 4.58871 28.6667 5.60613 28.6667 6.66699V14.667C28.6667 15.4034 28.0698 16.0003 27.3334 16.0003C26.597 16.0003 26.0001 15.4034 26.0001 14.667V6.66699C26.0001 6.31337 25.8596 5.97423 25.6096 5.72418C25.3595 5.47413 25.0204 5.33366 24.6667 5.33366H8.66675Z" fill="#798086"/>
<path id="Vector (Stroke)_2" fill-rule="evenodd" clip-rule="evenodd" d="M11.3333 24.0003C11.3333 23.2639 11.9302 22.667 12.6666 22.667H19.3333C20.0696 22.667 20.6666 23.2639 20.6666 24.0003C20.6666 24.7367 20.0696 25.3337 19.3333 25.3337H12.6666C11.9302 25.3337 11.3333 24.7367 11.3333 24.0003Z" fill="#798086"/>
<path id="Vector (Stroke)_3" fill-rule="evenodd" clip-rule="evenodd" d="M26.0001 28C26.7365 28 27.3334 28.597 27.3334 29.3333V29.3467C27.3334 30.083 26.7365 30.68 26.0001 30.68C25.2637 30.68 24.6667 30.083 24.6667 29.3467V29.3333C24.6667 28.597 25.2637 28 26.0001 28Z" fill="#798086"/>
<path id="Vector (Stroke)_4" fill-rule="evenodd" clip-rule="evenodd" d="M25.2356 18.7442C26.1151 18.5682 27.0283 18.695 27.8267 19.104L27.8315 19.1064L27.8315 19.1064C28.6274 19.5182 29.2622 20.1851 29.6342 21.0004C30.0063 21.8157 30.0941 22.7322 29.8835 23.6033C29.673 24.4743 29.1764 25.2496 28.4731 25.805C27.7698 26.3604 26.9005 26.6638 26.0044 26.6667C25.268 26.669 24.6691 26.074 24.6668 25.3376C24.6644 24.6012 25.2595 24.0024 25.9959 24C26.2952 23.9991 26.5855 23.8977 26.8204 23.7122C27.0553 23.5267 27.2212 23.2678 27.2915 22.9768C27.3618 22.6859 27.3325 22.3798 27.2082 22.1075C27.0843 21.836 26.8732 21.6138 26.6085 21.4762C26.3465 21.3426 26.0471 21.3014 25.7588 21.3591C25.4695 21.4169 25.2084 21.571 25.0178 21.7961C24.542 22.3582 23.7007 22.4281 23.1387 21.9524C22.5766 21.4766 22.5067 20.6353 22.9824 20.0732C23.5619 19.3886 24.3561 18.9202 25.2356 18.7442Z" fill="#798086"/>
</g>
</svg>
