<svg width="32" height="32" viewBox="0 0 32 32" fill="none" xmlns="http://www.w3.org/2000/svg">
<g id="icon">
<path id="Vector (Stroke)" fill-rule="evenodd" clip-rule="evenodd" d="M5.17157 7.83856C5.92172 7.08842 6.93913 6.66699 8 6.66699H16C16.7364 6.66699 17.3333 7.26395 17.3333 8.00033C17.3333 8.73671 16.7364 9.33366 16 9.33366H8C7.64638 9.33366 7.30724 9.47413 7.05719 9.72418C6.80714 9.97423 6.66667 10.3134 6.66667 10.667V24.0003C6.66667 24.3539 6.80714 24.6931 7.05719 24.9431C7.30724 25.1932 7.64638 25.3337 8 25.3337H21.3333C21.687 25.3337 22.0261 25.1932 22.2761 24.9431C22.5262 24.6931 22.6667 24.3539 22.6667 24.0003V16.0003C22.6667 15.2639 23.2636 14.667 24 14.667C24.7364 14.667 25.3333 15.2639 25.3333 16.0003V24.0003C25.3333 25.0612 24.9119 26.0786 24.1618 26.8288C23.4116 27.5789 22.3942 28.0003 21.3333 28.0003H8C6.93913 28.0003 5.92172 27.5789 5.17157 26.8288C4.42143 26.0786 4 25.0612 4 24.0003V10.667C4 9.60613 4.42143 8.58871 5.17157 7.83856Z" fill="#2EC4B6"/>
<path id="Vector (Stroke)_2" fill-rule="evenodd" clip-rule="evenodd" d="M27.6094 4.39052C28.1301 4.91122 28.1301 5.75544 27.6094 6.27614L15.6094 18.2761C15.0887 18.7968 14.2445 18.7968 13.7238 18.2761C13.2031 17.7554 13.2031 16.9112 13.7238 16.3905L25.7238 4.39052C26.2445 3.86983 27.0887 3.86983 27.6094 4.39052Z" fill="#2EC4B6"/>
<path id="Vector (Stroke)_3" fill-rule="evenodd" clip-rule="evenodd" d="M18.6667 5.33333C18.6667 4.59695 19.2637 4 20.0001 4H26.6667C27.4031 4 28.0001 4.59695 28.0001 5.33333V12C28.0001 12.7364 27.4031 13.3333 26.6667 13.3333C25.9304 13.3333 25.3334 12.7364 25.3334 12V6.66667H20.0001C19.2637 6.66667 18.6667 6.06971 18.6667 5.33333Z" fill="#2EC4B6"/>
</g>
</svg>
