<svg width="32" height="32" viewBox="0 0 32 32" fill="none" xmlns="http://www.w3.org/2000/svg">
<g id="icon">
<path id="Vector (Stroke)" fill-rule="evenodd" clip-rule="evenodd" d="M9.33325 12.0003C9.33325 11.2639 9.93021 10.667 10.6666 10.667H21.3333C22.0696 10.667 22.6666 11.2639 22.6666 12.0003C22.6666 12.7367 22.0696 13.3337 21.3333 13.3337H10.6666C9.93021 13.3337 9.33325 12.7367 9.33325 12.0003Z" fill="#798086"/>
<path id="Vector (Stroke)_2" fill-rule="evenodd" clip-rule="evenodd" d="M9.33325 17.3333C9.33325 16.597 9.93021 16 10.6666 16H18.6666C19.403 16 19.9999 16.597 19.9999 17.3333C19.9999 18.0697 19.403 18.6667 18.6666 18.6667H10.6666C9.93021 18.6667 9.33325 18.0697 9.33325 17.3333Z" fill="#798086"/>
<path id="Vector (Stroke)_3" fill-rule="evenodd" clip-rule="evenodd" d="M8.00008 6.66667C7.29284 6.66667 6.61456 6.94762 6.11446 7.44772C5.61437 7.94781 5.33341 8.62609 5.33341 9.33333V20C5.33341 20.7072 5.61437 21.3855 6.11446 21.8856C6.61456 22.3857 7.29284 22.6667 8.00008 22.6667H10.6667C11.4031 22.6667 12.0001 23.2636 12.0001 24V25.6451L13.9674 24.4647C14.5989 24.0858 15.4179 24.2906 15.7967 24.922C16.1756 25.5534 15.9708 26.3725 15.3394 26.7513L11.3527 29.1433C10.9408 29.3905 10.4278 29.3969 10.0098 29.1603C9.5918 28.9236 9.33342 28.4804 9.33342 28V25.3333H8.00008C6.58559 25.3333 5.22904 24.7714 4.22885 23.7712C3.22865 22.771 2.66675 21.4145 2.66675 20V9.33333C2.66675 7.91885 3.22865 6.56229 4.22885 5.5621C5.22904 4.5619 6.58559 4 8.00008 4H24.0001C25.4146 4 26.7711 4.5619 27.7713 5.5621C28.7715 6.56229 29.3334 7.91885 29.3334 9.33333V17.3333C29.3334 18.0697 28.7365 18.6667 28.0001 18.6667C27.2637 18.6667 26.6667 18.0697 26.6667 17.3333V9.33333C26.6667 8.62609 26.3858 7.94781 25.8857 7.44772C25.3856 6.94762 24.7073 6.66667 24.0001 6.66667H8.00008Z" fill="#798086"/>
<path id="Vector (Stroke)_4" fill-rule="evenodd" clip-rule="evenodd" d="M28.9429 21.7235C29.4636 22.2442 29.4636 23.0885 28.9429 23.6092L23.6096 28.9425C23.0889 29.4632 22.2446 29.4632 21.7239 28.9425L19.0573 26.2758C18.5366 25.7551 18.5366 24.9109 19.0573 24.3902C19.578 23.8695 20.4222 23.8695 20.9429 24.3902L22.6667 26.1141L27.0573 21.7235C27.578 21.2028 28.4222 21.2028 28.9429 21.7235Z" fill="#798086"/>
</g>
</svg>
