<svg width="32" height="32" viewBox="0 0 32 32" fill="none" xmlns="http://www.w3.org/2000/svg">
<g id="icon">
<path id="Vector (Stroke)" fill-rule="evenodd" clip-rule="evenodd" d="M15.9999 4.00065C15.8128 4.00065 15.6277 4.03865 15.4558 4.11233L8.02563 7.29554C8.02539 7.29564 8.02586 7.29544 8.02563 7.29554C7.69745 7.43698 7.4368 7.69807 7.29725 8.02308C7.29722 8.02316 7.29728 8.02301 7.29725 8.02308L4.11211 15.456C4.03842 15.6279 4.00041 15.8131 4.00041 16.0001C4.00041 16.1872 4.0384 16.3723 4.11209 16.5443L7.29615 23.9764C7.43588 24.3027 7.6959 24.5627 8.02216 24.7025L15.4557 27.8879C15.8023 28.0368 16.1962 28.0374 16.5428 27.8884L23.9742 24.7047C23.9747 24.7045 23.9752 24.7043 23.9757 24.7041C24.3033 24.5626 24.5629 24.3022 24.7023 23.9776M24.7023 23.9776L27.8877 16.5443C28.0366 16.1977 28.0371 15.8038 27.8882 15.4572L24.7045 8.02587C24.7043 8.02535 24.704 8.02484 24.7038 8.02432C24.5624 7.69669 24.3019 7.43716 23.9774 7.29768L16.5441 4.11235C16.3721 4.03866 16.187 4.00065 15.9999 4.00065M14.4055 1.66121C14.9093 1.44531 15.4518 1.33398 15.9999 1.33398C16.5481 1.33398 17.0905 1.44532 17.5944 1.66125C17.5944 1.66125 17.5944 1.66126 17.5944 1.66125L25.0277 4.84658C25.9824 5.25629 26.7434 6.01765 27.154 6.97173L27.1548 6.97373L30.3383 14.4044C30.3381 14.404 30.3384 14.4048 30.3383 14.4044C30.3383 14.4045 30.3388 14.4057 30.3388 14.4057C30.7758 15.4238 30.7758 16.5767 30.3388 17.5947C30.3386 17.5951 30.3389 17.5943 30.3388 17.5947L27.1534 25.028C26.7437 25.9826 25.9824 26.7436 25.0283 27.1542L25.0263 27.1551L17.5956 30.3385C17.5952 30.3387 17.596 30.3383 17.5956 30.3385C17.5956 30.3385 17.5943 30.339 17.5943 30.3391C16.5763 30.7761 15.4234 30.776 14.4054 30.339C14.405 30.3388 14.4057 30.3392 14.4054 30.339L6.97229 27.1538C6.97221 27.1538 6.97237 27.1538 6.97229 27.1538C6.01635 26.7443 5.25443 25.9825 4.84496 25.0265M4.84496 25.0265L1.66102 17.5947C1.661 17.5946 1.66105 17.5947 1.66102 17.5947C1.44513 17.0909 1.33374 16.5483 1.33374 16.0001C1.33374 15.452 1.44508 14.9095 1.66101 14.4056C1.661 14.4056 1.66101 14.4056 1.66101 14.4056L4.84634 6.9723C5.25604 6.01765 6.0174 5.25666 6.97149 4.84607L14.4055 1.66121C14.4054 1.66123 14.4055 1.66118 14.4055 1.66121" fill="#798086"/>
<path id="Vector (Stroke)_2" fill-rule="evenodd" clip-rule="evenodd" d="M16.0001 20C16.7365 20 17.3334 20.597 17.3334 21.3333V21.3467C17.3334 22.083 16.7365 22.68 16.0001 22.68C15.2637 22.68 14.6667 22.083 14.6667 21.3467V21.3333C14.6667 20.597 15.2637 20 16.0001 20Z" fill="#798086"/>
<path id="Vector (Stroke)_3" fill-rule="evenodd" clip-rule="evenodd" d="M15.2356 10.7442C16.1147 10.5683 17.0274 10.6949 17.8254 11.1033C18.6262 11.5118 19.2662 12.1781 19.642 12.9948C20.0179 13.812 20.1075 14.732 19.8962 15.6063C19.6849 16.4807 19.1851 17.2583 18.4774 17.8135C17.7698 18.3688 16.8956 18.6694 15.9961 18.6667C15.2597 18.6645 14.6646 18.0657 14.6668 17.3293C14.669 16.593 15.2677 15.9978 16.0041 16C16.304 16.0009 16.5953 15.9007 16.8312 15.7156C17.0671 15.5305 17.2337 15.2713 17.3041 14.9799C17.3746 14.6885 17.3447 14.3818 17.2194 14.1094C17.0941 13.837 16.8806 13.6148 16.6135 13.4787L16.6109 13.4774L16.6109 13.4774C16.3483 13.3429 16.048 13.3012 15.7588 13.3591C15.4695 13.4169 15.2084 13.571 15.0178 13.7961C14.542 14.3582 13.7007 14.4281 13.1387 13.9524C12.5766 13.4766 12.5067 12.6353 12.9824 12.0732C13.5619 11.3886 14.3561 10.9202 15.2356 10.7442Z" fill="#798086"/>
</g>
</svg>
