<svg width="32" height="32" viewBox="0 0 32 32" fill="none" xmlns="http://www.w3.org/2000/svg">
<g id="icon">
<path id="Vector (Stroke)" fill-rule="evenodd" clip-rule="evenodd" d="M15.9906 1.33594C16.4981 1.33594 16.9616 1.62407 17.1862 2.07919L20.9905 9.78764L29.4965 11.0204C29.999 11.0932 30.4165 11.4452 30.5734 11.9281C30.7302 12.4111 30.5991 12.9412 30.2353 13.2954L24.0713 19.2953L25.5247 27.7678C25.6106 28.2683 25.4047 28.7741 24.9938 29.0723C24.5829 29.3706 24.0382 29.4096 23.589 29.1728L15.9992 25.1734L8.39105 29.1734C7.94182 29.4096 7.39746 29.3703 6.98685 29.072C6.57625 28.7736 6.37062 28.2681 6.45643 27.7678L7.90981 19.2953L1.74589 13.2954C1.38202 12.9412 1.25092 12.4111 1.40776 11.9281C1.56459 11.4452 1.98213 11.0932 2.48466 11.0204L10.9906 9.78764L14.7949 2.07919C15.0195 1.62407 15.483 1.33594 15.9906 1.33594ZM15.9906 5.68204L13.0716 11.5967C12.8773 11.9904 12.5016 12.2632 12.0671 12.3262L5.54445 13.2715L10.2726 17.8738C10.5873 18.1802 10.731 18.6218 10.6567 19.0547L9.5415 25.5558L15.3794 22.4864C15.7683 22.282 16.2328 22.2822 16.6215 22.487L22.4391 25.5527L21.3244 19.0547C21.2502 18.6218 21.3938 18.1802 21.7086 17.8738L26.4367 13.2715L19.914 12.3262C19.4795 12.2632 19.1039 11.9904 18.9096 11.5967L15.9906 5.68204Z" fill="#798086"/>
</g>
</svg>
