<svg width="32" height="32" viewBox="0 0 32 32" fill="none" xmlns="http://www.w3.org/2000/svg">
<g id="icon">
<path id="Vector (Stroke)" fill-rule="evenodd" clip-rule="evenodd" d="M9.33341 17.3334V18.6667H8.00008C7.2637 18.6667 6.66675 19.2637 6.66675 20.0001V21.3334H5.33341C4.97979 21.3334 4.64065 21.4739 4.39061 21.7239L3.83861 22.2759C3.82473 22.2898 3.81116 22.304 3.79791 22.3185L3.63924 22.4918C3.62609 22.5062 3.61326 22.5208 3.60075 22.5357C2.99762 23.2556 2.66698 24.165 2.66675 25.1041V26.6667C2.66675 26.6933 2.66754 26.7198 2.66913 26.7464L2.67846 26.9024C2.67999 26.9279 2.68225 26.9533 2.68524 26.9787C2.76166 27.6274 3.07349 28.2255 3.56158 28.6595C4.04967 29.0935 4.68026 29.3333 5.33341 29.3334H6.89608C6.91638 29.3334 6.93668 29.3329 6.95697 29.332L7.1903 29.3213C7.20894 29.3205 7.22756 29.3192 7.24615 29.3176C8.1823 29.2353 9.05967 28.826 9.72422 28.1615L17.5657 20.3201C17.9035 20.5698 18.2712 20.7781 18.661 20.9396C19.2882 21.1994 19.9605 21.3331 20.6394 21.3331C21.3183 21.3331 21.9906 21.1994 22.6178 20.9396C23.245 20.6798 23.8149 20.2989 24.2949 19.8189L27.8189 16.2949C28.299 15.8149 28.6798 15.245 28.9396 14.6178C29.1994 13.9906 29.3332 13.3183 29.3332 12.6394C29.3332 11.9605 29.1994 11.2882 28.9396 10.661C28.6798 10.0338 28.299 9.46394 27.8189 8.98393L23.0162 4.18126C22.5362 3.70119 21.9663 3.32038 21.3391 3.06056C20.7119 2.80073 20.0397 2.66699 19.3607 2.66699C18.6818 2.66699 18.0096 2.80073 17.3824 3.06056C16.7552 3.32038 16.1852 3.70126 15.7052 4.18133L12.1813 7.70526C11.7012 8.18527 11.3204 8.75514 11.0606 9.38234C10.8007 10.0096 10.667 10.6818 10.667 11.3607C10.667 11.8399 10.7336 12.3158 10.8642 12.7748C10.9186 12.9662 10.9841 13.1546 11.0606 13.3391C11.2221 13.729 11.4303 14.0967 11.6801 14.4344L9.99526 16.1193L9.72394 16.3906C9.47389 16.6406 9.33341 16.9798 9.33341 17.3334ZM17.591 6.06681C17.6586 5.99915 17.7299 5.93557 17.8046 5.87632L19.4662 5.33588C19.7589 5.34823 20.0474 5.41187 20.3186 5.5242C20.6222 5.64999 20.8982 5.83444 21.1306 6.06688L25.9333 10.8696C26.1658 11.102 26.3502 11.3779 26.476 11.6816C26.6017 11.9852 26.6665 12.3107 26.6665 12.6394C26.6665 12.9681 26.6017 13.2936 26.476 13.5972C26.3502 13.9009 26.1657 14.1769 25.9333 14.4093L22.4092 17.9333C22.1768 18.1658 21.9009 18.3501 21.5972 18.4759C21.2936 18.6017 20.9681 18.6665 20.6394 18.6665C20.3107 18.6665 19.9853 18.6017 19.6816 18.4759C19.3779 18.3501 19.102 18.1657 18.8696 17.9333L18.4682 17.5319C17.9475 17.0112 17.1033 17.0112 16.5826 17.5319L15.0106 19.1039L7.83861 26.2759C7.62256 26.4919 7.33908 26.627 7.03575 26.659L6.86563 26.6667H5.3358L5.33341 26.6269V25.1041C5.33356 24.7992 5.43816 24.5039 5.62937 24.2671L5.74503 24.1407L5.8857 24.0001H8.00008C8.73646 24.0001 9.33341 23.4031 9.33341 22.6667V21.3334H10.6667C11.4031 21.3334 12.0001 20.7364 12.0001 20.0001V18.8721V17.8857L14.4682 15.4175C14.9889 14.8968 14.9889 14.0526 14.4682 13.5319L14.0668 13.1305C13.8344 12.8981 13.65 12.6222 13.5242 12.3186C13.3984 12.0149 13.3337 11.6894 13.3337 11.3607C13.3337 11.032 13.3984 10.7066 13.5242 10.4029C13.65 10.0993 13.8345 9.82328 14.0669 9.59088L17.591 6.06681Z" fill="#798086"/>
<path id="Vector (Stroke)_2" d="M18.6667 12.0003C18.6667 11.2639 19.2637 10.667 20.0001 10.667H20.0134C20.7498 10.667 21.3467 11.2639 21.3467 12.0003C21.3467 12.7367 20.7498 13.3337 20.0134 13.3337H20.0001C19.2637 13.3337 18.6667 12.7367 18.6667 12.0003Z" fill="#798086"/>
</g>
</svg>
