<svg width="32" height="32" viewBox="0 0 32 32" fill="none" xmlns="http://www.w3.org/2000/svg">
<g id="icon">
<path id="Vector (Stroke)" fill-rule="evenodd" clip-rule="evenodd" d="M15.9999 5.33366C15.6463 5.33366 15.3071 5.47413 15.0571 5.72418C14.807 5.97423 14.6665 6.31337 14.6665 6.66699C14.6665 7.18258 14.3693 7.65196 13.9032 7.87236C12.5907 8.49297 11.4719 9.45902 10.6665 10.667C9.86679 11.8666 9.4062 13.2599 9.33321 14.6995V18.667C9.33321 18.7205 9.32998 18.7741 9.32355 18.8272C9.21655 19.7112 8.93375 20.5632 8.4935 21.3337H15.9999C16.7363 21.3337 17.3332 21.9306 17.3332 22.667C17.3332 23.4034 16.7363 24.0003 15.9999 24.0003H5.33321C4.72767 24.0003 4.19816 23.5923 4.04388 23.0067C3.8896 22.4211 4.14928 21.8052 4.67621 21.5068C5.22115 21.1982 5.68602 20.766 6.03339 20.2449C6.36696 19.7445 6.58324 19.1757 6.66654 18.5808V14.667C6.66654 14.6461 6.66703 14.6253 6.66801 14.6045C6.75877 12.6709 7.37399 10.7984 8.44774 9.18779C9.38169 7.78687 10.6319 6.62997 12.0932 5.80795C12.256 5.06778 12.6272 4.38283 13.1715 3.83856C13.9216 3.08842 14.939 2.66699 15.9999 2.66699C17.0607 2.66699 18.0782 3.08842 18.8283 3.83856C19.3726 4.38283 19.7438 5.06778 19.9066 5.80795C21.3678 6.62997 22.6181 7.78687 23.552 9.18779C24.6258 10.7984 25.241 12.6709 25.3317 14.6045C25.3327 14.6253 25.3332 14.6461 25.3332 14.667V15.3337C25.3332 16.07 24.7363 16.667 23.9999 16.667C23.2635 16.667 22.6665 16.07 22.6665 15.3337V14.6995C22.5936 13.2599 22.133 11.8666 21.3332 10.667C20.5279 9.45902 19.409 8.49297 18.0966 7.87236C17.6305 7.65196 17.3332 7.18258 17.3332 6.66699C17.3332 6.31337 17.1927 5.97423 16.9427 5.72418C16.6926 5.47413 16.3535 5.33366 15.9999 5.33366Z" fill="#798086"/>
<path id="Vector (Stroke)_2" fill-rule="evenodd" clip-rule="evenodd" d="M22.5063 22.5046C23.2564 21.7544 24.2738 21.333 25.3347 21.333C26.3956 21.333 27.413 21.7544 28.1631 22.5046C28.9133 23.2547 29.3347 24.2721 29.3347 25.333C29.3347 26.3939 28.9133 27.4113 28.1631 28.1614C27.413 28.9116 26.3956 29.333 25.3347 29.333C24.2738 29.333 23.2564 28.9116 22.5063 28.1614C21.7561 27.4113 21.3347 26.3939 21.3347 25.333C21.3347 24.2721 21.7561 23.2547 22.5063 22.5046ZM25.3347 23.9997C24.9811 23.9997 24.642 24.1402 24.3919 24.3902C24.1419 24.6402 24.0014 24.9794 24.0014 25.333C24.0014 25.6866 24.1419 26.0258 24.3919 26.2758C24.642 26.5259 24.9811 26.6663 25.3347 26.6663C25.6883 26.6663 26.0275 26.5259 26.2775 26.2758C26.5276 26.0258 26.6681 25.6866 26.6681 25.333C26.6681 24.9794 26.5276 24.6402 26.2775 24.3902C26.0275 24.1402 25.6883 23.9997 25.3347 23.9997Z" fill="#798086"/>
<path id="Vector (Stroke)_3" fill-rule="evenodd" clip-rule="evenodd" d="M25.3346 19.333C26.0709 19.333 26.6679 19.93 26.6679 20.6663V22.6663C26.6679 23.4027 26.0709 23.9997 25.3346 23.9997C24.5982 23.9997 24.0012 23.4027 24.0012 22.6663V20.6663C24.0012 19.93 24.5982 19.333 25.3346 19.333Z" fill="#798086"/>
<path id="Vector (Stroke)_4" fill-rule="evenodd" clip-rule="evenodd" d="M25.3346 26.667C26.0709 26.667 26.6679 27.2639 26.6679 28.0003V30.0003C26.6679 30.7367 26.0709 31.3337 25.3346 31.3337C24.5982 31.3337 24.0012 30.7367 24.0012 30.0003V28.0003C24.0012 27.2639 24.5982 26.667 25.3346 26.667Z" fill="#798086"/>
<path id="Vector (Stroke)_5" fill-rule="evenodd" clip-rule="evenodd" d="M30.5308 22.3329C30.899 22.9706 30.6805 23.7861 30.0428 24.1543L28.3108 25.1543C27.6731 25.5225 26.8576 25.304 26.4894 24.6663C26.1212 24.0285 26.3397 23.2131 26.9774 22.8449L28.7094 21.8449C29.3471 21.4767 30.1626 21.6952 30.5308 22.3329Z" fill="#798086"/>
<path id="Vector (Stroke)_6" fill-rule="evenodd" clip-rule="evenodd" d="M24.1815 26.0003C24.5495 26.6381 24.3307 27.4535 23.6929 27.8215L21.9596 28.8215C21.3217 29.1895 20.5063 28.9707 20.1384 28.3329C19.7704 27.695 19.9891 26.8796 20.627 26.5116L22.3603 25.5117C22.9982 25.1437 23.8135 25.3624 24.1815 26.0003Z" fill="#798086"/>
<path id="Vector (Stroke)_7" fill-rule="evenodd" clip-rule="evenodd" d="M20.1384 22.3333C20.5063 21.6954 21.3217 21.4767 21.9596 21.8447L23.6929 22.8447C24.3307 23.2126 24.5495 24.028 24.1815 24.6659C23.8135 25.3037 22.9982 25.5225 22.3603 25.1545L20.627 24.1545C19.9891 23.7865 19.7704 22.9711 20.1384 22.3333Z" fill="#798086"/>
<path id="Vector (Stroke)_8" fill-rule="evenodd" clip-rule="evenodd" d="M26.4892 26.0003C26.8572 25.3624 27.6726 25.1437 28.3104 25.5116L30.0437 26.5116C30.6816 26.8796 30.9003 27.695 30.5324 28.3329C30.1644 28.9707 29.349 29.1895 28.7111 28.8215L26.9778 27.8215C26.34 27.4535 26.1212 26.6381 26.4892 26.0003Z" fill="#798086"/>
<path id="Vector (Stroke)_9" fill-rule="evenodd" clip-rule="evenodd" d="M12.0001 21.333C12.7365 21.333 13.3334 21.93 13.3334 22.6663V23.9997C13.3334 24.7069 13.6144 25.3852 14.1145 25.8853C14.6146 26.3854 15.2928 26.6663 16.0001 26.6663C16.7365 26.6663 17.3334 27.2633 17.3334 27.9997C17.3334 28.7361 16.7365 29.333 16.0001 29.333C14.5856 29.333 13.229 28.7711 12.2288 27.7709C11.2287 26.7707 10.6667 25.4142 10.6667 23.9997V22.6663C10.6667 21.93 11.2637 21.333 12.0001 21.333Z" fill="#798086"/>
</g>
</svg>
