<svg width="32" height="32" viewBox="0 0 32 32" fill="none" xmlns="http://www.w3.org/2000/svg">
<g id="icon">
<path id="Vector (Stroke)" fill-rule="evenodd" clip-rule="evenodd" d="M15.1164 3.00172C15.6209 2.55542 16.379 2.55542 16.8834 3.00172C19.7383 5.52753 23.4644 6.84263 27.2723 6.66839C27.8859 6.64031 28.4393 7.03504 28.6125 7.62435C29.5928 10.9597 29.5475 14.5128 28.4825 17.8221C28.2569 18.5231 27.5058 18.9085 26.8048 18.6829C26.1038 18.4573 25.7184 17.7062 25.944 17.0052C26.7425 14.5241 26.8636 11.8812 26.3038 9.34785C22.5691 9.28376 18.9541 8.01414 15.9999 5.72997C13.0457 8.01415 9.43069 9.28377 5.69597 9.34785C4.94175 12.7605 5.4294 16.3433 7.09129 19.4429C8.91172 22.8381 11.9949 25.3808 15.6747 26.5214C16.3781 26.7395 16.7715 27.4864 16.5535 28.1898C16.3354 28.8931 15.5885 29.2866 14.8851 29.0685C10.5363 27.7205 6.89254 24.7155 4.74112 20.703C2.5897 16.6904 2.10342 11.9925 3.38737 7.62432C3.56058 7.03503 4.11395 6.64031 4.72754 6.66839C8.5354 6.84263 12.2615 5.52753 15.1164 3.00172Z" fill="#798086"/>
<path id="Vector (Stroke)_2" fill-rule="evenodd" clip-rule="evenodd" d="M28.9429 21.7235C29.4636 22.2442 29.4636 23.0885 28.9429 23.6092L23.6096 28.9425C23.0889 29.4632 22.2446 29.4632 21.7239 28.9425L19.0573 26.2758C18.5366 25.7551 18.5366 24.9109 19.0573 24.3902C19.578 23.8695 20.4222 23.8695 20.9429 24.3902L22.6667 26.1141L27.0573 21.7235C27.578 21.2028 28.4222 21.2028 28.9429 21.7235Z" fill="#798086"/>
</g>
</svg>
