<svg width="32" height="32" viewBox="0 0 32 32" fill="none" xmlns="http://www.w3.org/2000/svg">
<g id="icon">
<path id="Vector" d="M10.9906 9.78656L2.48393 11.0199L2.33327 11.0506C2.10518 11.1111 1.89726 11.2311 1.73072 11.3983C1.56418 11.5655 1.445 11.7739 1.38535 12.0022C1.32569 12.2305 1.3277 12.4706 1.39117 12.6979C1.45464 12.9251 1.57729 13.1315 1.7466 13.2959L7.90927 19.2946L6.45593 27.7679L6.4386 27.9146C6.42464 28.1505 6.47362 28.3858 6.58053 28.5966C6.68744 28.8073 6.84844 28.9859 7.04705 29.1139C7.24565 29.242 7.47472 29.315 7.7108 29.3254C7.94688 29.3358 8.18148 29.2833 8.3906 29.1732L15.9986 25.1732L23.5893 29.1732L23.7226 29.2346C23.9427 29.3213 24.1819 29.3478 24.4156 29.3116C24.6494 29.2753 24.8692 29.1775 25.0527 29.0283C25.2362 28.879 25.3767 28.6836 25.4597 28.4621C25.5428 28.2406 25.5654 28.001 25.5253 27.7679L24.0706 19.2946L30.2359 13.2946L30.3399 13.1812C30.4885 12.9983 30.5859 12.7792 30.6222 12.5463C30.6586 12.3134 30.6325 12.0751 30.5467 11.8555C30.4609 11.636 30.3185 11.4431 30.1339 11.2966C29.9493 11.15 29.7292 11.055 29.4959 11.0212L20.9893 9.78656L17.1866 2.0799C17.0766 1.85661 16.9062 1.66858 16.6949 1.5371C16.4835 1.40562 16.2395 1.33594 15.9906 1.33594C15.7417 1.33594 15.4977 1.40562 15.2863 1.5371C15.075 1.66858 14.9046 1.85661 14.7946 2.0799L10.9906 9.78656Z" fill="#798086"/>
</g>
</svg>
