<svg width="32" height="32" viewBox="0 0 32 32" fill="none" xmlns="http://www.w3.org/2000/svg">
<path fill-rule="evenodd" clip-rule="evenodd" d="M18.667 10.6663C18.667 9.92996 19.2639 9.33301 20.0003 9.33301H20.0137C20.75 9.33301 21.347 9.92996 21.347 10.6663C21.347 11.4027 20.75 11.9997 20.0137 11.9997H20.0003C19.2639 11.9997 18.667 11.4027 18.667 10.6663Z" fill="#202B36"/>
<path fill-rule="evenodd" clip-rule="evenodd" d="M8.00033 5.33366C7.29308 5.33366 6.6148 5.61461 6.11471 6.11471C5.61461 6.6148 5.33366 7.29308 5.33366 8.00033V24.0003C5.33366 24.7076 5.61461 25.3858 6.11471 25.8859C6.6148 26.386 7.29308 26.667 8.00033 26.667H16.667C17.4034 26.667 18.0003 27.2639 18.0003 28.0003C18.0003 28.7367 17.4034 29.3337 16.667 29.3337H8.00033C6.58584 29.3337 5.22928 28.7718 4.22909 27.7716C3.2289 26.7714 2.66699 25.4148 2.66699 24.0003V8.00033C2.66699 6.58584 3.2289 5.22928 4.22909 4.22909C5.22928 3.2289 6.58584 2.66699 8.00033 2.66699H24.0003C25.4148 2.66699 26.7714 3.2289 27.7716 4.22909C28.7718 5.22928 29.3337 6.58584 29.3337 8.00033V16.667C29.3337 17.4034 28.7367 18.0003 28.0003 18.0003C27.2639 18.0003 26.667 17.4034 26.667 16.667V8.00033C26.667 7.29308 26.386 6.6148 25.8859 6.11471C25.3858 5.61461 24.7076 5.33366 24.0003 5.33366H8.00033Z" fill="#202B36"/>
<path fill-rule="evenodd" clip-rule="evenodd" d="M11.5999 15.6195L4.94313 22.2762C4.42244 22.7969 3.57822 22.7969 3.05752 22.2762C2.53682 21.7555 2.53682 20.9113 3.05752 20.3906L9.72418 13.724L9.74248 13.706C10.5613 12.918 11.57 12.4404 12.667 12.4404C13.764 12.4404 14.7726 12.918 15.5915 13.706L15.6098 13.724L20.9431 19.0573C21.4638 19.578 21.4638 20.4222 20.9431 20.9429C20.4224 21.4636 19.5782 21.4636 19.0575 20.9429L13.7341 15.6195C13.319 15.2233 12.9494 15.1071 12.667 15.1071C12.3845 15.1071 12.0149 15.2233 11.5999 15.6195Z" fill="#202B36"/>
<path fill-rule="evenodd" clip-rule="evenodd" d="M20.9323 18.2868C21.5118 17.7342 22.0139 17.6967 22.4267 17.8568C23.1132 18.1232 23.8857 17.7826 24.1521 17.0961C24.4184 16.4095 24.0778 15.6371 23.3913 15.3707C21.8542 14.7744 20.2792 15.2157 19.0757 16.3725L19.0569 16.391L17.7235 17.7243C17.2028 18.245 17.2028 19.0892 17.7235 19.6099C18.2442 20.1306 19.0885 20.1306 19.6092 19.6099L20.9323 18.2868Z" fill="#202B36"/>
<path fill-rule="evenodd" clip-rule="evenodd" d="M20 25.3333C20 24.597 20.597 24 21.3333 24H29.3333C30.0697 24 30.6667 24.597 30.6667 25.3333C30.6667 26.0697 30.0697 26.6667 29.3333 26.6667H21.3333C20.597 26.6667 20 26.0697 20 25.3333Z" fill="#202B36"/>
<path fill-rule="evenodd" clip-rule="evenodd" d="M25.3333 20C26.0697 20 26.6667 20.597 26.6667 21.3333V29.3333C26.6667 30.0697 26.0697 30.6667 25.3333 30.6667C24.597 30.6667 24 30.0697 24 29.3333V21.3333C24 20.597 24.597 20 25.3333 20Z" fill="#202B36"/>
</svg>
