<svg width="24" height="24" viewBox="0 0 24 24" fill="none" xmlns="http://www.w3.org/2000/svg">
<g id="icon">
<path id="Vector (Stroke)" fill-rule="evenodd" clip-rule="evenodd" d="M12.0001 3C11.8598 3 11.721 3.0285 11.592 3.08376L6.0194 5.47116C6.01923 5.47124 6.01958 5.47109 6.0194 5.47116C5.77327 5.57725 5.57779 5.77306 5.47312 6.01682C5.4731 6.01688 5.47314 6.01677 5.47312 6.01682L3.08426 11.5915C3.029 11.7204 3.00049 11.8593 3.00049 11.9996C3.00049 12.1399 3.02898 12.2787 3.08425 12.4077L5.4723 17.9818C5.5771 18.2265 5.77211 18.4216 6.0168 18.5264L11.592 20.9154C11.8519 21.0271 12.1474 21.0275 12.4073 20.9158L17.9808 18.5281C17.9812 18.5279 17.9816 18.5277 17.982 18.5276C18.2277 18.4215 18.4223 18.2261 18.5269 17.9827M18.5269 17.9827L20.9159 12.4077C21.0276 12.1478 21.028 11.8523 20.9163 11.5924L18.5286 6.01891C18.5284 6.01853 18.5282 6.01814 18.528 6.01775C18.422 5.77203 18.2266 5.57738 17.9832 5.47277L12.4082 3.08377C12.2793 3.02851 12.1404 3 12.0001 3M10.8043 1.24542C11.1822 1.08349 11.589 1 12.0001 1C12.4112 1 12.8181 1.0835 13.196 1.24545C13.196 1.24545 13.196 1.24545 13.196 1.24545L18.771 3.63445C19.487 3.94173 20.0577 4.51275 20.3657 5.22831L20.3663 5.22981L22.7539 10.8028C22.7537 10.8025 22.754 10.8031 22.7539 10.8028C22.7539 10.8029 22.7543 10.8038 22.7543 10.8038C23.0821 11.5673 23.082 12.432 22.7543 13.1955C22.7541 13.1958 22.7544 13.1952 22.7543 13.1955L20.3653 18.7705C20.058 19.4865 19.487 20.0572 18.7714 20.3652L18.7699 20.3658L13.1969 22.7534C13.1966 22.7535 13.1972 22.7533 13.1969 22.7534C13.1969 22.7534 13.1959 22.7538 13.1959 22.7538C12.4324 23.0816 11.5677 23.0815 10.8042 22.7538C10.8039 22.7536 10.8045 22.7539 10.8042 22.7538L5.2294 20.3649C5.22934 20.3648 5.22946 20.3649 5.2294 20.3649C4.51244 20.0577 3.941 19.4864 3.6339 18.7694M3.6339 18.7694L1.24595 13.1955C1.24594 13.1955 1.24597 13.1956 1.24595 13.1955C1.08403 12.8176 1.00049 12.4107 1.00049 11.9996C1.00049 11.5885 1.08399 11.1816 1.24594 10.8037C1.24593 10.8037 1.24594 10.8037 1.24594 10.8037L3.63494 5.22873C3.94222 4.51275 4.51323 3.94201 5.2288 3.63406L10.8043 1.24542C10.8043 1.24543 10.8043 1.2454 10.8043 1.24542" fill="#798086"/>
<path id="Vector (Stroke)_2" fill-rule="evenodd" clip-rule="evenodd" d="M12 15C12.5523 15 13 15.4477 13 16V16.01C13 16.5623 12.5523 17.01 12 17.01C11.4477 17.01 11 16.5623 11 16.01V16C11 15.4477 11.4477 15 12 15Z" fill="#798086"/>
<path id="Vector (Stroke)_3" fill-rule="evenodd" clip-rule="evenodd" d="M11.4266 8.05792C12.0859 7.926 12.7705 8.02093 13.369 8.32725C13.9696 8.63357 14.4496 9.13331 14.7314 9.74585C15.0134 10.3587 15.0806 11.0487 14.9221 11.7045C14.7636 12.3603 14.3887 12.9434 13.858 13.3599C13.3273 13.7764 12.6716 14.0018 11.997 13.9998C11.4447 13.9981 10.9984 13.549 11 12.9968C11.0017 12.4445 11.4507 11.9981 12.003 11.9998C12.2279 12.0004 12.4464 11.9253 12.6234 11.7865C12.8003 11.6477 12.9252 11.4533 12.978 11.2347C13.0309 11.0161 13.0085 10.7861 12.9145 10.5818C12.8205 10.3775 12.6604 10.2109 12.46 10.1088L12.4581 10.1078L12.4581 10.1078C12.2612 10.0069 12.036 9.97565 11.819 10.0191C11.6021 10.0625 11.4062 10.178 11.2633 10.3468C10.9065 10.7684 10.2755 10.8209 9.85394 10.464C9.4324 10.1072 9.37993 9.47623 9.73675 9.05468C10.1714 8.54121 10.767 8.18991 11.4266 8.05792Z" fill="#798086"/>
</g>
</svg>
