<svg width="32" height="32" viewBox="0 0 32 32" fill="none" xmlns="http://www.w3.org/2000/svg">
<g id="icon">
<path id="Vector (Stroke)" fill-rule="evenodd" clip-rule="evenodd" d="M10.7762 12.8903C11.6057 13.7199 11.9417 15.0404 11.9929 16.8225C11.9977 16.9887 12 17.1589 12 17.3331C12 19.0648 11.2834 20.6875 10.0004 22.2151C10.3661 22.6818 10.6872 23.0449 10.9711 23.315C11.332 23.6583 11.561 23.7813 11.6717 23.8182C11.7128 23.832 11.7124 23.8305 11.7116 23.8277C11.7113 23.8267 11.711 23.8256 11.7123 23.8249C11.773 23.7937 11.953 23.6667 12.224 23.2602C12.685 22.5691 13.0788 21.9481 13.408 21.3954C13.7036 20.8993 13.9471 20.4582 14.1404 20.0709C14.3724 19.6063 14.853 19.3186 15.3721 19.3337C15.8912 19.3488 16.3543 19.6639 16.5589 20.1412C17.8075 23.0543 19.2362 23.9998 20.6667 23.9998H24C24.7364 23.9998 25.3334 24.5968 25.3334 25.3331C25.3334 26.0695 24.7364 26.6665 24 26.6665H20.6667C18.3983 26.6665 16.6331 25.44 15.2941 23.4235C15.0343 23.8396 14.7503 24.2783 14.4428 24.7394C14.0471 25.3328 13.5604 25.8726 12.9336 26.1955C12.2513 26.547 11.5231 26.5796 10.8284 26.3481C10.1891 26.135 9.6264 25.7163 9.13317 25.2471C8.7885 24.9193 8.44119 24.5311 8.08905 24.0957C7.10709 24.9171 5.96366 25.7098 4.68608 26.4764C4.05466 26.8553 3.23564 26.6506 2.85675 26.0192C2.47785 25.3878 2.68257 24.5687 3.31399 24.1899C4.5112 23.4715 5.50226 22.7768 6.31081 22.1081C6.0723 21.869 5.82029 21.6071 5.58213 21.3282C4.76788 20.3748 4.0297 19.1283 4.00022 17.3554C3.95141 14.4311 5.59541 11.9998 8.00004 11.9998L8.09576 11.9995C8.69335 11.9962 9.87552 11.9897 10.7762 12.8903ZM8.18805 20.2139C7.98121 20.0066 7.79004 19.8073 7.60995 19.5964C7.04956 18.9402 6.68242 18.2688 6.66652 17.311C6.63005 15.1287 7.73804 14.6665 8.00004 14.6665C8.77483 14.6665 8.84221 14.7276 8.89056 14.776C8.98365 14.869 9.33337 15.3753 9.33337 17.3331C9.33337 18.2054 8.99006 19.1692 8.18805 20.2139Z" fill="#798086"/>
<path id="Vector (Stroke)_2" fill-rule="evenodd" clip-rule="evenodd" d="M20 6.66699C20 4.43595 21.769 2.66699 24 2.66699C26.231 2.66699 28 4.43595 28 6.66699V22.667C28 23.0206 27.8595 23.3598 27.6095 23.6098L24.9428 26.2765C24.4221 26.7972 23.5779 26.7972 23.0572 26.2765L20.3905 23.6098C20.1405 23.3598 20 23.0206 20 22.667V6.66699ZM24 5.33366C23.2417 5.33366 22.6667 5.90871 22.6667 6.66699V22.1147L24 23.448L25.3333 22.1147V6.66699C25.3333 5.90871 24.7583 5.33366 24 5.33366Z" fill="#798086"/>
<path id="Vector (Stroke)_3" fill-rule="evenodd" clip-rule="evenodd" d="M20 9.33333C20 8.59695 20.597 8 21.3333 8H26.6667C27.403 8 28 8.59695 28 9.33333C28 10.0697 27.403 10.6667 26.6667 10.6667H21.3333C20.597 10.6667 20 10.0697 20 9.33333Z" fill="#798086"/>
</g>
</svg>
