<svg width="32" height="32" viewBox="0 0 32 32" fill="none" xmlns="http://www.w3.org/2000/svg">
<g id="icon">
<path id="Vector (Stroke)" fill-rule="evenodd" clip-rule="evenodd" d="M16.0001 2.66699C16.7365 2.66699 17.3334 3.26395 17.3334 4.00033V5.33366C17.3334 6.07004 16.7365 6.66699 16.0001 6.66699C15.2637 6.66699 14.6667 6.07004 14.6667 5.33366V4.00033C14.6667 3.26395 15.2637 2.66699 16.0001 2.66699ZM6.52394 6.52418C7.04464 6.00348 7.88886 6.00348 8.40956 6.52418L9.34289 7.45752C9.86359 7.97822 9.86359 8.82244 9.34289 9.34313C8.82219 9.86383 7.97797 9.86383 7.45727 9.34313L6.52394 8.4098C6.00324 7.8891 6.00324 7.04488 6.52394 6.52418ZM25.4762 6.52418C25.9969 7.04488 25.9969 7.8891 25.4762 8.4098L24.5429 9.34313C24.0222 9.86383 23.178 9.86383 22.6573 9.34314C22.1366 8.82244 22.1366 7.97822 22.6573 7.45752L23.5906 6.52418C24.1113 6.00348 24.9555 6.00348 25.4762 6.52418ZM2.66675 16.0003C2.66675 15.2639 3.2637 14.667 4.00008 14.667H5.33341C6.06979 14.667 6.66675 15.2639 6.66675 16.0003C6.66675 16.7367 6.06979 17.3337 5.33341 17.3337H4.00008C3.2637 17.3337 2.66675 16.7367 2.66675 16.0003ZM25.3334 16.0003C25.3334 15.2639 25.9304 14.667 26.6667 14.667H28.0001C28.7365 14.667 29.3334 15.2639 29.3334 16.0003C29.3334 16.7367 28.7365 17.3337 28.0001 17.3337H26.6667C25.9304 17.3337 25.3334 16.7367 25.3334 16.0003Z" fill="#798086"/>
<path id="Vector (Stroke)_2" fill-rule="evenodd" clip-rule="evenodd" d="M16 10.6667C14.8806 10.6667 13.7896 11.0189 12.8815 11.6734C11.9735 12.3279 11.2943 13.2515 10.9404 14.3135C10.5864 15.3754 10.5755 16.5218 10.9093 17.5902C11.243 18.6587 11.9045 19.595 12.8 20.2667C12.8487 20.3032 12.8948 20.343 12.938 20.3857C13.6073 21.0483 14.1113 21.8591 14.4091 22.7525C14.6941 23.6077 14.7827 24.5156 14.6688 25.4088C14.6873 25.7349 14.825 26.0439 15.0572 26.2761C15.3072 26.5262 15.6464 26.6667 16 26.6667C16.3536 26.6667 16.6928 26.5262 16.9428 26.2761C17.175 26.0439 17.3127 25.7349 17.3312 25.4088C17.2173 24.5156 17.3059 23.6077 17.5909 22.7525C17.8887 21.8591 18.3927 21.0483 19.062 20.3857C19.1052 20.343 19.1513 20.3032 19.2 20.2667C20.0955 19.595 20.757 18.6587 21.0907 17.5902C21.4245 16.5218 21.4136 15.3754 21.0596 14.3135C20.7057 13.2515 20.0265 12.3279 19.1185 11.6734C18.2104 11.0189 17.1194 10.6667 16 10.6667ZM11.3223 9.51006C12.6844 8.5283 14.3209 8 16 8C17.6791 8 19.3156 8.5283 20.6777 9.51006C22.0398 10.4918 23.0585 11.8773 23.5895 13.4702C24.1204 15.0631 24.1367 16.7827 23.6361 18.3853C23.1457 19.9552 22.1837 21.3349 20.8821 22.3376C20.5381 22.6948 20.2778 23.1246 20.1207 23.5958C19.9553 24.0922 19.909 24.6205 19.9856 25.1381C19.9952 25.2027 20 25.268 20 25.3333C20 26.3942 19.5786 27.4116 18.8284 28.1618C18.0783 28.9119 17.0609 29.3333 16 29.3333C14.9391 29.3333 13.9217 28.9119 13.1716 28.1618C12.4214 27.4116 12 26.3942 12 25.3333C12 25.268 12.0048 25.2027 12.0144 25.1381C12.091 24.6205 12.0447 24.0922 11.8793 23.5958C11.7222 23.1246 11.4619 22.6948 11.1179 22.3376C9.81629 21.3349 8.85427 19.9552 8.36389 18.3853C7.86325 16.7827 7.87957 15.0631 8.41053 13.4702C8.9415 11.8773 9.96019 10.4918 11.3223 9.51006Z" fill="#798086"/>
<path id="Vector (Stroke)_3" fill-rule="evenodd" clip-rule="evenodd" d="M11.6001 22.6663C11.6001 21.93 12.1971 21.333 12.9334 21.333H19.0668C19.8031 21.333 20.4001 21.93 20.4001 22.6663C20.4001 23.4027 19.8031 23.9997 19.0668 23.9997H12.9334C12.1971 23.9997 11.6001 23.4027 11.6001 22.6663Z" fill="#798086"/>
</g>
</svg>
