<svg width="32" height="32" viewBox="0 0 32 32" fill="none" xmlns="http://www.w3.org/2000/svg">
<path fill-rule="evenodd" clip-rule="evenodd" d="M5.33301 16.0003C5.33301 15.2639 5.92996 14.667 6.66634 14.667H25.333C26.0694 14.667 26.6663 15.2639 26.6663 16.0003C26.6663 16.7367 26.0694 17.3337 25.333 17.3337H6.66634C5.92996 17.3337 5.33301 16.7367 5.33301 16.0003Z" fill="white"/>
<path fill-rule="evenodd" clip-rule="evenodd" d="M5.72353 15.0575C6.24423 14.5368 7.08845 14.5368 7.60915 15.0575L15.6091 23.0575C16.1298 23.5782 16.1298 24.4224 15.6091 24.9431C15.0885 25.4638 14.2442 25.4638 13.7235 24.9431L5.72353 16.9431C5.20283 16.4224 5.20283 15.5782 5.72353 15.0575Z" fill="white"/>
<path fill-rule="evenodd" clip-rule="evenodd" d="M15.6091 7.05752C16.1298 7.57822 16.1298 8.42244 15.6091 8.94313L7.60915 16.9431C7.08845 17.4638 6.24423 17.4638 5.72353 16.9431C5.20283 16.4224 5.20283 15.5782 5.72353 15.0575L13.7235 7.05752C14.2442 6.53682 15.0885 6.53682 15.6091 7.05752Z" fill="white"/>
</svg>
