<svg width="32" height="32" viewBox="0 0 32 32" fill="none" xmlns="http://www.w3.org/2000/svg">
<g id="icon-leading">
<path id="Vector (Stroke)" fill-rule="evenodd" clip-rule="evenodd" d="M5.33325 16.0003C5.33325 15.2639 5.93021 14.667 6.66659 14.667H25.3333C26.0696 14.667 26.6666 15.2639 26.6666 16.0003C26.6666 16.7367 26.0696 17.3337 25.3333 17.3337H6.66659C5.93021 17.3337 5.33325 16.7367 5.33325 16.0003Z" fill="#798086"/>
<path id="Vector (Stroke)_2" fill-rule="evenodd" clip-rule="evenodd" d="M5.72378 15.0575C6.24448 14.5368 7.0887 14.5368 7.60939 15.0575L15.6094 23.0575C16.1301 23.5782 16.1301 24.4224 15.6094 24.9431C15.0887 25.4638 14.2445 25.4638 13.7238 24.9431L5.72378 16.9431C5.20308 16.4224 5.20308 15.5782 5.72378 15.0575Z" fill="#798086"/>
<path id="Vector (Stroke)_3" fill-rule="evenodd" clip-rule="evenodd" d="M15.6094 7.05752C16.1301 7.57822 16.1301 8.42244 15.6094 8.94313L7.60939 16.9431C7.0887 17.4638 6.24448 17.4638 5.72378 16.9431C5.20308 16.4224 5.20308 15.5782 5.72378 15.0575L13.7238 7.05752C14.2445 6.53682 15.0887 6.53682 15.6094 7.05752Z" fill="#798086"/>
</g>
</svg>
