<svg id="Group_9083" data-name="Group 9083" xmlns="http://www.w3.org/2000/svg" xmlns:xlink="http://www.w3.org/1999/xlink" width="73.474" height="73.474" viewBox="0 0 73.474 73.474">
  <defs>
    <linearGradient id="linear-gradient" y1="0.5" x2="1" y2="0.5" gradientUnits="objectBoundingBox">
      <stop offset="0.006" stop-color="#ec7d4c"/>
      <stop offset="0.802" stop-color="#f5b644"/>
      <stop offset="1" stop-color="#f8c642"/>
    </linearGradient>
  </defs>
  <g id="Group_7" data-name="Group 7" transform="translate(17.169 17.062)">
    <g id="Group_6" data-name="Group 6">
      <g id="Group_4" data-name="Group 4" transform="translate(19.912 24.963)">
        <path id="Path_13" data-name="Path 13" d="M512.3,124.571a36.328,36.328,0,0,1-3.226,2.5l-20.5-20.5,1.257-4.471Z" transform="translate(-488.57 -102.103)" fill="url(#linear-gradient)"/>
      </g>
      <g id="Group_5" data-name="Group 5">
        <path id="Path_14" data-name="Path 14" d="M516.262,116.157l-.13,2.584H513.12L492.776,98.4l5.768-5.763a1.815,1.815,0,0,1,2.57,0l.8.809a1.364,1.364,0,0,0,1.929-1.929l-9.961-9.965a1.364,1.364,0,1,0-1.929,1.929l.8.794a1.824,1.824,0,0,1,0,2.571l-14.464,14.464a1.815,1.815,0,0,1-2.57,0l-.795-.8a1.364,1.364,0,0,0-1.929,1.929l9.965,9.965a1.364,1.364,0,0,0,1.929-1.929l-.808-.808a1.815,1.815,0,0,1,0-2.571l5.331-5.335.716.72,1.854,1.854-2.858,2.863-1.217,1.213a5,5,0,0,1-7.521,6.562l-9.96-9.965a5,5,0,0,1,6.544-7.529l11.959-11.959a5,5,0,0,1,7.529-6.544l9.961,9.965a5,5,0,0,1-6.558,7.516L498.214,98.1l17.406,17.411Z" transform="translate(-468.96 -77.519)" fill="url(#linear-gradient)"/>
      </g>
    </g>
  </g>
  <path id="Path_15" data-name="Path 15" d="M514.975,114.94l-4.046,1.692,1.545,1.534Z" transform="translate(-451.146 -59.881)" opacity="0.35" fill="url(#linear-gradient)" style="mix-blend-mode: multiply;isolation: isolate"/>
  <g id="Group_9" data-name="Group 9">
    <g id="Group_8" data-name="Group 8">
      <path id="Path_16" data-name="Path 16" d="M525.525,97.452A36.979,36.979,0,0,1,518.53,119h-5.15a31.964,31.964,0,0,0,2.5-3.226,32.4,32.4,0,0,0,5.6-18.322,32.687,32.687,0,1,0-32.689,32.688,32.309,32.309,0,0,0,13.721-3.012l3.026,3.03a36.746,36.746,0,1,1,19.991-32.706Z" transform="translate(-452.051 -60.715)" fill="url(#linear-gradient)"/>
    </g>
  </g>
</svg>
