<svg width="32" height="32" viewBox="0 0 32 32" fill="none" xmlns="http://www.w3.org/2000/svg">
<g id="icon">
<path id="Vector (Stroke)" fill-rule="evenodd" clip-rule="evenodd" d="M24.9428 7.05752C25.4635 7.57822 25.4635 8.42244 24.9428 8.94313L8.94277 24.9431C8.42207 25.4638 7.57785 25.4638 7.05715 24.9431C6.53645 24.4224 6.53645 23.5782 7.05715 23.0575L23.0572 7.05752C23.5779 6.53682 24.4221 6.53682 24.9428 7.05752Z" fill="#202B36"/>
<path id="Vector (Stroke)_2" fill-rule="evenodd" clip-rule="evenodd" d="M7.05715 7.05752C7.57785 6.53682 8.42207 6.53682 8.94277 7.05752L24.9428 23.0575C25.4635 23.5782 25.4635 24.4224 24.9428 24.9431C24.4221 25.4638 23.5779 25.4638 23.0572 24.9431L7.05715 8.94313C6.53645 8.42244 6.53645 7.57822 7.05715 7.05752Z" fill="#202B36"/>
</g>
</svg>
