<svg xmlns="http://www.w3.org/2000/svg" xmlns:xlink="http://www.w3.org/1999/xlink" width="355.801" height="175.131" viewBox="0 0 355.801 175.131">
  <defs>
    <linearGradient id="linear-gradient" y1="0.5" x2="1" y2="0.5" gradientUnits="objectBoundingBox">
      <stop offset="0.006" stop-color="#ec7d4c"/>
      <stop offset="0.802" stop-color="#f5b644"/>
      <stop offset="1" stop-color="#f8c642"/>
    </linearGradient>
  </defs>
  <g id="Group_243" data-name="Group 243" transform="translate(6 14.383)">
    <g id="Component_9_1" data-name="Component 9 – 1" transform="translate(-5 86.748)">
      <text id="the_bidder" data-name="the bidder" transform="translate(197 51)" font-size="39" font-family="Fairuz-Bold, Fairuz" font-weight="700"><tspan x="-197.157" y="0">The Bidder</tspan></text>
    </g>
    <g id="Component_8_1" data-name="Component 8 – 1" transform="translate(-5 -14.383)">
      <text id="ذا_بيدر" data-name="ذا بيدر" transform="translate(196 90)" font-size="68" font-family="Fairuz-Black, Fairuz" font-weight="800"><tspan x="-196.187" y="0">ذا بيدر</tspan></text>
    </g>
    <g id="Group_10" data-name="Group 10" transform="translate(224.168 14.708)">
      <g id="Group_7" data-name="Group 7" transform="translate(29.357 29.174)">
        <g id="Group_6" data-name="Group 6">
          <g id="Group_4" data-name="Group 4" transform="translate(34.047 42.683)">
            <path id="Path_13" data-name="Path 13" d="M529.138,140.521a62.135,62.135,0,0,1-5.516,4.278L488.57,109.747l2.149-7.644Z" transform="translate(-488.57 -102.103)" fill="url(#linear-gradient)"/>
          </g>
          <g id="Group_5" data-name="Group 5">
            <path id="Path_14" data-name="Path 14" d="M549.841,143.587l-.222,4.419h-5.15l-34.786-34.786,9.863-9.855a3.1,3.1,0,0,1,4.394,0l1.375,1.384a2.333,2.333,0,0,0,3.3-3.3L511.582,84.41a2.333,2.333,0,1,0-3.3,3.3l1.359,1.358a3.119,3.119,0,0,1,0,4.4l-24.732,24.732a3.1,3.1,0,0,1-4.394,0l-1.359-1.359a2.333,2.333,0,0,0-3.3,3.3L492.9,137.173a2.333,2.333,0,0,0,3.3-3.3l-1.382-1.382a3.1,3.1,0,0,1,0-4.4l9.115-9.122,1.224,1.231,3.17,3.17-4.887,4.9-2.082,2.075a8.553,8.553,0,0,1-12.86,11.221l-17.03-17.039a8.55,8.55,0,0,1,11.19-12.874L503.1,91.206a8.55,8.55,0,0,1,12.874-11.19l17.032,17.039a8.548,8.548,0,0,1-11.214,12.851l-2.813,2.813,29.762,29.77Z" transform="translate(-468.96 -77.519)" fill="url(#linear-gradient)"/>
          </g>
        </g>
      </g>
      <path id="Path_15" data-name="Path 15" d="M517.847,114.94l-6.918,2.893,2.642,2.622Z" transform="translate(-408.706 -20.795)" opacity="0.35" fill="url(#linear-gradient)" style="mix-blend-mode: multiply;isolation: isolate"/>
      <g id="Group_9" data-name="Group 9">
        <g id="Group_8" data-name="Group 8">
          <path id="Path_16" data-name="Path 16" d="M577.683,123.532a63.229,63.229,0,0,1-11.961,36.844h-8.806a54.647,54.647,0,0,0,4.275-5.516,55.393,55.393,0,0,0,9.57-31.328,55.89,55.89,0,1,0-55.895,55.893,55.245,55.245,0,0,0,23.461-5.15l5.174,5.181a62.831,62.831,0,1,1,34.182-55.924Z" transform="translate(-452.051 -60.715)" fill="url(#linear-gradient)"/>
        </g>
      </g>
    </g>
    <g id="Group_12" data-name="Group 12" transform="translate(152.776 9.539)">
      <path id="Path_17" data-name="Path 17" d="M413.365,67.572l29.659-5.042c2.736-.274,3.561,4.931,0,5.207L413.91,72.779C410.624,73.6,409.528,67.847,413.365,67.572Z" transform="translate(-410.931 -62.52)" fill="url(#linear-gradient)"/>
    </g>
  </g>
</svg>
