<svg xmlns="http://www.w3.org/2000/svg" xmlns:xlink="http://www.w3.org/1999/xlink" width="352.552" height="130.802" viewBox="0 0 352.552 130.802">
  <defs>
    <linearGradient id="linear-gradient" y1="0.5" x2="1" y2="0.5" gradientUnits="objectBoundingBox">
      <stop offset="0.006" stop-color="#ec7d4c"/>
      <stop offset="0.802" stop-color="#f5b644"/>
      <stop offset="1" stop-color="#f8c642"/>
    </linearGradient>
  </defs>
  <g id="Group_244" data-name="Group 244" transform="translate(3805.151 829.209)">
    <g id="Group_242" data-name="Group 242">
      <g id="logo" transform="translate(-3802.4 -838.748)">
        <g id="Group_243" data-name="Group 243">
          <g id="Component_9_1" data-name="Component 9 – 1" transform="translate(-2.751 107.71)">
            <path id="Path_720" data-name="Path 720" d="M-192.76-26.221h7.385v24.23a2.074,2.074,0,1,0,4.149,0v-24.23h6.472a1.868,1.868,0,1,0,0-3.734H-192.76A1.871,1.871,0,1,0-192.76-26.221ZM-167.451,0h.332a1.742,1.742,0,0,0,1.826-1.826V-14.687c2.157-2.323,3.817-3.568,6.306-3.568,2.9,0,4.9,2.406,4.9,7.883v8.547A1.742,1.742,0,0,0-152.266,0h.415a1.742,1.742,0,0,0,1.826-1.826V-10.7c0-7.551-3.4-11.285-8.713-11.285a10.1,10.1,0,0,0-6.555,2.24v-7.883c0-1.577-.747-2.406-2.074-2.406-1.162,0-1.909.913-1.909,2.406V-1.826A1.742,1.742,0,0,0-167.451,0Zm31.615-21.823c-4.066,0-9.377-.249-9.294,6.223v8.8c0,4.564,3.236,7.468,13.111,6.638,2.821-.249,2.406-4.066-.166-3.651-7.8,1-9.045-1.162-9.045-2.987V-8.132c6.14,1.162,12.53-.5,12.53-6.638C-128.7-19.168-131.438-21.823-135.836-21.823Zm-.249,3.568c2.323,0,3.651,1,3.651,3.319,0,3.485-4.564,4.066-8.63,3.07v-4.647C-141.064-17.923-139.736-18.255-136.085-18.255ZM-112.685,0c13.028,0,17.923-.913,17.923-8.63a7.075,7.075,0,0,0-4.647-7.136c1.991-1.245,3.07-3.236,3.07-6.14,0-7.053-3.817-7.883-16.347-7.883a1.917,1.917,0,0,0-1.991,1.991V-1.991A1.966,1.966,0,0,0-112.685,0Zm2.074-17.343v-8.713c9.045.083,10.372.5,10.372,4.149,0,3.07-1.991,4.564-5.726,4.564Zm0,13.609v-9.874h4.9c4.564,0,6.8,1.494,6.8,4.9C-98.911-4.481-100.653-3.817-110.611-3.734Zm20.745-22.238a1.909,1.909,0,1,0,3.817,0V-27.3a1.909,1.909,0,0,0-3.817,0ZM-88.04,0h.083a1.83,1.83,0,0,0,1.909-1.909V-19.666c0-1.494-.747-2.323-1.991-2.323s-1.909.83-1.909,2.323V-1.909A1.83,1.83,0,0,0-88.04,0Zm16.43,1C-64.391,1-61.9-.415-61.9-5.311V-26.636c0-1.494-.747-2.406-1.909-2.406-1.411,0-2.074.83-2.074,2.406v8.3a10.544,10.544,0,0,0-6.8-2.655c-5.477,0-8.962,3.817-8.962,11.285S-77.917,1-71.611,1Zm0-3.568c-3.9,0-5.974-1.577-5.974-6.97,0-5.477,2.157-7.883,5.145-7.883,2.406,0,4.481,1.328,6.555,3.651v8.464C-65.885-2.9-66.383-2.572-71.611-2.572ZM-49.123,1c7.219,0,9.709-1.411,9.709-6.306V-26.636c0-1.494-.747-2.406-1.909-2.406-1.411,0-2.074.83-2.074,2.406v8.3a10.544,10.544,0,0,0-6.8-2.655c-5.477,0-8.962,3.817-8.962,11.285S-55.43,1-49.123,1Zm0-3.568c-3.9,0-5.974-1.577-5.974-6.97,0-5.477,2.157-7.883,5.145-7.883,2.406,0,4.481,1.328,6.555,3.651v8.464C-43.4-2.9-43.9-2.572-49.123-2.572Zm23.234-19.251c-4.066,0-9.377-.249-9.294,6.223v8.8c0,4.564,3.236,7.468,13.111,6.638,2.821-.249,2.406-4.066-.166-3.651-7.8,1-9.045-1.162-9.045-2.987V-8.132c6.14,1.162,12.53-.5,12.53-6.638C-18.753-19.168-21.491-21.823-25.889-21.823Zm-.249,3.568c2.323,0,3.651,1,3.651,3.319,0,3.485-4.564,4.066-8.63,3.07v-4.647C-31.117-17.923-29.789-18.255-26.138-18.255ZM-13.443,0h.332a1.742,1.742,0,0,0,1.826-1.826v-12.2a10.186,10.186,0,0,1,7.219-3.651c2.572,0,2.489-3.568.249-3.568-2.572,0-5.56,1.66-7.468,3.236v-2.157a1.991,1.991,0,1,0-3.983,0V-1.826A1.742,1.742,0,0,0-13.443,0Z" transform="translate(194.751 30.038)"/>
          </g>
          <g id="Component_8_1" data-name="Component 8 – 1" transform="translate(-2.312 18.667)">
            <path id="Path_719" data-name="Path 719" d="M-188.953,12.443c7.668,0,12.443-5.353,12.443-13.889V-30.672c0-5.209-7.813-5.209-7.813,0V-1.157c0,3.906-1.736,6.077-4.774,6.077C-194.74,4.919-194.74,12.443-188.953,12.443Zm48.179-20.111v-7.813c0-13.6-8.1-23.294-20.111-24.017a3.743,3.743,0,0,0-4.34,3.762,3.914,3.914,0,0,0,3.472,3.906c8.391.723,13.166,6.655,13.166,16.349v7.813h-18.374c-5.064,0-4.919,7.668,0,7.668h36.026l.145-7.668Zm44.417,0h-6.221c-3.762,0-4.2-1.157-4.2-7.379v-17.8c0-5.209-7.668-5.064-7.668-.145v19.821c0,3.472-2.026,5.5-4.63,5.5h-14.613V0h14.613a12.111,12.111,0,0,0,8.1-2.6c1.881,1.736,4.63,2.6,8.391,2.6h6.366l.868-3.762ZM-123.268,11.14v2.315c0,5.209,7.813,5.209,7.813,0V11.14C-115.455,5.932-123.268,6.077-123.268,11.14Zm10.128,0v2.315c0,5.209,7.813,5.209,7.813,0V11.14C-105.328,5.932-113.14,6.077-113.14,11.14ZM-97.8-7.668V0h14.613c7.668,0,12.3-4.774,12.3-12.877V-32.843c0-5.209-7.668-5.064-7.668-.145v19.821c0,3.472-2.026,5.5-4.63,5.5ZM-87.243,13.6c0,5.209,7.813,5.209,7.813,0V11.285c0-5.209-7.813-5.064-7.813,0Zm39.5-17.506c0,5.064,7.668,5.064,7.668,0V-49.915c0-4.919-7.668-4.774-7.668,0ZM-19.1-50.783V-53.1c0-5.209-7.813-5.064-7.813,0v2.315C-26.911-45.574-19.1-45.574-19.1-50.783ZM-23-39.5a3.743,3.743,0,0,0-4.34,3.762,3.914,3.914,0,0,0,3.472,3.906c8.391.723,13.166,6.655,13.166,16.349v7.813H-29.081C-34.145-7.668-34,0-29.081,0H-2.894V-15.481C-2.894-29.081-11-38.774-23-39.5Z" transform="translate(193.312 56.95)"/>
          </g>
          <g id="Group_10" data-name="Group 10" transform="translate(224.168 14.708)">
            <g id="Group_7" data-name="Group 7" transform="translate(29.357 29.174)">
              <g id="Group_6" data-name="Group 6">
                <g id="Group_4" data-name="Group 4" transform="translate(34.047 42.683)">
                  <path id="Path_13" data-name="Path 13" d="M529.138,140.521a62.135,62.135,0,0,1-5.516,4.278L488.57,109.747l2.149-7.644Z" transform="translate(-488.57 -102.103)" fill="url(#linear-gradient)"/>
                </g>
                <g id="Group_5" data-name="Group 5">
                  <path id="Path_14" data-name="Path 14" d="M549.841,143.587l-.222,4.419h-5.15l-34.786-34.786,9.863-9.855a3.1,3.1,0,0,1,4.394,0l1.375,1.384a2.333,2.333,0,0,0,3.3-3.3L511.582,84.41a2.333,2.333,0,1,0-3.3,3.3l1.359,1.358a3.119,3.119,0,0,1,0,4.4l-24.732,24.732a3.1,3.1,0,0,1-4.394,0l-1.359-1.359a2.333,2.333,0,0,0-3.3,3.3L492.9,137.173a2.333,2.333,0,0,0,3.3-3.3l-1.382-1.382a3.1,3.1,0,0,1,0-4.4l9.115-9.122,1.224,1.231,3.17,3.17-4.887,4.9-2.082,2.075a8.553,8.553,0,0,1-12.86,11.221l-17.03-17.039a8.55,8.55,0,0,1,11.19-12.874L503.1,91.206a8.55,8.55,0,0,1,12.874-11.19l17.032,17.039a8.548,8.548,0,0,1-11.214,12.851l-2.813,2.813,29.762,29.77Z" transform="translate(-468.96 -77.519)" fill="url(#linear-gradient)"/>
                </g>
              </g>
            </g>
            <path id="Path_15" data-name="Path 15" d="M517.847,114.94l-6.918,2.893,2.642,2.622Z" transform="translate(-408.706 -20.795)" opacity="0.35" fill="url(#linear-gradient)" style="mix-blend-mode: multiply;isolation: isolate"/>
            <g id="Group_9" data-name="Group 9">
              <g id="Group_8" data-name="Group 8">
                <path id="Path_16" data-name="Path 16" d="M577.683,123.532a63.229,63.229,0,0,1-11.961,36.844h-8.806a54.647,54.647,0,0,0,4.275-5.516,55.393,55.393,0,0,0,9.57-31.328,55.89,55.89,0,1,0-55.895,55.893,55.245,55.245,0,0,0,23.461-5.15l5.174,5.181a62.831,62.831,0,1,1,34.182-55.924Z" transform="translate(-452.051 -60.715)" fill="url(#linear-gradient)"/>
              </g>
            </g>
          </g>
          <g id="Group_12" data-name="Group 12" transform="translate(152.776 9.539)">
            <path id="Path_17" data-name="Path 17" d="M413.365,67.572l29.659-5.042c2.736-.274,3.561,4.931,0,5.207L413.91,72.779C410.624,73.6,409.528,67.847,413.365,67.572Z" transform="translate(-410.931 -62.52)" fill="url(#linear-gradient)"/>
          </g>
        </g>
      </g>
    </g>
  </g>
</svg>
