<svg width="33" height="32" viewBox="0 0 33 32" fill="none" xmlns="http://www.w3.org/2000/svg">
<g id="icon-trailing">
<path id="Vector (Stroke)" fill-rule="evenodd" clip-rule="evenodd" d="M7.07199 6.57224C9.57248 4.07175 12.9639 2.66699 16.5001 2.66699C20.0363 2.66699 23.4277 4.07175 25.9282 6.57224C28.4287 9.07272 29.8334 12.4641 29.8334 16.0003C29.8334 17.7513 29.4885 19.4851 28.8185 21.1028C28.1484 22.7204 27.1663 24.1903 25.9282 25.4284C24.6901 26.6665 23.2202 27.6487 21.6025 28.3187C19.9849 28.9888 18.251 29.3337 16.5001 29.3337C14.7491 29.3337 13.0153 28.9888 11.3976 28.3187C9.77996 27.6487 8.3101 26.6665 7.07199 25.4284C5.83388 24.1903 4.85175 22.7204 4.18169 21.1028C3.51162 19.4851 3.16675 17.7513 3.16675 16.0003C3.16675 12.4641 4.57151 9.07272 7.07199 6.57224ZM16.5001 5.33366C13.6711 5.33366 10.958 6.45747 8.95761 8.45785C6.95722 10.4582 5.83341 13.1714 5.83341 16.0003C5.83341 17.4011 6.10932 18.7881 6.64537 20.0823C7.18142 21.3764 7.96712 22.5523 8.95761 23.5428C9.9481 24.5333 11.124 25.319 12.4181 25.855C13.7123 26.3911 15.0993 26.667 16.5001 26.667C17.9008 26.667 19.2879 26.3911 20.582 25.855C21.8762 25.319 23.0521 24.5333 24.0426 23.5428C25.033 22.5523 25.8187 21.3764 26.3548 20.0823C26.8908 18.7881 27.1667 17.4011 27.1667 16.0003C27.1667 13.1714 26.0429 10.4582 24.0426 8.45785C22.0422 6.45747 19.3291 5.33366 16.5001 5.33366Z" fill="#798086"/>
<path id="Vector (Stroke)_2" fill-rule="evenodd" clip-rule="evenodd" d="M11.1667 16.0003C11.1667 15.2639 11.7637 14.667 12.5001 14.667H20.5001C21.2365 14.667 21.8334 15.2639 21.8334 16.0003C21.8334 16.7367 21.2365 17.3337 20.5001 17.3337H12.5001C11.7637 17.3337 11.1667 16.7367 11.1667 16.0003Z" fill="#798086"/>
<path id="Vector (Stroke)_3" fill-rule="evenodd" clip-rule="evenodd" d="M16.5001 10.667C17.2365 10.667 17.8334 11.2639 17.8334 12.0003V20.0003C17.8334 20.7367 17.2365 21.3337 16.5001 21.3337C15.7637 21.3337 15.1667 20.7367 15.1667 20.0003V12.0003C15.1667 11.2639 15.7637 10.667 16.5001 10.667Z" fill="#798086"/>
</g>
</svg>
